<svg width="440" height="440" viewBox="0 0 440 440" fill="none" xmlns="http://www.w3.org/2000/svg">
<g clip-path="url(#clip0)">
<path d="M440 0H0V440H440V0Z" fill="#D0E9FF"/>
<path fill-rule="evenodd" clip-rule="evenodd" d="M440 53.1055V234.984C438.39 235.07 436.769 235.115 435.139 235.115C408.079 235.115 383.708 223.206 367 204.364C352.741 188.279 344.067 167.143 344.067 144.043C344.067 135.039 345.387 126.333 347.836 118.107C348.911 114.506 350.203 110.998 351.698 107.6C356.954 95.6388 364.707 85.0095 374.293 76.3806C386.01 65.8329 400.461 58.2714 416.431 54.9144H416.435C422.473 53.6432 428.731 52.9751 435.139 52.9751C436.769 52.9751 438.39 53.0199 440 53.1055Z" fill="#8EAC34"/>
<path fill-rule="evenodd" clip-rule="evenodd" d="M382.461 133.536C408.168 133.536 429.134 112.571 429.134 86.8632C429.134 61.1558 408.168 40.1865 382.461 40.1865C356.753 40.1865 335.784 61.1558 335.784 86.8632C335.784 112.571 356.749 133.536 382.461 133.536Z" fill="url(#paint0_linear)"/>
<path fill-rule="evenodd" clip-rule="evenodd" d="M417.592 178.876L439.999 194.309V209.33L410.214 188.813L378.114 166.703L385.13 156.518L417.592 178.876Z" fill="#AF7A34"/>
<path fill-rule="evenodd" clip-rule="evenodd" d="M360.197 0H440V117.537C439.368 117.447 438.737 117.35 438.109 117.248C432.283 116.282 426.633 114.795 421.21 112.831C402.017 105.877 385.627 92.9826 374.293 76.3807C368.003 67.1693 363.268 56.8211 360.474 45.7111C358.583 38.2107 357.581 30.36 357.581 22.2852C357.581 14.6178 358.485 7.15407 360.197 0Z" fill="url(#paint1_linear)"/>
<path d="M373.254 204.747C401.404 204.747 424.225 181.926 424.225 153.776C424.225 125.626 401.404 102.805 373.254 102.805C345.104 102.805 322.283 125.626 322.283 153.776C322.283 181.926 345.104 204.747 373.254 204.747Z" fill="url(#paint2_linear)"/>
<path fill-rule="evenodd" clip-rule="evenodd" d="M437.963 113.141C437.963 107.906 438.672 102.834 440 98.01V128.272C439.022 124.724 438.378 121.033 438.11 117.248C438.012 115.891 437.963 114.522 437.963 113.141Z" fill="url(#paint3_linear)"/>
<path fill-rule="evenodd" clip-rule="evenodd" d="M68.2407 338.437C68.2407 352.856 62.8263 366.056 53.9204 376.094C43.4907 387.86 28.2782 395.295 11.383 395.295C8.47407 395.295 5.61407 395.075 2.81926 394.651C1.87 394.505 0.932963 394.338 0 394.15V282.724C3.67889 281.975 7.48815 281.58 11.383 281.58C15.3837 281.58 19.2907 281.995 23.0593 282.79C33.0326 284.884 42.0567 289.606 49.3696 296.189C55.3544 301.583 60.1985 308.22 63.4782 315.684C64.4111 317.806 65.2137 319.994 65.8859 322.243C67.4178 327.38 68.2407 332.815 68.2407 338.437Z" fill="#8EAC34"/>
<path d="M44.2727 331.878C60.3673 331.878 73.4146 318.831 73.4146 302.736C73.4146 286.642 60.3673 273.594 44.2727 273.594C28.1781 273.594 15.1309 286.642 15.1309 302.736C15.1309 318.831 28.1781 331.878 44.2727 331.878Z" fill="url(#paint4_linear)"/>
<path fill-rule="evenodd" clip-rule="evenodd" d="M46.9822 352.583L26.9419 366.39L2.81926 383.004V440H0V302.211H2.81926V373.625L22.3382 360.181L42.6026 346.223L46.9822 352.583Z" fill="#AF7A34"/>
<path fill-rule="evenodd" clip-rule="evenodd" d="M59.8033 262.415C59.8033 267.455 59.1759 272.356 57.9985 277.041C56.2548 283.975 53.297 290.437 49.3696 296.189C42.293 306.554 32.0589 314.608 20.077 318.943C16.6874 320.173 13.1593 321.102 9.52519 321.701C7.32519 322.068 5.08852 322.312 2.81926 322.43C1.8863 322.475 0.945185 322.504 0 322.508V202.319C32.9674 202.477 59.8033 229.411 59.8033 262.415Z" fill="url(#paint5_linear)"/>
<path d="M50.0169 376.334C67.5921 376.334 81.8395 362.087 81.8395 344.512C81.8395 326.937 67.5921 312.689 50.0169 312.689C32.4418 312.689 18.1943 326.937 18.1943 344.512C18.1943 362.087 32.4418 376.334 50.0169 376.334Z" fill="url(#paint6_linear)"/>
<path fill-rule="evenodd" clip-rule="evenodd" d="M9.61889 319.139C9.61889 320.002 9.5863 320.854 9.52518 321.701C9.04037 328.525 6.62037 334.824 2.81926 340.063C1.95148 341.261 1.01037 342.402 0 343.481V294.8C5.96444 301.188 9.61889 309.752 9.61889 319.139Z" fill="url(#paint7_linear)"/>
<path fill-rule="evenodd" clip-rule="evenodd" d="M440 425.973V440H0V438.615C0.928889 438.322 1.87 438.032 2.81926 437.739C57.0941 421.153 145.978 410.304 246.099 410.304C319.982 410.304 387.746 416.212 440 425.973Z" fill="#5AA746"/>
<path fill-rule="evenodd" clip-rule="evenodd" d="M220.489 381.757C219.299 391.881 216.068 417.422 215.193 420.84C213.95 425.7 215.213 423.965 212.194 428.259C210.104 431.233 188.898 427.203 186.564 426.454C181.793 424.926 163.603 420.555 158.518 421.19C156.644 421.422 144.548 419.752 145.958 414.264C147.151 409.599 148.618 413.266 153.201 409.559C156.648 406.772 169.498 403.696 174.057 403.366C177.662 403.109 179.516 383.02 181.793 376.697C188.328 357.109 199.104 352.395 208.902 354.612C218.704 356.832 222.078 368.81 220.489 381.757Z" fill="#FFB363"/>
<path fill-rule="evenodd" clip-rule="evenodd" d="M220.489 381.757C220.338 383.032 220.155 384.556 219.951 386.246C214.101 385.843 196.88 384.315 180.975 379.553C181.243 378.436 181.516 377.467 181.794 376.697C192.692 377.943 205.778 380.282 220.489 381.757Z" fill="#D09C6F"/>
<path fill-rule="evenodd" clip-rule="evenodd" d="M178.836 415.144C178.775 415.136 175.096 415.849 173.788 415.808C170.374 415.71 167.502 419.454 170.516 422.575C169.616 422.4 168.728 422.233 167.86 422.078C168.394 421.553 168.475 420.726 167.734 419.503C166.442 417.373 172.089 414.447 174.758 414.863C175.65 415.01 177.764 415.038 178.836 415.144ZM146.646 417.246C146.879 416.415 147.51 415.564 148.521 414.761C148.736 414.586 153.23 412.451 153.132 412.512C150.994 413.906 147.84 415.535 148.574 418.636C148.59 418.705 148.614 418.77 148.647 418.835C147.836 418.383 147.144 417.857 146.646 417.246ZM150.329 419.622C151.845 420.216 153.519 420.628 154.974 420.88C154.64 420.355 154.97 419.198 155.895 417.548C156.697 416.114 157.822 415.437 159.04 414.472C160.066 413.657 161.594 413.563 160.849 413.441C158.396 413.03 155.874 415.743 154.518 417.605C153.454 419.067 151.67 419.679 150.329 419.622ZM156.424 421.096C157.394 421.21 158.152 421.239 158.518 421.194C159.093 421.121 159.838 421.113 160.71 421.157C160.894 417.25 167.302 414.928 167.102 414.957C162.091 415.706 160.93 418.9 158.624 420.147C157.724 420.632 156.995 420.942 156.424 421.096Z" fill="#DA9751"/>
<path fill-rule="evenodd" clip-rule="evenodd" d="M336.376 400.608C336.539 404.242 317.297 414.019 314.991 414.859C310.282 416.566 293.216 424.229 289.581 427.839C288.241 429.171 277.649 435.245 275.408 430.043C273.501 425.622 276.903 427.627 278.264 421.886C279.286 417.572 287.569 407.285 290.979 404.238C293.603 401.891 283.654 385.753 281.291 379.027C275.151 365.155 279.8 354.074 287.426 352.265C295.053 350.452 308.163 350.525 318.145 366.451C322.484 373.177 332.832 389.709 334.213 392.908C336.197 397.511 336.136 395.364 336.376 400.608Z" fill="#FFB363"/>
<path fill-rule="evenodd" clip-rule="evenodd" d="M279.44 432.104C280.325 431.644 281.225 430.87 282.052 429.709C283.865 427.175 283.352 424.074 286.387 420.697C288.379 418.477 284.704 422.49 285.507 426.877C285.776 428.356 286.15 429.281 286.574 429.774C284.492 430.866 281.738 431.986 279.44 432.104ZM289.43 427.977C289.976 426.645 290.31 424.889 290.2 423.207C290.053 420.982 296.222 411.371 292.612 418.88C290.815 422.612 291.508 424.906 292.844 425.464C291.402 426.352 290.257 427.167 289.577 427.839C289.54 427.88 289.487 427.924 289.43 427.977ZM296.25 423.512C296.653 422.758 296.975 421.797 297.15 420.611C298.039 414.59 301.905 411.685 301.579 412.37C300.361 414.94 298.605 418.595 300.259 421.434C298.87 422.127 297.513 422.828 296.25 423.512ZM303.38 419.915C304.19 418.688 304.875 417.275 305.042 416.582C305.816 413.38 310.737 405.444 306.981 414.411C306.92 414.443 306.851 414.655 306.777 414.981C306.643 415.429 306.566 415.877 306.545 416.297C306.431 417.059 306.325 417.91 306.248 418.57C305.311 419.006 304.349 419.454 303.38 419.915Z" fill="#DA9751"/>
<path fill-rule="evenodd" clip-rule="evenodd" d="M321.134 371.14C320.173 371.853 319.195 372.586 318.213 373.336C312.616 377.61 297.171 381.737 282.753 382.519C282.146 381.199 281.636 380.013 281.29 379.027C284.867 378.123 288.473 377.08 292.111 375.878C302.361 372.501 309.393 370.244 318.144 366.451C318.959 367.718 319.99 369.331 321.134 371.14Z" fill="#D09C6F"/>
<path fill-rule="evenodd" clip-rule="evenodd" d="M204.567 254.043C202.485 258.125 204.995 268.559 199.324 268.302C199.438 266.876 199.544 265.727 197.8 265.316C197.694 229.582 153.099 188.695 116.901 195.246C66.9368 204.29 31.6879 247.076 44.2523 298.324C45.552 303.624 46.8434 305.189 49.7157 307.784L47.7601 308.358L48.1716 306.317C37.8234 299.008 11.1912 318.601 10.0423 298.446C5.89492 225.895 27.0475 176.261 107.637 168.789C142.804 165.53 174.843 185.089 199.385 207.818C210.727 218.321 211.232 240.977 204.567 254.043Z" fill="#BC5353"/>
<path fill-rule="evenodd" clip-rule="evenodd" d="M257.51 89.532C258.614 87.6742 260.061 84.969 260.069 83.4738C260.077 82.0071 260.171 80.6219 260.187 79.3142C257.502 78.9882 254.703 78.7153 251.807 78.4912C252.642 79.5749 252.817 81.1475 252.014 83.4453C252.002 83.4779 249.631 91.6708 249.578 92.9786L250.377 93.2068C250.405 93.1497 250.254 92.3716 250.291 92.286C252.031 88.3057 255.359 88.106 257.51 89.532Z" fill="#4D4237"/>
<path fill-rule="evenodd" clip-rule="evenodd" d="M216.016 79.2856C215.018 79.3631 214.028 79.4486 213.05 79.5423C213.661 80.1534 214.464 80.6668 215.396 81.119C215.633 80.2145 215.853 79.5749 216.016 79.2856Z" fill="#4D4237"/>
<path fill-rule="evenodd" clip-rule="evenodd" d="M256.549 127.852C255.93 129.246 253.941 131.772 253.114 132.273C246.046 136.546 239.515 132.961 232.748 128.749C231.77 124.593 231.094 119.203 229.521 116.021C229.09 115.044 228.462 112.196 228.67 108.521C228.878 104.846 233.143 95.6591 239.959 93.8624C246.771 92.0658 253.273 97.028 253.758 102.935C254.532 107.657 254.373 113.911 254.459 114.718C254.919 118.942 256.064 125.123 256.549 127.852Z" fill="#F4A45B"/>
<path fill-rule="evenodd" clip-rule="evenodd" d="M250.983 100.41C249.761 106.635 241.56 116.05 235.958 116.36C206.922 117.973 214.426 81.4122 216.015 78.5359C221.743 78.0796 227.85 77.8352 234.198 77.8352C240.333 77.8352 246.249 78.0634 251.81 78.4911C252.641 79.5748 252.82 81.1474 252.018 83.4452C252.005 83.4819 249.129 94.9504 250.294 92.2859C252.906 86.3052 259.098 88.8596 259.51 92.6241C260.801 104.455 251.891 104.761 250.983 100.41Z" fill="#FFB363"/>
<path fill-rule="evenodd" clip-rule="evenodd" d="M253.86 103.616C251.538 106.028 249.448 108.485 248.279 110.534C244.86 116.519 240.526 119.464 230.797 119.656C230.438 118.291 230.027 117.04 229.521 116.022C231.44 116.364 233.575 116.494 235.959 116.36C241.564 116.05 249.774 106.623 250.988 100.397C251.277 101.807 252.406 102.732 253.758 102.936C253.795 103.16 253.827 103.388 253.86 103.616Z" fill="#D09C6F"/>
<path fill-rule="evenodd" clip-rule="evenodd" d="M217.417 90.8804C218.102 90.8804 218.66 90.0901 218.66 89.1164C218.66 88.1467 218.102 87.3523 217.417 87.3523C216.733 87.3523 216.175 88.1427 216.175 89.1164C216.175 90.0901 216.733 90.8804 217.417 90.8804Z" fill="#6F441D"/>
<path fill-rule="evenodd" clip-rule="evenodd" d="M236.015 90.8804C236.7 90.8804 237.258 90.0901 237.258 89.1164C237.258 88.1467 236.7 87.3523 236.015 87.3523C235.331 87.3523 234.772 88.1427 234.772 89.1164C234.768 90.0901 235.331 90.8804 236.015 90.8804Z" fill="#6F441D"/>
<path fill-rule="evenodd" clip-rule="evenodd" d="M223.638 109.788C225.104 110.444 223.74 111.238 227.92 111.238C230.511 111.238 232.181 109.808 232.283 109.817C231.904 111.556 230.042 112.351 228.506 112.677C227.137 112.966 225.553 112.795 224.685 111.511C224.29 110.925 224.041 109.967 223.638 109.788Z" fill="#E09C60"/>
<path fill-rule="evenodd" clip-rule="evenodd" d="M221.43 103.706C225.418 106.195 229.346 107.425 233.412 103.669C233.75 103.359 232.438 106.281 230.279 107.869C227.944 109.585 222.921 107.719 221.87 104.675C221.731 104.272 221.475 103.73 221.43 103.706Z" fill="#FDFDFD"/>
<path fill-rule="evenodd" clip-rule="evenodd" d="M212.83 82.7893H220.322C221.031 82.7893 221.613 83.3719 221.613 84.0808C221.613 84.7897 221.035 85.3723 220.322 85.3723H212.83C212.121 85.3723 211.538 84.7938 211.538 84.0808C211.538 83.3678 212.117 82.7893 212.83 82.7893Z" fill="#6F441D"/>
<path fill-rule="evenodd" clip-rule="evenodd" d="M232.161 82.7893H239.653C240.362 82.7893 240.944 83.3719 240.944 84.0808C240.944 84.7897 240.362 85.3723 239.653 85.3723H232.161C231.452 85.3723 230.869 84.7938 230.869 84.0808C230.869 83.3678 231.448 82.7893 232.161 82.7893Z" fill="#6F441D"/>
<path fill-rule="evenodd" clip-rule="evenodd" d="M227.431 86.1423C230.054 86.1423 232.197 88.2853 232.197 90.909V96.8205C232.197 99.4442 230.054 101.587 227.431 101.587C224.811 101.587 222.664 99.4442 222.664 96.8205V90.909C222.664 88.2853 224.811 86.1423 227.431 86.1423Z" fill="url(#paint8_linear)"/>
<path fill-rule="evenodd" clip-rule="evenodd" d="M323.631 366.072C315.687 369.416 308.932 371.588 299.395 374.733C290.868 377.548 282.504 379.508 274.351 380.82C272.954 381.044 271.544 380.539 270.615 379.475C238.17 342.287 216.614 273.598 212.238 262.093C205.785 240.782 227.854 212.178 260.308 213.84C292.762 215.506 308.337 244.265 302.422 260.745C293.504 276.805 307.518 331.67 325.497 360.132C326.846 362.262 325.962 365.094 323.631 366.072Z" fill="#3B3B3B"/>
<path fill-rule="evenodd" clip-rule="evenodd" d="M384.894 262.827C382.531 272.987 384.438 266.424 374.774 266.294C359.133 266.086 363.436 264.086 356.966 273.04C354.518 276.426 357.341 311.703 353.397 325.323C349.075 340.263 338.682 340.226 330.489 345.795C321.713 351.764 281.975 350.342 267.65 356.005C255.273 360.902 225.003 361.603 210.792 361.603C200.705 361.603 179.825 351.809 171.119 345.771C161.37 339.008 152.484 286.835 130.957 270.828C128.561 268.628 126.365 267.398 124.964 267.496C127.066 268.29 129.062 269.419 130.957 270.828C139.256 278.455 149.966 297.75 138.416 314.123C138.4 314.152 136.791 318.344 137.215 321.31C135.74 322.08 134.754 322.752 133.915 322.927C133.915 322.936 135.573 322.993 138.172 323.433C138.824 324.052 139.842 324.345 141.374 324.089C146.581 325.339 153.592 327.947 159.292 333.382C163.651 337.533 158.155 354.97 156.436 360.279C153.213 370.248 136.722 372.22 128.023 376.208C120.197 379.802 62.386 319.823 54.8001 312.441C48.0208 305.845 46.1467 306.044 44.2523 298.324C31.6879 247.076 66.9368 204.29 116.901 195.246C153.099 188.695 197.694 229.582 197.8 265.316C202.803 266.497 192.577 273.741 210.601 276.239C239.792 280.28 258.932 281.629 288.868 279.001C314.176 276.78 302.976 264.925 323.326 247.635C331.54 240.656 360.828 242.75 369.363 245.683C392.072 253.481 388.072 249.142 384.894 262.827Z" fill="#545454"/>
<path fill-rule="evenodd" clip-rule="evenodd" d="M157.129 282.904C160.743 286.847 163.069 312.75 168.5 320.727C174.672 329.796 177.239 342.524 192.349 347.123C226.698 357.581 307.857 347.506 337.37 333.508C353.239 325.979 349.071 320.458 349.49 305.869C349.922 290.913 338.926 259.832 365.946 259.832C370.435 259.832 378.461 260.785 385.196 261.58C385.094 261.979 384.992 262.391 384.894 262.827C382.535 272.983 384.438 266.424 374.774 266.294C359.134 266.086 363.436 264.085 356.966 273.036C354.518 276.426 357.341 311.699 353.397 325.323C349.071 340.262 338.682 340.222 330.489 345.795C323.64 350.452 226.095 361.602 210.793 361.602C200.709 361.602 179.83 351.808 171.123 345.771C164.556 341.216 158.38 316.071 148.476 295.244C148.932 289.695 151.454 285.299 157.129 282.904ZM387.045 255.314C388.357 250.576 386.21 251.464 369.364 245.679C360.829 242.745 331.54 240.651 323.327 247.63C302.977 264.925 314.176 276.78 288.868 279.001C286.676 279.192 284.542 279.363 282.456 279.514C278.549 291.805 279.734 297.297 302.337 287.373C318.98 280.064 324.757 250.731 342.809 247.223C356.575 244.55 373.03 252.707 387.045 255.314Z" fill="#DDDD89"/>
<path fill-rule="evenodd" clip-rule="evenodd" d="M143.888 324.765C143.016 324.504 142.173 324.28 141.374 324.088C139.842 324.345 138.824 324.052 138.172 323.432C137.039 323.241 136.086 323.123 135.373 323.049C134.575 323.31 133.837 323.465 133.915 322.927C132.085 335.96 105.4 344.862 95.166 352.041C98.2012 354.864 101.204 357.598 104.092 360.152C117.899 353.801 144.674 332.061 143.888 324.765Z" fill="#DDDD89"/>
<path fill-rule="evenodd" clip-rule="evenodd" d="M206.474 275.477C206.144 276.43 205.793 277.424 205.423 278.467C204.893 279.946 204.335 281.478 203.756 283.042C199.556 281.136 195.898 277.754 186.503 269.414C181.744 265.19 180.852 254.446 179.369 250.144C170.284 223.756 156.986 209.807 127.583 209.807C50.2412 209.807 51.0071 284.892 53.1134 285.324C52.3964 276.23 102.903 262.427 112.139 262.427C127.192 262.427 130.945 259.584 130.945 270.816V270.82C128.553 268.628 126.361 267.398 124.964 267.496C127.058 268.286 129.05 269.414 130.94 270.824C130.924 273.358 115.834 273.065 112.587 272.914C99.0853 272.283 52.2212 294.771 47.9964 306.134C46.2608 304.297 45.2586 302.431 44.2523 298.324C31.6879 247.076 66.9368 204.29 116.901 195.246C153.099 188.695 197.694 229.582 197.8 265.316C202.359 266.391 194.264 272.515 206.474 275.477Z" fill="#DDDD89"/>
<path fill-rule="evenodd" clip-rule="evenodd" d="M310.689 260.35C310.411 263.389 204.783 265.829 205.72 259.445L208.596 239.93C213.677 209.978 208.507 171.066 224.628 135.52C227.863 130.912 232.78 127.722 238.329 126.781C254.45 124.055 275.546 130.411 286.383 139.162C304.859 154.085 312.497 235.73 310.689 260.35Z" fill="#3B3B3B"/>
<path fill-rule="evenodd" clip-rule="evenodd" d="M191.701 241.083C184.295 248.095 175.548 256.112 170.219 263.352C164.78 270.734 162.49 291.797 148.463 295.207C141.997 299.481 145.68 288.069 144.772 288.933C133.401 299.721 140.58 280.239 139.867 281.205C132.705 290.893 131.747 279.432 133.479 276.039C138.359 266.497 132.24 279.432 127.685 276.336C116.526 271.402 138.816 252.307 144.605 244.607C147.371 242.289 162.449 224.045 166.307 218.545C167.819 216.39 169.616 214.439 171.722 212.866C181.031 205.912 191.612 207.802 196.733 212.214C202.718 217.36 201.85 232.511 191.701 241.083Z" fill="#FFB363"/>
<path fill-rule="evenodd" clip-rule="evenodd" d="M279.99 158.139C278.849 159.386 276.788 162.511 275.166 166.055C267.047 183.826 224.917 230.821 208.592 239.93L208.453 240.061L199.332 248.429C199.205 248.543 167.741 217.584 165.301 215.327C169.68 217.641 210.617 155.471 224.623 135.52C227.858 130.912 232.776 127.722 238.329 126.781C252.763 124.341 271.19 129.181 282.663 136.506C289.108 141.195 283.363 153.364 279.99 158.139Z" fill="#3B3B3B"/>
<path fill-rule="evenodd" clip-rule="evenodd" d="M208.597 239.935C224.921 230.825 267.047 183.826 275.171 166.059C278.972 157.74 285.23 151.735 276.202 166.874C264.811 185.978 266.53 191.551 248.612 209.147C246.494 211.225 207.55 253.713 207.708 247.521C207.802 243.797 207.876 240.338 208.597 239.935Z" fill="#2E2E2E"/>
<path fill-rule="evenodd" clip-rule="evenodd" d="M302.423 260.745C294.987 271.867 301.978 290.025 282.895 305.356C255.595 327.287 245.952 344.06 236.113 373.507C236.003 373.829 235.885 374.192 235.758 374.579C235.172 376.351 234.581 378.168 233.99 380.034C233.99 380.038 233.986 380.042 233.982 380.046C233.322 381.647 231.705 382.666 229.949 382.552C228.788 382.474 227.639 382.389 226.494 382.299C224.604 382.148 222.742 381.981 220.904 381.798C219.356 381.647 217.824 381.484 216.313 381.313C215.93 381.268 215.551 381.228 215.176 381.183C214.223 381.073 213.278 380.959 212.345 380.845C212.202 380.828 212.064 380.808 211.925 380.792C210.911 380.665 209.904 380.539 208.906 380.409C207.248 380.193 205.618 379.973 204.017 379.749C202.388 379.525 200.787 379.297 199.214 379.072C198.721 378.999 198.232 378.93 197.743 378.856C194.684 378.416 191.73 377.989 188.898 377.602C188.426 377.537 187.957 377.471 187.493 377.41C187.024 377.345 186.564 377.284 186.108 377.227C185.651 377.166 185.195 377.109 184.743 377.052C184.291 376.995 183.843 376.938 183.398 376.885C182.527 376.779 181.671 376.677 180.824 376.587C180.376 376.538 179.931 376.489 179.491 376.445C178.705 376.363 177.992 376.066 177.414 375.614C177.271 375.499 177.133 375.377 177.006 375.247C176.961 375.202 176.921 375.157 176.88 375.112C176.758 374.974 176.644 374.831 176.542 374.681C176.473 374.579 176.411 374.473 176.35 374.367C176.322 374.314 176.293 374.257 176.265 374.204C175.963 373.597 175.808 372.908 175.845 372.187C175.849 372.171 175.849 372.155 175.849 372.134C175.849 372.077 175.853 372.02 175.861 371.963C175.882 371.78 175.902 371.592 175.927 371.405C175.976 370.941 176.033 370.472 176.094 369.999C176.208 369.087 176.338 368.162 176.485 367.229C176.631 366.264 176.794 365.29 176.974 364.304C181.826 337.146 196.994 302.06 205.427 278.463C208.495 269.887 209.99 264.269 211.518 260.472C216.138 245.879 226.331 224.795 256.288 225.631C286.244 226.462 307.78 243.434 302.423 260.745Z" fill="#3B3B3B"/>
<path fill-rule="evenodd" clip-rule="evenodd" d="M236.215 373.197C236.182 373.295 236.145 373.401 236.113 373.507C236.003 373.829 235.885 374.192 235.758 374.579C235.249 376.131 234.618 378.103 234.104 379.72C234.072 379.826 234.031 379.932 233.99 380.034C233.99 380.038 233.986 380.042 233.982 380.046C233.322 381.647 231.705 382.666 229.949 382.552C228.788 382.474 227.635 382.389 226.494 382.299C224.604 382.148 222.742 381.981 220.904 381.798C219.356 381.643 217.824 381.48 216.313 381.313C215.93 381.268 215.551 381.227 215.176 381.183C214.223 381.073 213.278 380.959 212.345 380.845C212.202 380.828 212.064 380.808 211.925 380.792C210.911 380.665 209.904 380.539 208.906 380.409C207.252 380.193 205.618 379.969 204.017 379.749C202.388 379.525 200.787 379.296 199.214 379.072C198.721 378.999 198.232 378.93 197.743 378.856C194.684 378.416 191.73 377.989 188.899 377.602C188.426 377.536 187.957 377.471 187.493 377.41C187.029 377.349 186.568 377.288 186.108 377.227C185.651 377.166 185.195 377.109 184.743 377.052C184.291 376.994 183.843 376.937 183.399 376.885C182.527 376.779 181.671 376.677 180.824 376.587C180.376 376.538 179.931 376.489 179.491 376.444C178.705 376.363 177.992 376.066 177.414 375.613C177.271 375.499 177.133 375.377 177.006 375.247C176.961 375.202 176.921 375.157 176.88 375.112C176.758 374.974 176.644 374.831 176.542 374.68C176.473 374.579 176.411 374.473 176.35 374.367C176.322 374.314 176.293 374.257 176.265 374.204C175.963 373.597 175.813 372.908 175.845 372.187C175.849 372.171 175.849 372.154 175.849 372.134C175.853 372.073 175.857 372.012 175.866 371.951C175.886 371.772 175.906 371.588 175.927 371.405C175.976 370.94 176.033 370.472 176.094 369.999C176.208 369.087 176.338 368.162 176.485 367.229C176.631 366.263 176.799 365.29 176.974 364.304C191.75 366.206 227.667 370.924 235.433 373.047C235.669 373.112 235.934 373.161 236.215 373.197Z" fill="#D84343"/>
<path fill-rule="evenodd" clip-rule="evenodd" d="M222.607 58.3407C230.906 58.8133 231.623 60.3126 237.571 58.6789C249.826 55.3137 271.598 72.2944 260.011 79.64C258.488 80.6055 231.183 79.42 229.264 78.6907C223.797 76.6089 217.763 82.83 211.554 78.8252C203.895 75.187 215.848 57.9537 222.607 58.3407Z" fill="#3B3B3B"/>
<path fill-rule="evenodd" clip-rule="evenodd" d="M221.34 78.1813C221.601 77.391 221.487 78.7802 221.633 79.4565C222.004 81.1799 225.764 92.2125 228.042 87.4906C229.06 85.3762 229.614 83.1313 230.661 81.2002C230.669 81.1839 232.544 78.5806 232.678 78.4991C232.837 78.4054 232.083 78.3402 231.708 78.2058C229.627 77.4562 224.53 76.1565 222.493 77.5254C222.354 77.6191 221.36 78.1243 221.34 78.1813Z" fill="#D84343"/>
<path fill-rule="evenodd" clip-rule="evenodd" d="M223.503 78.6703C223.65 78.2263 223.584 79.0085 223.666 79.3874C223.874 80.357 225.988 86.5577 227.267 83.9014C227.838 82.7118 228.151 81.4529 228.738 80.3651C228.742 80.357 229.793 78.8944 229.871 78.8496C229.96 78.7966 229.537 78.76 229.325 78.6826C228.156 78.2629 225.291 77.5296 224.147 78.2996C224.069 78.3526 223.511 78.6377 223.503 78.6703Z" fill="#3B3B3B"/>
<path fill-rule="evenodd" clip-rule="evenodd" d="M209.537 76.8492C212.087 78.7232 217.628 77.4521 220.973 74.474C223.083 72.5958 223.967 72.7425 226.762 69.8581C229.81 66.7129 233.37 65.3114 236.992 60.3736C237.518 59.6607 238.068 59.0129 238.61 58.4466C239.6 58.2714 240.643 58.2103 241.714 58.2592C241.237 59.0007 240.533 59.9377 239.555 61.0947C236.923 64.2073 230.042 73.8344 226.656 76.0629C225.365 76.9144 239.95 77.2525 241.718 77.5866C244.22 78.0592 256.108 77.4684 262.463 77.2851C261.93 78.1407 261.127 78.9351 260.015 79.6399C258.491 80.6055 231.187 79.4199 229.268 78.6907C223.8 76.6088 217.767 82.8299 211.558 78.8251C210.584 78.3647 209.928 77.6844 209.537 76.8492Z" fill="#D84343"/>
<path fill-rule="evenodd" clip-rule="evenodd" d="M169.249 419.801C169.257 420.705 169.636 421.671 170.516 422.579C169.616 422.404 168.728 422.237 167.86 422.082C168.194 421.752 168.353 421.304 168.239 420.713C168.467 420.526 168.699 420.322 168.931 420.098C169.033 419.996 169.139 419.898 169.249 419.801ZM148.533 418.44C148.545 418.505 148.557 418.57 148.573 418.635C148.59 418.705 148.614 418.77 148.647 418.835C148.382 418.684 148.125 418.529 147.885 418.362C148.093 418.399 148.308 418.428 148.533 418.44ZM150.329 419.621C151.67 419.678 153.454 419.063 154.517 417.605C155.238 416.615 156.286 415.384 157.483 414.513C158.302 414.121 159.235 413.791 160.36 413.588C160.641 413.535 160.848 413.498 160.987 413.474C161.35 413.588 159.981 413.726 159.04 414.476C157.821 415.441 156.697 416.118 155.894 417.552C154.99 419.169 154.652 420.314 154.957 420.856V420.884C153.503 420.624 151.837 420.216 150.329 419.621ZM167.045 414.965C165.134 415.718 162.429 417.03 161.843 417.902C160.901 419.299 159.565 420.485 158.314 421.206C158.392 421.202 158.457 421.198 158.514 421.19C159.088 421.116 159.83 421.108 160.706 421.153C160.893 417.246 167.298 414.924 167.098 414.953L167.045 414.965Z" fill="#FFB363"/>
<path fill-rule="evenodd" clip-rule="evenodd" d="M147.885 418.362C148.093 418.399 148.308 418.428 148.533 418.44C148.545 418.505 148.557 418.57 148.573 418.635C148.59 418.705 148.614 418.77 148.647 418.835C148.382 418.688 148.125 418.529 147.885 418.362ZM157.479 414.513C158.298 414.121 159.231 413.791 160.356 413.588C160.637 413.535 160.844 413.498 160.983 413.474C161.346 413.588 159.977 413.726 159.036 414.476C157.817 415.441 156.693 416.118 155.89 417.552C154.986 419.169 154.648 420.314 154.953 420.856V420.884C153.503 420.632 151.837 420.22 150.329 419.629C151.67 419.686 153.454 419.071 154.517 417.613C155.234 416.615 156.286 415.384 157.479 414.513ZM169.249 419.801C169.257 420.705 169.636 421.671 170.516 422.579C169.616 422.404 168.728 422.237 167.86 422.082C168.194 421.752 168.353 421.304 168.239 420.713C168.467 420.526 168.699 420.322 168.931 420.098C169.033 419.996 169.139 419.898 169.249 419.801ZM167.045 414.965C165.134 415.718 162.429 417.03 161.843 417.902C160.901 419.299 159.565 420.485 158.314 421.206C158.392 421.202 158.457 421.198 158.514 421.19C159.088 421.116 159.834 421.108 160.706 421.153C160.893 417.246 167.298 414.924 167.098 414.953L167.045 414.965Z" fill="#00FF00"/>
<path fill-rule="evenodd" clip-rule="evenodd" d="M169.249 419.801C169.257 420.705 169.636 421.671 170.516 422.579C169.616 422.404 168.728 422.237 167.86 422.082C168.194 421.752 168.353 421.304 168.239 420.713C168.467 420.526 168.699 420.322 168.931 420.098C169.033 419.996 169.139 419.898 169.249 419.801ZM148.533 418.44C148.545 418.505 148.557 418.57 148.573 418.635C148.59 418.705 148.614 418.77 148.647 418.835C148.382 418.684 148.125 418.529 147.885 418.362C148.093 418.399 148.308 418.428 148.533 418.44ZM150.329 419.621C151.67 419.678 153.454 419.063 154.517 417.605C155.238 416.615 156.286 415.384 157.483 414.513C158.302 414.121 159.235 413.791 160.36 413.588C160.641 413.535 160.848 413.498 160.987 413.474C161.35 413.588 159.981 413.726 159.04 414.476C157.821 415.441 156.697 416.118 155.894 417.552C154.99 419.169 154.652 420.314 154.957 420.856V420.884C153.503 420.624 151.837 420.216 150.329 419.621ZM167.045 414.965C165.134 415.718 162.429 417.03 161.843 417.902C160.901 419.299 159.565 420.485 158.314 421.206C158.392 421.202 158.457 421.198 158.514 421.19C159.088 421.116 159.83 421.108 160.706 421.153C160.893 417.246 167.298 414.924 167.098 414.953L167.045 414.965Z" fill="#DA9751"/>
<path fill-rule="evenodd" clip-rule="evenodd" d="M169.249 419.801C169.257 420.705 169.636 421.671 170.516 422.579C169.616 422.404 168.728 422.237 167.86 422.082C168.194 421.752 168.353 421.304 168.239 420.713C168.467 420.526 168.699 420.322 168.931 420.098C169.033 419.996 169.139 419.898 169.249 419.801ZM148.533 418.44C148.545 418.505 148.557 418.57 148.573 418.635C148.59 418.705 148.614 418.77 148.647 418.835C148.382 418.684 148.125 418.529 147.885 418.362C148.093 418.399 148.308 418.428 148.533 418.44ZM150.329 419.621C151.67 419.678 153.454 419.063 154.517 417.605C155.238 416.615 156.286 415.384 157.483 414.513C158.302 414.121 159.235 413.791 160.36 413.588C160.641 413.535 160.848 413.498 160.987 413.474C161.35 413.588 159.981 413.726 159.04 414.476C157.821 415.441 156.697 416.118 155.894 417.552C154.99 419.169 154.652 420.314 154.957 420.856V420.884C153.503 420.624 151.837 420.216 150.329 419.621ZM167.045 414.965C165.134 415.718 162.429 417.03 161.843 417.902C160.901 419.299 159.565 420.485 158.314 421.206C158.392 421.202 158.457 421.198 158.514 421.19C159.088 421.116 159.834 421.108 160.706 421.153C160.893 417.246 167.298 414.924 167.098 414.953L167.045 414.965Z" fill="#DA9751"/>
<path fill-rule="evenodd" clip-rule="evenodd" d="M54.7268 263.698C54.6087 263.898 34.0591 274.393 30.698 277.008C22.7454 283.193 -2.94574 305.519 24.9128 295.048C28.172 293.822 53.1217 285.564 53.6309 284.492C56.4706 278.528 73.3454 260.113 53.5209 264.151C53.5046 264.155 52.3313 264.114 52.2131 264.114L54.7268 263.698Z" fill="#545454"/>
<path fill-rule="evenodd" clip-rule="evenodd" d="M101 306.146C103.929 308.721 105.6 311.609 104.728 312.604C103.856 313.594 100.776 312.314 97.8467 309.739C94.9174 307.165 93.247 304.276 94.1189 303.282C94.9907 302.292 98.0707 303.575 101 306.146Z" fill="white"/>
<path fill-rule="evenodd" clip-rule="evenodd" d="M422.543 307.625C423.227 307.959 423.129 308.962 422.392 309.149C411.661 311.879 393.071 313.194 384.169 290.217C379.704 278.683 381.411 294.234 385.587 303.339C385.917 304.06 385.106 304.777 384.421 304.374C365.257 292.959 382.384 271.777 374.159 259.482C371.653 255.73 374.754 254.206 375.206 252.303C379.374 234.728 418.428 231.416 407.33 273.717C403.06 289.964 414.203 303.559 422.543 307.625Z" fill="#BC5353"/>
<path fill-rule="evenodd" clip-rule="evenodd" d="M263.646 370.806C270.82 371.185 307.633 356.534 322.703 355.451C323.62 357.076 324.549 358.637 325.49 360.128C326.838 362.263 325.958 365.094 323.632 366.076C315.688 369.421 308.933 371.592 299.391 374.737C290.864 377.548 282.5 379.508 274.348 380.82C272.951 381.044 271.541 380.539 270.612 379.475C268.233 376.742 265.907 373.841 263.646 370.806Z" fill="#D84343"/>
<path fill-rule="evenodd" clip-rule="evenodd" d="M170.927 210.845C171.196 211.033 171.461 211.2 171.726 211.347C173.119 212.112 205.325 240.171 206.718 241.658C206.718 241.658 201.825 248.164 199.336 248.429C187.484 249.688 157.185 224.066 165.146 215.197C166.193 214.027 167.888 214.28 170.927 210.845Z" fill="#D84343"/>
<path fill-rule="evenodd" clip-rule="evenodd" d="M175.149 121.68C167.664 120.413 176.888 125.021 160.584 129.625C147.494 133.324 143.509 120.768 140.254 126.59C138.107 130.435 131.654 131.91 124.182 131.951C121.957 138.384 115.834 140.16 109.259 140.16C99.8067 140.16 89.4178 136.49 88.33 137.695C78.9759 148.06 53.2889 143.236 54.3685 131.043C54.5722 128.761 39.7956 139.077 28.6326 132.387C14.1167 123.689 30.2093 128.891 8.47815 135.027C4.79926 136.066 2.11037 135.304 0 134.114V52.0218C3.16963 51.3129 6.88519 53.0362 9.74926 57.5503C8.15222 44.9247 23.6052 53.5699 22.1548 49.4999C17.9381 37.6647 53.57 19.0014 59.5793 42.3581C59.9093 42.3703 74.7022 32.3929 76.5478 55.941C76.8167 59.3184 82.1782 50.9992 87.4582 60.6792C89.0389 63.5758 90.0533 65.7881 90.6726 67.4503C92.1474 65.4173 96.2133 63.527 105.865 63.9996C132.823 65.3196 117.671 84.0114 131.572 75.1055C133.251 74.0299 150.553 74.2499 152.709 83.3799C153.181 85.3925 165.949 77.4155 170.41 93.2229C172.586 100.927 166.361 92.9621 186.165 93.9318C203.708 94.7914 205.733 126.85 175.149 121.68Z" fill="#FDFDFD"/>
</g>
<defs>
<linearGradient id="paint0_linear" x1="374.455" y1="116.62" x2="399.894" y2="22.0378" gradientUnits="userSpaceOnUse">
<stop stop-color="#8CAB3F"/>
<stop offset="1" stop-color="#CBDB2A"/>
</linearGradient>
<linearGradient id="paint1_linear" x1="423.323" y1="123.198" x2="390.126" y2="-21.0223" gradientUnits="userSpaceOnUse">
<stop stop-color="#88C540"/>
<stop offset="1" stop-color="#CBDB2A"/>
</linearGradient>
<linearGradient id="paint2_linear" x1="374.788" y1="160.431" x2="326.535" y2="-49.1952" gradientUnits="userSpaceOnUse">
<stop stop-color="#88C540"/>
<stop offset="1" stop-color="#CBDB2A"/>
</linearGradient>
<linearGradient id="paint3_linear" x1="443.371" y1="127.903" x2="435.979" y2="95.7896" gradientUnits="userSpaceOnUse">
<stop stop-color="#88C540"/>
<stop offset="1" stop-color="#CBDB2A"/>
</linearGradient>
<linearGradient id="paint4_linear" x1="49.269" y1="321.314" x2="33.3861" y2="262.262" gradientUnits="userSpaceOnUse">
<stop stop-color="#8CAB3F"/>
<stop offset="1" stop-color="#CBDB2A"/>
</linearGradient>
<linearGradient id="paint5_linear" x1="9.08286" y1="326.231" x2="38.8094" y2="197.089" gradientUnits="userSpaceOnUse">
<stop stop-color="#88C540"/>
<stop offset="1" stop-color="#CBDB2A"/>
</linearGradient>
<linearGradient id="paint6_linear" x1="49.0617" y1="348.666" x2="79.1883" y2="217.787" gradientUnits="userSpaceOnUse">
<stop stop-color="#88C540"/>
<stop offset="1" stop-color="#CBDB2A"/>
</linearGradient>
<linearGradient id="paint7_linear" x1="-3.11296" y1="343.418" x2="8.77826" y2="291.759" gradientUnits="userSpaceOnUse">
<stop stop-color="#88C540"/>
<stop offset="1" stop-color="#CBDB2A"/>
</linearGradient>
<linearGradient id="paint8_linear" x1="227.432" y1="90.1969" x2="227.432" y2="100.964" gradientUnits="userSpaceOnUse">
<stop stop-color="#FFB66D"/>
<stop offset="0.3336" stop-color="#FEB36C"/>
<stop offset="0.5528" stop-color="#FCAA69"/>
<stop offset="0.7392" stop-color="#F79C63"/>
<stop offset="0.9062" stop-color="#F1875C"/>
<stop offset="1" stop-color="#ED7756"/>
</linearGradient>
<clipPath id="clip0">
<rect width="440" height="440" fill="white"/>
</clipPath>
</defs>
</svg>
