<svg width="440" height="440" viewBox="0 0 440 440" fill="none" xmlns="http://www.w3.org/2000/svg">
<g clip-path="url(#clip0)">
<path d="M440 0H0V440H440V0Z" fill="#D3EBFA"/>
<path fill-rule="evenodd" clip-rule="evenodd" d="M186.291 239.49C177.76 238.476 188.438 243.169 170.268 249.28C155.674 254.186 150.472 240.211 147.119 246.978C141.594 258.121 104.928 254.059 95.757 248.441C95.3415 248.184 27.5 244.391 16.6956 242.155C13.2326 241.438 7.21518 241.499 0 241.784V167.901C4.44889 166.96 10.4744 169.094 9.35407 166.377C3.93148 153.234 43.173 130.167 51.26 156.229C51.6348 156.229 67.8007 144.128 71.1944 170.647C71.6833 174.452 77.2852 164.747 83.7874 175.397C85.7348 178.583 87.0059 181.036 87.8004 182.877C89.3485 180.494 93.8381 178.131 104.777 178.131C135.324 178.131 119.232 200.098 134.453 189.261C136.29 187.949 155.858 187.244 158.799 197.442C159.447 199.691 173.437 189.97 179.357 207.586C182.241 216.179 174.761 207.517 197.206 207.517C217.079 207.517 221.145 243.642 186.291 239.49Z" fill="white"/>
<g opacity="0.62">
<path opacity="0.62" fill-rule="evenodd" clip-rule="evenodd" d="M321.489 372.713C221.923 375.247 163.847 374.468 58.5078 380.03C35.803 381.227 16.3656 381.089 0 379.704V274.234C63.4333 259.58 184.262 250.274 328.297 338.136C361 358.083 461.47 369.152 321.489 372.713Z" fill="#6DBB52"/>
</g>
<path fill-rule="evenodd" clip-rule="evenodd" d="M440 361.623V440H0V366.035C7.33741 365.754 15.1107 365.461 23.2589 365.155C87.2341 362.76 174.46 359.773 258.105 358.775C325.836 357.964 391.217 358.457 440 361.623Z" fill="#6BAF43"/>
<path fill-rule="evenodd" clip-rule="evenodd" d="M440 173.181V241.674C439.955 241.597 439.91 241.523 439.861 241.45C439.698 241.177 439.531 240.904 439.368 240.635C394.17 166.87 359.142 207.399 307.482 217.397C299.444 175.845 384.69 213.946 325.787 170.793C282.618 139.166 256.707 143.224 240.329 135.752C237.086 134.273 233.342 133.353 229.244 132.864C211.652 148.618 190.328 176.644 193.425 200.787C184.914 201.878 189.082 188.837 190.092 175.091C192.06 148.337 147.852 195.588 146.972 177.617C139.855 176.566 198.855 162.938 208.328 139.855C209.012 138.193 210.837 135.324 213.045 132.827C182.233 135.532 143.676 151.168 136.098 149.808C75.3375 138.893 114.938 144.047 144.898 135.353L144.678 135.271L143.969 135.328C129.205 111.56 117.997 113.862 97.142 104.447C78.1323 95.8629 120.006 107.698 120.193 107.727C128.341 108.912 138.192 68.9211 136.445 78.7803C133.108 97.6107 126.646 113.54 140.111 123.945C146.21 128.659 149.486 131.703 150.985 133.625C189.823 123.094 241.548 118.588 208.641 87.2625C189.363 68.9088 194.912 34.1733 206.804 58.5444C238.423 123.322 387.326 175.262 440 173.181Z" fill="#A67023"/>
<path fill-rule="evenodd" clip-rule="evenodd" d="M121.326 147.09C121.583 146.789 121.856 146.479 122.133 146.161L122.072 147.233C121.823 147.184 121.575 147.139 121.326 147.09Z" fill="#8B5E26"/>
<path fill-rule="evenodd" clip-rule="evenodd" d="M357.566 189.538C357.166 194.741 349.931 195.148 340.609 195.001C338.393 194.969 336.055 194.904 333.663 194.863C336.596 194.623 339.302 194.427 341.477 194.06H341.481C349.845 192.659 350.363 188.797 325.788 170.793C282.619 139.166 256.708 143.224 240.33 135.752C237.087 134.273 233.343 133.353 229.245 132.864C214.712 145.88 197.63 167.273 193.878 187.933C193.454 187.876 193.03 187.823 192.606 187.77C191.303 187.607 190.003 187.46 188.708 187.334C189.156 183.594 189.779 179.373 190.093 175.091C190.195 173.723 190.174 172.545 190.044 171.547C187.648 153.002 147.808 194.667 146.973 177.617C142.719 176.99 162.067 171.873 180.352 162.934H180.356C180.36 162.934 180.36 162.93 180.364 162.93C192.684 156.905 204.519 149.144 208.328 139.855C209.013 138.193 210.838 135.324 213.046 132.827C205.395 133.499 197.271 134.966 189.262 136.775H189.258C164.996 142.25 141.795 150.83 136.099 149.808C132.139 149.095 128.607 148.451 125.47 147.873C132.722 145.937 149.588 138.331 162.356 133.426C162.36 133.426 162.365 133.426 162.369 133.422C171.401 129.955 178.38 127.84 178.445 130.044C178.473 130.802 177.675 132.073 175.862 133.98C175.895 134.249 222.983 120.992 243.011 126.174C278.643 135.402 279.286 141.15 267.59 129.156C260.012 121.383 354.665 180.758 360.185 180.53C374.163 179.952 361.778 187.978 357.566 189.538Z" fill="#8B5E26"/>
<path fill-rule="evenodd" clip-rule="evenodd" d="M440.001 217.205V241.674C439.748 241.25 439.492 240.835 439.239 240.419C419.573 208.409 401.831 198.024 383.799 197.328C402.499 185.924 421.765 202.135 440.001 217.205Z" fill="#8B5E26"/>
<path fill-rule="evenodd" clip-rule="evenodd" d="M240.769 110.326C232.898 109.104 225.43 106.398 218.924 102.569C218.158 98.2992 214.96 93.2759 208.641 87.2626C200.517 79.5259 196.802 68.8885 196.113 60.9848C196.488 58.7033 197.095 56.3933 197.951 54.067C198.33 53.0363 216.732 91.2307 230.8 103.082C229.875 103.832 267.927 114.538 240.769 110.326Z" fill="#8B5E26"/>
<path fill-rule="evenodd" clip-rule="evenodd" d="M178.445 130.044C173.128 131.263 167.689 132.387 162.368 133.422C162.364 133.426 162.36 133.426 162.356 133.426C145.546 136.714 129.91 139.166 122.992 141.105C120.14 141.904 112.123 143.012 105.258 143.403C98.943 140.759 124.219 141.354 144.899 135.353L144.679 135.271L143.97 135.328C136.482 123.273 129.906 117.924 122.524 114.351C128.782 105.987 130.88 101.241 133.422 93.8177C131.055 106.077 130.407 116.445 140.112 123.945C146.21 128.659 149.486 131.703 150.985 133.625C182.022 125.208 221.288 120.641 219.018 103.16C228.91 115.39 205.219 123.913 178.445 130.044Z" fill="#D9973C"/>
<path fill-rule="evenodd" clip-rule="evenodd" d="M332.51 154.929C296.157 133.715 228.128 108.146 210.674 69.2511C205.916 58.6462 201.87 52.8081 198.644 50.3514C200.571 49.4755 203.435 51.6348 206.804 58.5444C228.022 102.011 302.044 139.696 364.369 159.158C359.158 164.735 349.478 164.829 332.51 154.929Z" fill="#D9973C"/>
<path fill-rule="evenodd" clip-rule="evenodd" d="M341.477 194.06C341.245 194.382 340.951 194.696 340.609 195.001C335.732 199.406 320.927 202.518 319.514 203.663C314.23 207.929 310.168 211.811 307.153 215.347C304.896 197.58 321.265 195.865 333.626 194.863H333.663C336.596 194.623 339.301 194.427 341.477 194.06Z" fill="#D9973C"/>
<path fill-rule="evenodd" clip-rule="evenodd" d="M439.238 240.419C439.495 240.175 439.748 239.926 440 239.678V241.674C439.955 241.597 439.91 241.523 439.862 241.45C439.699 241.177 439.536 240.904 439.369 240.635C439.328 240.562 439.283 240.492 439.238 240.419Z" fill="#D9973C"/>
<path fill-rule="evenodd" clip-rule="evenodd" d="M190.043 171.547C192.525 174.798 193.054 181.048 192.606 187.77C192.321 192.064 191.636 196.55 190.813 200.567C187.648 199.316 187.896 194.105 188.707 187.334C189.155 183.594 189.779 179.373 190.092 175.091C190.194 173.723 190.174 172.545 190.043 171.547Z" fill="#A67023"/>
<path fill-rule="evenodd" clip-rule="evenodd" d="M180.363 162.93C192.683 156.905 204.518 149.144 208.328 139.855C209.012 138.193 210.837 135.324 213.045 132.827C228.674 144.935 199.287 158.437 180.363 162.93Z" fill="#A67023"/>
<path fill-rule="evenodd" clip-rule="evenodd" d="M215.384 133.32L213.045 132.827C205.394 133.499 197.27 134.966 189.261 136.775C201.239 130.293 211.831 126.072 215.384 133.32Z" fill="#A67023"/>
<path fill-rule="evenodd" clip-rule="evenodd" d="M132.738 86.2726C132.758 86.2603 104.937 108.912 97.6399 63.9711C95.3218 49.6914 76.0718 41.8448 113.57 52.527C130.705 57.4077 140.422 69.5892 132.864 85.6696L132.738 86.2726Z" fill="#71A641"/>
<g opacity="0.21">
<path opacity="0.21" fill-rule="evenodd" clip-rule="evenodd" d="M132.865 85.6696L132.738 86.2726C132.738 86.2766 129.381 89.0103 124.692 90.6889C116.01 83.5674 109.928 64.4437 119.925 54.8248C119.929 54.8248 119.929 54.8248 119.929 54.8248C132.967 60.6792 139.428 71.7078 132.865 85.6696Z" fill="#547F36"/>
</g>
<path fill-rule="evenodd" clip-rule="evenodd" d="M131.075 87.4662C130.851 87.4092 68.7951 26.4651 116.759 68.1103C119.652 70.62 130.79 87.3929 131.075 87.4662Z" fill="#547F36"/>
<path fill-rule="evenodd" clip-rule="evenodd" d="M132.743 90.3751C132.763 90.3874 98.6182 79.3751 132.347 48.7911C143.062 39.0744 139.167 18.6511 150.62 55.9248C155.855 72.9585 150.921 87.7392 133.317 90.1511L132.743 90.3751Z" fill="#71A641"/>
<path fill-rule="evenodd" clip-rule="evenodd" d="M130.836 89.6296C130.762 89.4136 148.114 4.17995 139.281 67.0836C138.752 70.8766 130.742 89.3525 130.836 89.6296Z" fill="#547F36"/>
<path fill-rule="evenodd" clip-rule="evenodd" d="M92.3066 101.094C92.3188 101.074 78.414 134.147 50.8406 97.9122C42.0814 86.3989 21.4014 88.5255 59.5184 80.3204C76.9351 76.5681 91.2391 82.7526 92.1314 100.499L92.3066 101.094Z" fill="#71A641"/>
<g opacity="0.21">
<path opacity="0.21" fill-rule="evenodd" clip-rule="evenodd" d="M92.3064 101.098C92.3146 101.078 83.4168 122.247 65.7354 112.151C69.4916 101.884 79.6239 91.3692 91.125 94.16C91.6709 96.0829 92.0172 98.1933 92.1312 100.503L92.3064 101.098Z" fill="#4A7034"/>
</g>
<path fill-rule="evenodd" clip-rule="evenodd" d="M91.3982 102.931C91.1741 102.988 7.75335 78.3729 69.663 92.5792C73.3948 93.4348 91.113 103.001 91.3982 102.931Z" fill="#547F36"/>
<path fill-rule="evenodd" clip-rule="evenodd" d="M88.4157 99.9899C88.3994 99.9818 115.268 112.522 84.4597 134.131C74.6738 140.996 75.7657 158.143 70.2086 126.402C67.6705 111.898 73.2357 100.283 87.9186 100.116L88.4157 99.9899Z" fill="#71A641"/>
<path fill-rule="evenodd" clip-rule="evenodd" d="M89.9022 100.801C89.9388 100.984 66.9407 169.094 80.654 118.417C81.4851 115.361 89.9511 101.037 89.9022 100.801Z" fill="#547F36"/>
<path fill-rule="evenodd" clip-rule="evenodd" d="M100.174 103.062C100.186 103.062 81.6204 104.838 91.4226 83.2903C94.5352 76.4459 88.4689 67.4992 101.612 82.9318C107.621 89.984 108.306 98.0548 100.402 102.834L100.174 103.062Z" fill="#71A641"/>
<path fill-rule="evenodd" clip-rule="evenodd" d="M99.1107 103.098C99.0292 103.009 89.7606 58.7521 98.4995 90.5992C99.0251 92.514 99.0047 102.984 99.1107 103.098Z" fill="#547F36"/>
<path fill-rule="evenodd" clip-rule="evenodd" d="M204.116 79.4892C204.108 79.4729 222.184 98.4744 189.84 106.325C179.565 108.818 174.933 123.29 180.6 95.3618C183.191 82.5977 191.523 74.8285 203.668 79.4322L204.116 79.4892Z" fill="#71A641"/>
<g opacity="0.21">
<path opacity="0.21" fill-rule="evenodd" clip-rule="evenodd" d="M207.786 85.1032C203.089 91.8336 189.498 97.3458 181.92 90.5992C185.452 80.7725 193.12 75.4395 203.667 79.4321L204.115 79.4892C204.12 79.4892 206.299 81.7829 207.786 85.1032Z" fill="#547F36"/>
</g>
<path fill-rule="evenodd" clip-rule="evenodd" d="M205.081 80.634C205.053 80.797 164.133 129.458 191.779 92.1555C193.446 89.9066 205.044 80.8459 205.081 80.634Z" fill="#547F36"/>
<path fill-rule="evenodd" clip-rule="evenodd" d="M207.106 79.2529C207.114 79.2366 201.015 104.74 176.824 81.8807C169.136 74.6207 154.477 78.6092 180.991 68.1633C193.108 63.3885 204.161 66.1507 206.906 78.8455L207.106 79.2529Z" fill="#71A641"/>
<path fill-rule="evenodd" clip-rule="evenodd" d="M206.67 80.687C206.515 80.7521 143.424 72.9096 189.763 75.7981C192.557 75.9733 206.47 80.7725 206.67 80.687Z" fill="#547F36"/>
<path fill-rule="evenodd" clip-rule="evenodd" d="M191.852 202.555C191.84 202.559 209.513 191.673 210.296 218.004C210.548 226.368 220.994 232.328 200.294 223.361C190.834 219.263 186.181 211.542 191.734 202.893L191.852 202.555Z" fill="#71A641"/>
<g opacity="0.21">
<path opacity="0.21" fill-rule="evenodd" clip-rule="evenodd" d="M196.814 221.568C189.782 217.221 186.91 210.405 191.734 202.897L191.852 202.559C191.852 202.559 193.983 201.243 196.798 200.636C201.243 205.378 203.28 216.81 196.814 221.568Z" fill="#547F36"/>
</g>
<path fill-rule="evenodd" clip-rule="evenodd" d="M192.896 201.997C193.018 202.046 224.001 241.702 199.642 214.182C198.171 212.524 193.054 202.058 192.896 201.997Z" fill="#547F36"/>
<path fill-rule="evenodd" clip-rule="evenodd" d="M192.162 200.2C192.149 200.192 210.902 209.094 189.241 224.082C182.355 228.845 183.044 240.851 179.3 218.607C177.589 208.442 181.536 200.334 191.815 200.286L192.162 200.2Z" fill="#71A641"/>
<path fill-rule="evenodd" clip-rule="evenodd" d="M193.196 200.778C193.221 200.909 176.815 248.478 186.645 213.07C187.236 210.931 193.233 200.941 193.196 200.778Z" fill="#547F36"/>
<path fill-rule="evenodd" clip-rule="evenodd" d="M194.667 198.265C194.679 198.273 177.287 186.943 200.762 174.99C208.218 171.192 209.146 159.202 209.876 181.744C210.214 192.052 205.215 199.552 195.022 198.224L194.667 198.265Z" fill="#71A641"/>
<g opacity="0.21">
<path opacity="0.21" fill-rule="evenodd" clip-rule="evenodd" d="M209.733 185.66C208.808 193.877 203.875 199.381 195.026 198.228L194.667 198.265C194.663 198.265 192.569 196.9 190.821 194.614C193.209 188.573 202.669 181.846 209.733 185.66Z" fill="#547F36"/>
</g>
<path fill-rule="evenodd" clip-rule="evenodd" d="M193.718 197.556C193.71 197.425 216.337 152.476 201.858 186.254C200.986 188.291 193.706 197.389 193.718 197.556Z" fill="#547F36"/>
<path fill-rule="evenodd" clip-rule="evenodd" d="M192.41 198.99C192.41 199.002 192.451 178.245 215.254 191.433C222.497 195.625 233.061 189.876 214.545 202.758C206.083 208.646 197.071 208.54 192.634 199.263L192.41 198.99Z" fill="#71A641"/>
<path fill-rule="evenodd" clip-rule="evenodd" d="M192.487 197.809C192.589 197.731 242.615 192.251 206.396 198.485C204.212 198.86 192.622 197.707 192.487 197.809Z" fill="#547F36"/>
<path fill-rule="evenodd" clip-rule="evenodd" d="M148.248 177.817C148.24 177.805 162.548 192.842 136.951 199.059C128.815 201.035 125.152 212.487 129.638 190.381C131.687 180.278 138.283 174.13 147.894 177.772L148.248 177.817Z" fill="#71A641"/>
<g opacity="0.21">
<path opacity="0.21" fill-rule="evenodd" clip-rule="evenodd" d="M151.153 182.262C147.433 187.591 136.678 191.95 130.681 186.613C133.475 178.831 139.55 174.611 147.894 177.772L148.248 177.821C148.248 177.821 149.971 179.634 151.153 182.262Z" fill="#547F36"/>
</g>
<path fill-rule="evenodd" clip-rule="evenodd" d="M149.014 178.725C148.99 178.856 116.605 217.372 138.487 187.843C139.807 186.063 148.986 178.893 149.014 178.725Z" fill="#547F36"/>
<path fill-rule="evenodd" clip-rule="evenodd" d="M150.619 177.634C150.623 177.621 145.796 197.808 126.652 179.715C120.565 173.967 108.966 177.124 129.952 168.858C139.542 165.081 148.289 167.265 150.464 177.312L150.619 177.634Z" fill="#71A641"/>
<path fill-rule="evenodd" clip-rule="evenodd" d="M150.269 178.766C150.146 178.815 100.211 172.61 136.889 174.9C139.102 175.034 150.114 178.831 150.269 178.766Z" fill="#547F36"/>
<path fill-rule="evenodd" clip-rule="evenodd" d="M149.625 184.038C149.625 184.054 144.899 163.843 170.121 171.441C178.135 173.853 187.094 165.835 172.036 182.624C165.155 190.304 156.355 192.264 149.91 184.258L149.625 184.038Z" fill="#71A641"/>
<g opacity="0.21">
<path opacity="0.21" fill-rule="evenodd" clip-rule="evenodd" d="M169.225 185.35C162.878 190.646 155.508 191.217 149.906 184.262L149.625 184.042C149.625 184.046 149.051 181.606 149.368 178.742C155.272 176.024 166.761 177.711 169.225 185.35Z" fill="#547F36"/>
</g>
<path fill-rule="evenodd" clip-rule="evenodd" d="M149.426 182.869C149.511 182.767 196.942 165.945 163.123 180.331C161.082 181.202 149.536 182.742 149.426 182.869Z" fill="#547F36"/>
<path fill-rule="evenodd" clip-rule="evenodd" d="M147.49 182.999C147.478 183.007 161.863 168.039 169.217 193.339C171.556 201.377 183.159 204.527 160.873 201.031C150.688 199.434 144.251 193.123 147.462 183.358L147.49 182.999Z" fill="#71A641"/>
<path fill-rule="evenodd" clip-rule="evenodd" d="M148.366 182.201C148.497 182.217 188.418 212.85 157.948 192.304C156.107 191.07 148.533 182.221 148.366 182.201Z" fill="#547F36"/>
<path fill-rule="evenodd" clip-rule="evenodd" d="M265.801 91.1574C257.486 96.6818 274.821 100.837 244.355 97.623C237.156 96.8652 236.268 102.976 252.707 101.889C256.215 101.66 261.181 102.707 253.599 102.887C246.013 103.07 228.336 114.204 249.167 108.317C254.642 106.769 267.154 107.234 261.1 107.841C259.042 108.049 243.707 118.429 252.919 115.736C255.261 115.052 259.674 111.304 264.607 111.581C271.908 111.992 269.826 111.96 276.724 113.174C290.909 115.683 278.581 93.9441 265.801 91.1574Z" fill="#679A3B"/>
<path fill-rule="evenodd" clip-rule="evenodd" d="M300.716 45.9962C302.501 51.8466 316.34 50.547 319.616 48.5018C323.665 45.9759 334.877 48.6077 325.071 51.2273C324.293 51.4351 302.802 55.3136 311.056 59.2899C315.379 61.3677 325.173 59.1555 329.915 58.2022C335.611 57.0614 340.984 61.9259 324.88 63.9221C307.137 66.1221 318.345 75.3173 334.967 72.2496C346.138 70.1881 346.851 75.1218 334.906 77.6722C323.458 80.1166 332.62 89.9636 348.167 81.1351C355.219 77.1344 362.508 79.5177 350.257 86.3051C344.325 89.5888 350.599 92.074 357.13 90.6644C361.636 89.6907 371.992 84.8955 375.48 88.4277C379.407 92.3999 356.702 94.1436 366.586 97.407C367.062 97.5659 387.062 92.4162 385.298 97.517C384.752 99.0855 370.566 99.4725 381.012 103.103C382.63 103.665 400.323 101.416 397.488 106.798C397.027 107.665 379.358 109.067 389.702 112.864C390.167 113.035 404.695 115.031 401.162 118.115C400.674 118.543 389.951 118.221 403.505 123.151C404.112 123.371 414.802 126.724 412.582 128.765C412.044 129.262 400.319 126.83 406.874 131.474C409.653 133.438 417.381 136.327 417.218 139.904C416.75 140.083 402.914 133.923 408.532 139.455C410.435 141.33 413.955 143.012 412.134 145.501C407.335 144.903 406.267 140.898 410.484 148.773C412.509 152.554 407.041 147.844 409.286 153.857C409.404 154.175 403.831 156.465 404.3 153.006C405.42 144.666 393.935 123.571 388.068 118.951C381.917 114.115 382.528 114.363 376.074 110.615C373.443 109.087 375.003 108.713 370.334 106.704C361.44 102.878 353.272 95.7814 343.563 94.274C333.235 92.6688 309.154 81.1677 306.514 70.6933C306.065 68.921 299.571 54.2259 298.325 52.3803C297.485 51.1418 300.504 45.3036 300.716 45.9962Z" fill="url(#paint0_linear)"/>
<path fill-rule="evenodd" clip-rule="evenodd" d="M278.875 27.4063C295.342 23.7966 297.991 41.91 306.249 58.6707C307.785 61.7874 308.856 64.7655 309.52 67.6092V67.6011C324.896 85.3803 331.337 86.5211 352.375 93.5896C374.066 100.882 401.415 117.94 405.147 142.385C405.396 144.002 406.28 149.734 407.522 150.223C407.172 151.437 407.693 153.393 408.59 155.837L408.28 155.886C409.246 157.923 410.044 160.567 410.614 163.957C442.58 353.442 382.002 294.315 381.908 292.144C383.379 303.596 446.943 321.477 386.61 158.718C385.376 157.842 384.015 156.909 382.939 155.707C378.951 153.988 379.106 158.237 369.397 152.924C368.933 152.672 351.707 146.923 346.688 144.528C319.738 131.654 303.393 126.414 291.867 120.959C291.545 120.715 291.224 120.47 290.922 120.23C287.137 117.211 282.509 114.253 277.376 111.536C271.305 105.804 266.298 97.7451 259.963 84.0807C259.205 82.4429 250.247 74.4007 249.68 73.5818C249.639 73.3455 249.611 73.1255 249.591 72.9137C249.713 72.93 249.835 72.9422 249.957 72.9503L249.566 72.0907C249.595 70.7503 249.929 70.0822 249 69.3285C248.556 68.97 248.132 68.6114 247.733 68.257C244.934 62.6755 242.885 59.8807 241.365 58.08C229.954 44.5255 240.571 35.1633 241.418 33.5133L241.467 33.3259V33.3137C240.546 30.7226 246.437 27.4714 246.001 29.2233C247.105 28.8729 248.43 28.6407 249.998 28.5389C261.031 27.8218 257.649 9.65552 275.078 26.4529C275.465 26.8277 278.675 28.0622 279.164 27.8951L278.875 27.4063Z" fill="#71A641"/>
<path fill-rule="evenodd" clip-rule="evenodd" d="M301.673 88.6559C313.749 87.7555 320.593 108.582 321.481 112.913C322.129 116.083 331.003 136.396 332.864 137.993C335.178 139.977 327.254 138.563 324.655 136.058C319.249 130.843 321.225 120.022 317.77 113.463C316.324 110.717 316.258 107.556 313.166 103.404C308.774 97.5089 300.63 84.7611 295 98.0548C293.517 101.554 297.542 113.663 298.658 117.863C301.164 127.294 296.043 123.901 295.737 121.908C295.631 121.216 291.961 113.736 291.912 110.501C291.867 107.498 291.019 108.501 291.651 103.551C292.441 97.3581 292.572 92.897 299.233 89.7966C300.223 89.3363 300.879 88.7129 301.673 88.6559Z" fill="#547F36"/>
<path fill-rule="evenodd" clip-rule="evenodd" d="M384.972 130.114C384.992 130.244 360.869 118.995 342.715 132.448C338.979 135.214 334.575 141.558 341.77 143.31C352.293 145.88 344.072 143.473 356.4 142.051C361.224 141.493 378.355 139.716 382.071 141.183C383.782 141.859 393.026 138.942 385.562 130.99C385.126 130.525 385.102 130.362 384.495 129.926L384.972 130.114Z" fill="#547F36"/>
<path fill-rule="evenodd" clip-rule="evenodd" d="M417.324 211.212H417.312C411.115 210.947 407.192 212.94 404.874 215.783C406.124 220.668 407.204 225.28 408.125 229.635C413.079 223.166 410.435 223.324 418.342 221.434C418.049 218.154 417.711 214.748 417.324 211.212ZM419.61 239.69C416.037 238.737 412.814 239.258 410.198 240.546C410.818 244.261 411.307 247.757 411.677 251.044C414 250.038 416.762 249.134 419.903 249.264C419.862 246.237 419.764 243.051 419.61 239.69ZM409.257 293.733C408.125 293.716 406.96 293.504 405.79 293.187C402.543 297.285 398.547 298.956 394.754 299.163C396.489 300.63 399.015 301.734 401.598 302.524C405.672 302.223 409.701 300.003 412.94 294.36C411.669 293.961 410.382 293.745 409.257 293.733ZM410.618 163.969C410.508 163.309 410.386 162.682 410.26 162.079C408.87 161.504 407.216 160.946 405.248 160.417C401.737 159.476 395.173 159.757 393.927 162.099C392.92 161.973 390.92 164.914 389.616 166.976C390.977 170.757 392.26 174.431 393.474 178.004C394.615 175.034 396.62 172.064 400.396 169.799C404.083 167.591 407.982 166.837 411.107 166.894C410.948 165.925 410.785 164.951 410.618 163.969ZM413.274 180.526C411.025 181.418 408.74 182.665 406.226 183.781C402.828 185.293 400.009 188.943 398.298 192.769C399.683 197.21 400.954 201.475 402.115 205.57C402.78 204.396 403.346 202.644 403.912 200.925C405.615 195.751 409.6 190.781 414.586 189.485C414.175 186.572 413.739 183.586 413.274 180.526ZM412.561 266.33C412.541 270.217 412.293 273.676 411.861 276.756C413.865 276.507 416.024 276.609 418.273 277.339C418.807 274.043 419.227 270.347 419.508 266.22C417.352 265.74 414.937 265.837 412.561 266.33Z" fill="#E37434"/>
<path fill-rule="evenodd" clip-rule="evenodd" d="M288.673 39.1681C287.194 51.4392 269.105 45.5155 274.784 37.6444C277.054 34.5074 290.066 27.5692 288.673 39.1681Z" fill="white"/>
<path fill-rule="evenodd" clip-rule="evenodd" d="M283.564 30.4333C280.704 29.3048 277.241 31.2848 275.831 34.8537C274.422 38.4266 275.599 42.2359 278.459 43.3685C281.319 44.497 284.782 42.517 286.191 38.9481C287.601 35.3711 286.428 31.5618 283.564 30.4333Z" fill="#FBC519"/>
<path fill-rule="evenodd" clip-rule="evenodd" d="M282.794 32.3889C280.798 31.6026 278.386 32.9796 277.404 35.473C276.418 37.9622 277.241 40.6226 279.238 41.4089C281.23 42.1952 283.646 40.8181 284.628 38.3289C285.605 35.8315 284.786 33.1752 282.794 32.3889Z" fill="#242424"/>
<path d="M256.475 37.7667C264.244 38.8015 255.302 39.6734 256.149 37.95C256.304 37.6363 256.817 37.7789 257.058 37.8726" stroke="black" stroke-width="0.5669" stroke-miterlimit="22.9256"/>
<path fill-rule="evenodd" clip-rule="evenodd" d="M247.79 37.624C232.439 41.2907 228.898 19.7551 231.99 33.7292C232.292 35.0981 238.651 40.5655 230.85 35.7785C235.828 42.68 256.3 43.4499 247.79 37.624Z" fill="#D68365"/>
<path fill-rule="evenodd" clip-rule="evenodd" d="M241.231 33.5581C240.249 34.7885 242.327 34.7559 245.064 35.8518C259.165 41.5107 264.608 52.8163 275.95 58.1451C280.692 60.3737 295.998 61.0133 298.353 55.1466C297.18 55.4644 296.846 49.0559 297.433 51.1948C297.583 51.7529 298.561 54.2992 298.94 54.6251C299.453 55.0733 299.999 55.4807 300.293 56.047C301.038 57.4689 299.922 55.4074 298.146 56.7803C275.571 74.2296 258.937 39.9014 242.881 36.3448C241.255 35.9863 240.689 34.1692 241.231 33.5581Z" fill="#6C7730"/>
<path fill-rule="evenodd" clip-rule="evenodd" d="M294.996 80.1411C285.19 83.1477 268.69 71.8177 264.815 63.0341C264.64 62.6389 254.956 51.0807 255.86 53.3541C256.41 54.7352 261.853 59.2941 264.151 63.7022C269.594 74.1318 280.993 85.0259 292.727 84.0644C300.484 83.4289 309.011 75.0526 306.929 68.5503C303.462 57.7133 310.616 75.354 294.996 80.1411Z" fill="#4A7034"/>
<path fill-rule="evenodd" clip-rule="evenodd" d="M300.647 60.3248C302.741 60.504 304.212 63.3192 303.935 66.6192C303.654 69.9192 301.727 72.4533 299.633 72.274C297.539 72.0948 296.064 69.2755 296.345 65.9796C296.626 62.6755 298.549 60.1455 300.647 60.3248Z" fill="#ADD045"/>
<path fill-rule="evenodd" clip-rule="evenodd" d="M242.037 47.8255C246.743 54.2503 234.973 62.5981 240.159 72.8118C242.909 78.2303 249.138 72.657 250.417 82.7566C250.809 85.8407 251.098 84.6918 250.756 88.4481C249.22 105.229 267.419 108.191 270.906 103.05C274.609 97.5822 278.712 100.597 279.743 100.21C283.116 98.9429 284.733 99.9736 288.306 96.1236C290.356 93.9114 294.149 83.0499 291.94 83.7629C286.139 85.6329 273.407 77.7822 270.507 72.8811C269.92 71.887 267.133 67.9392 264.078 63.7918C260.489 58.9192 256.524 53.7777 255.319 52.8488C253.449 51.4066 243.52 42.1911 241.927 47.4629C241.866 47.6585 241.98 47.7481 242.037 47.8255Z" fill="#ADD045"/>
<path fill-rule="evenodd" clip-rule="evenodd" d="M307.862 133.137C305.348 135.076 300.806 135.023 296.438 137.753C286.99 143.668 283.157 137.887 272.352 137.06C271.835 137.019 248.926 136.196 254.023 137.981C254.1 138.009 265.581 138.303 269.191 139.59C271.15 140.287 287.993 142.849 275.77 142.568C271.737 142.474 257.596 142.662 253.986 143.603C246.034 145.673 261.405 145.004 262.717 145.151C265.438 145.457 282.326 147.31 279.885 147.738C279.6 147.787 254.084 152.488 259.731 154.424C259.804 154.448 276.451 151.661 279.677 151.775C281.739 151.849 286.526 153.568 288.261 153.022L288.233 153.764C293.933 156.302 311.691 154.631 317.253 151.221C323.702 147.261 323.91 142.996 325.23 134.835C325.49 133.198 312.441 98.4459 311.679 96.6614C304.321 79.4362 289.447 91.9111 292.124 104.398C294.263 114.351 297.432 129.018 307.862 133.137Z" fill="#71A641"/>
<path fill-rule="evenodd" clip-rule="evenodd" d="M350.847 132.143C338.263 134.62 338.666 150.081 354.604 155.882C366.476 160.205 370.505 157.056 360.173 158.314C355.011 158.946 340.666 158.734 337.362 159.964C336.462 160.303 323.441 163.643 329.67 163.203C331.801 163.053 364.671 158.905 345.486 162.45C344.81 162.572 328.652 165.827 333.268 167.648C334.673 168.202 354.367 163.55 358.466 165.163C360.21 163.358 329.194 176.179 344.859 172.203C347.926 171.425 355.606 168.438 358.89 168.85C363.408 169.412 381.171 169.29 381.065 162.128C381.02 159.133 382.039 156.135 371.87 150.268C363.428 145.4 372.224 152.774 378.959 155.43C391.079 160.217 401.378 134.469 385.779 130.427C374.273 127.453 363.689 129.613 350.847 132.143Z" fill="#71A641"/>
<path fill-rule="evenodd" clip-rule="evenodd" d="M379.219 155.536C380.837 158.424 366.997 146.117 363.359 144.683C356.327 141.908 350.656 143.583 355.5 142.377C361.933 140.776 375.524 148.321 380.279 152.158C381.028 152.757 380.686 158.155 379.219 155.536Z" fill="#547F36"/>
<path fill-rule="evenodd" clip-rule="evenodd" d="M393.589 139.256C398.413 146.679 393.976 154.827 386.496 157.687C384.047 158.62 380.951 156.139 382.703 156.057C391.503 155.642 393.426 139.003 393.589 139.256Z" fill="#547F36"/>
<path fill-rule="evenodd" clip-rule="evenodd" d="M335.863 89.8618C349.116 95.0929 332.656 115.573 341.599 118.49C344.092 119.305 349.042 108.403 348.753 103.958C348.333 97.4722 346.309 92.0985 339.028 90.8151C338.922 90.7948 338.279 91.0066 338.144 91.0351L335.863 89.8618ZM374.941 109.829C377.842 109.882 372.892 116.551 380.824 119.68C385.88 121.68 380.873 109.935 374.941 109.829ZM316.723 82.3655C323.53 79.4607 312.86 97.8144 320.585 97.8022C324.529 97.794 323.649 90.2081 322.125 88.004C322.027 87.8614 319.465 81.1962 316.723 82.3655ZM359.15 100.695C358.372 98.1607 361.798 100.858 360.014 106.484C358.975 109.76 362.328 119.9 365.811 107.902C367.441 102.28 358.718 99.2851 359.15 100.695Z" fill="#5E8C34"/>
<path fill-rule="evenodd" clip-rule="evenodd" d="M307.222 440H0V390.264C49.2393 387.713 120.959 426.515 194.431 406.943C263.707 388.496 297.619 400.526 298.479 400.441C298.605 403.174 298.789 405.766 299.021 408.222C300.426 423.203 303.62 433.172 307.222 440Z" fill="#58626B"/>
<path fill-rule="evenodd" clip-rule="evenodd" d="M299.021 408.222C293.826 416.778 274.483 425.04 231.737 435.694C225.508 437.246 219.637 438.68 214.097 440H46.9293C27.6222 438.928 12.1244 437.001 0 434.406V376.037C6.99519 372.297 14.8133 368.643 23.2589 365.155C94.2822 335.797 209.941 317.924 258.105 358.775C258.806 359.366 259.49 359.973 260.162 360.592C284.073 382.633 306.603 395.735 299.021 408.222Z" fill="#66727D"/>
<path fill-rule="evenodd" clip-rule="evenodd" d="M48.2126 319.024C49.7974 318.193 34.0878 321.171 28.7508 347.364C27.2026 354.95 27.5163 358.502 25.5037 362.1C20.3337 363.644 8.74707 367.184 8.74707 372.321C8.74707 373.939 20.3093 368.504 24.856 368.72C25.2511 368.74 11.106 375.43 13.6237 378.469C18.0686 378.469 26.7423 370.704 33.3178 371.934C33.3178 372.55 28.3067 375.723 27.6671 376.506C21.6741 383.851 27.9115 383.191 32.4541 378.046C34.1123 376.163 47.08 371.662 54.6171 366.984C56.426 366.63 58.0271 366.161 61.3515 364.324C62.2071 363.847 63.193 363.399 64.2767 362.971C64.0608 361.961 63.6045 360.865 62.8467 359.671C53.0363 344.194 76.4297 327.014 60.2515 318.393C57.4404 316.894 50.8241 317.651 48.2126 319.024Z" fill="#504F4C"/>
<path fill-rule="evenodd" clip-rule="evenodd" d="M88.2283 223.247C69.6668 210.772 57.575 231.835 39.2253 248.494C7.78979 277.025 30.0342 310.64 59.7342 325.364C73.1135 332 79.9742 339.814 93.7446 344.023C127.527 367.225 212.626 357.573 235.029 350.089C265.222 340.006 262.419 328.322 238.981 312.094C171.726 265.544 124.553 314.221 88.2691 286.644L88.265 286.587C89.092 280.545 96.4213 267.842 106.672 267.842C112.897 267.842 146.899 249.855 123.298 238.716C110.037 232.454 123.058 211.689 93.3657 223.927C92.7016 224.2 88.1428 224.164 87.6213 223.716L88.2283 223.247Z" fill="#504F4C"/>
<path fill-rule="evenodd" clip-rule="evenodd" d="M155.084 337.521C161.888 338.071 171.067 343.726 184.894 339.717C196.2 336.437 197.516 345.005 208.418 350.908C210.276 351.91 203.048 350.733 199.064 356.677C186.169 358.058 171.507 358.865 156.987 358.514C161.668 354.265 155.178 337.529 155.084 337.521Z" fill="#838273"/>
<g opacity="0.15">
<path opacity="0.15" fill-rule="evenodd" clip-rule="evenodd" d="M211.481 305.979C208.662 308.049 172.447 309.385 178.946 333.406C180.844 340.413 198.22 353.373 204.176 351.837C212.268 349.751 204.307 352.106 195.002 342.801C176.473 324.272 185.717 314.123 208.32 308.375C211.4 307.597 220.302 305.446 211.481 305.979ZM158.343 358.547C160.653 358.592 162.967 358.604 165.277 358.596C172.28 349.992 153.776 314.567 130.68 308.648C130.281 308.546 131.686 308.913 132.615 309.365C141.595 313.769 144.666 325.421 151.266 333.418C158.168 341.786 158.376 354.119 158.343 358.547Z" fill="#0D0E05"/>
</g>
<path fill-rule="evenodd" clip-rule="evenodd" d="M135.952 294.323C151.132 303.331 174.126 318.193 145.506 294.8C144.895 294.299 144.442 293.777 144.137 293.252C141.358 293.618 138.629 293.989 135.952 294.323ZM160.356 291.414C164.295 291.088 168.333 290.877 172.468 290.852C173.348 297.285 183.301 315.37 175.858 305.873C170.256 298.731 164.968 294.16 160.356 291.414ZM179.105 290.983C189.746 297.314 205.871 313.39 196.444 293.174C190.484 291.924 184.702 291.247 179.105 290.983ZM102.789 293.847C109.711 307.808 109.479 301.029 110.734 295.334C108.028 295.044 105.38 294.564 102.789 293.847ZM121.603 295.635C123.257 297.517 125.164 299.966 127.38 303.115C132.497 310.383 127.005 299.571 124.862 295.452C123.771 295.529 122.683 295.594 121.603 295.635Z" fill="#838273"/>
<path fill-rule="evenodd" clip-rule="evenodd" d="M172.48 318.132C172.447 318.12 160.017 308.379 165.635 317.313C171.453 326.565 177.361 319.855 172.48 318.132Z" fill="#838273"/>
<path fill-rule="evenodd" clip-rule="evenodd" d="M147.547 312.001C147.026 307.185 132.396 306.277 144.993 312.514C149.914 314.959 147.6 312.502 147.547 312.001Z" fill="#838273"/>
<path fill-rule="evenodd" clip-rule="evenodd" d="M127.91 242.147C129.168 246.987 97.5862 247.602 83.991 229.497C72.2292 213.832 70.1351 238.256 55.8962 239.397C36.5403 240.949 56.8496 259.726 42.2562 279.111C4.80734 328.859 137.907 377.74 143.179 346.41C147.648 319.872 53.9529 317.444 81.734 288.941C115.431 254.369 119.639 293.386 137.981 250.641C139.92 246.127 125.958 234.63 127.91 242.147Z" fill="#838273"/>
<path fill-rule="evenodd" clip-rule="evenodd" d="M70.4123 232.988C66.2567 248.848 91.463 250.348 88.2893 237.873C87.0182 232.89 74.3397 218 70.4123 232.988Z" fill="white"/>
<path fill-rule="evenodd" clip-rule="evenodd" d="M80.9683 243.137C84.1991 243.137 86.9531 240.529 87.9554 236.911C86.4276 233.286 81.1517 226.873 76.5928 226.494C74.7676 228.177 73.582 230.878 73.582 233.917C73.582 238.997 76.8983 243.137 80.9683 243.137Z" fill="#FBC519"/>
<path fill-rule="evenodd" clip-rule="evenodd" d="M80.9682 240.346C83.8037 240.346 86.1219 237.457 86.1219 233.917L86.1178 233.726C84.5085 231.444 82.223 229.024 79.8478 227.639C77.5459 228.279 75.8145 230.853 75.8145 233.917C75.8145 237.457 78.1326 240.346 80.9682 240.346Z" fill="#242424"/>
<path fill-rule="evenodd" clip-rule="evenodd" d="M126.145 256.544C120.658 261.319 114.962 262.778 107.05 261.486C94.0418 259.364 99.9166 255.29 83.7059 257.372C75.4355 258.431 54.7881 250.03 61.767 246.873C64.517 245.63 66.2688 240.908 60.9807 245.866C59.1881 247.545 48.9377 246.738 55.9981 248.074C61.1477 249.048 57.4362 245.455 62.814 252.919C66.8066 258.459 83.4044 261.552 90.3833 257.706C92.294 256.654 99.8188 260.973 106.06 261.861C110.892 262.55 128.68 267.003 128.26 257.885C128.17 255.848 125.877 256.618 126.145 256.544Z" fill="#404035"/>
<path d="M110.212 248.136C108.949 248.136 106.912 247.247 106.456 246.71C106.309 246.534 106.333 246.412 106.378 246.335C106.456 246.209 106.684 245.842 110.228 246.677C110.587 246.701 111.21 246.816 111.251 247.313C111.279 247.655 111.133 247.903 110.827 248.034C110.656 248.107 110.448 248.136 110.212 248.136ZM107.018 246.38C106.619 246.38 106.574 246.457 106.574 246.461C106.57 246.477 106.602 246.567 106.822 246.734C107.621 247.337 110.016 248.221 110.799 247.793C110.966 247.7 111.035 247.557 111.019 247.337C111.006 247.203 110.917 247.109 110.795 247.048L110.791 247.056C110.579 247.003 110.379 246.954 110.192 246.909C110.131 246.905 110.078 246.905 110.049 246.905V246.877C108.33 246.473 107.458 246.38 107.018 246.38Z" fill="black"/>
<path fill-rule="evenodd" clip-rule="evenodd" d="M125.05 259.058C142.202 271.06 157.06 246.208 146.439 261.947C145.4 263.487 134.889 267.137 146.85 265.035C137.346 271.126 111.707 262.106 125.05 259.058Z" fill="#D68365"/>
<path fill-rule="evenodd" clip-rule="evenodd" d="M105.197 318.112C103.306 329.597 134.673 336.388 115.41 364.866L115.859 364.927C111.679 367.868 106.492 376.245 105.633 378.628C100.56 392.712 106.378 381.13 114.363 376.558C122.381 371.963 110.24 379.003 109.45 391.608C108.876 400.828 111.112 394.99 115.366 389.775C118.926 385.411 120.719 382.274 126.121 379.952C126.146 380.021 116.942 396.807 123.648 395.442C123.697 395.434 128.932 388.61 129.796 387.848C135.858 382.531 139.851 379.256 146.736 375.23C148.977 373.923 150.423 372.264 151.03 370.545C155.01 364.169 161.427 354.644 157.785 344.72C150.443 324.712 132.253 296.413 107.006 310.946C102.671 313.443 103.571 315.891 105.197 318.112Z" fill="#504F4C"/>
<path fill-rule="evenodd" clip-rule="evenodd" d="M221.446 306.032C211.958 308.183 160.315 312.746 195.087 344.084C215.18 362.193 211.705 346.015 197.641 358.017C195.739 358.62 192.651 361.106 190.573 363.053C183.777 366.707 177.405 378.041 179.589 378.041C181.337 378.041 191.033 368.928 194.814 370.236C195.034 370.871 192.076 372.578 191.192 375.727C190.402 378.543 183.158 394.452 193.649 381.256C193.681 381.215 202.18 368.268 200.994 373.377C200.929 373.65 193.514 387.978 198.876 385.42C198.969 385.375 205.182 376.803 206.755 375.071C215.71 365.237 227.268 369.144 227.802 364.161C249.985 357.337 269.524 344.944 245.927 332.428C246.697 332.563 363.66 371.181 340.878 322.17C332.839 304.875 294.58 298.552 294.413 298.414C302.158 295.211 387.803 356.428 239.433 310.082C235.709 308.913 224.795 305.274 221.446 306.032Z" fill="#504F4C"/>
<path fill-rule="evenodd" clip-rule="evenodd" d="M264.077 317.407C267.732 322.675 268.567 331.377 268.693 331.528C269.398 332.383 271.133 335.097 272.193 332.025C273.081 329.458 268.677 322.487 268.269 318.56C266.896 318.185 265.511 317.806 264.077 317.407ZM280.32 321.697C282.37 324.52 283.792 327.906 284.435 330.746C284.753 332.135 288.045 338.886 290.314 336.755C292.359 334.832 287.654 327.478 286.33 324.614C286.036 323.979 285.755 323.428 285.531 322.94C283.849 322.548 282.125 322.141 280.32 321.697ZM300.365 325.954C300.768 326.484 301.2 327.014 301.665 327.539C302.981 329.014 301.999 337.203 310.408 337.203C311.32 335.822 308.301 330.595 306.443 326.851C304.578 326.619 302.553 326.321 300.365 325.954ZM322.573 326.582C323.795 327.841 324.822 329.303 325.575 330.925C330.819 342.21 333.157 330.562 325.918 323.502C325.645 324.822 324.589 325.885 322.573 326.582ZM321.383 314.743C328.949 315.052 329.776 319.599 332.269 319.073C333.646 316.413 322.935 311.691 319.032 311.573C318.678 311.561 318.34 311.557 318.022 311.553C319.244 312.616 320.377 313.687 321.383 314.743Z" fill="#838273"/>
</g>
<defs>
<linearGradient id="paint0_linear" x1="358.142" y1="97.3677" x2="400.03" y2="162.373" gradientUnits="userSpaceOnUse">
<stop stop-color="#E37434"/>
<stop offset="1" stop-color="#ADD045"/>
</linearGradient>
<clipPath id="clip0">
<rect width="440" height="440" fill="white"/>
</clipPath>
</defs>
</svg>
