<svg width="440" height="440" viewBox="0 0 440 440" fill="none" xmlns="http://www.w3.org/2000/svg">
<g clip-path="url(#clip0)">
<path d="M440 0H0V440H440V0Z" fill="#D0E9FF"/>
<path d="M281.421 412.696H146.557V440H281.421V412.696Z" fill="#4A4739"/>
<path fill-rule="evenodd" clip-rule="evenodd" d="M340.959 260.215C346.789 250.755 344.276 243.377 329.511 222.644C319.253 208.238 338.348 190.752 344.007 218.171C347.677 219.442 374.574 135.936 376.64 180.074C377.491 198.273 354.522 212.65 380.282 198.888C400.518 188.076 380.376 222.673 395.092 212.19C400.123 208.605 416.297 213.567 401.834 226.213C396.322 231.033 429.843 219.434 404.955 244.664C398.004 251.713 387.587 266.061 376.506 282.211C363.68 276.683 353.711 272.637 340.959 260.215Z" fill="#FFB66D"/>
<path opacity="0.6" fill-rule="evenodd" clip-rule="evenodd" d="M368.957 204.315C353.324 208.12 358.556 243.723 381.338 218.403C381.578 218.134 367.286 242.354 384.214 238.904C388.524 238.028 399.186 223.638 391.071 237.368C384.703 248.14 396.595 247.818 401.097 248.889C399.618 250.609 398.046 252.544 396.383 254.658C395.846 255.009 395.344 255.664 394.872 256.601C389.368 263.751 383.049 272.666 376.502 282.211C372.648 280.549 368.916 279.009 365.241 277.33C371.857 267.622 377.304 259.115 380.572 253.729C386.716 243.593 375.247 253.265 369.735 237.299C347.763 229.68 350.151 229.998 356.168 209.077C357.916 202.979 366.182 204.991 368.957 204.315Z" fill="#D09C6F"/>
<path fill-rule="evenodd" clip-rule="evenodd" d="M354.037 419.63C361.317 419.63 367.253 413.694 367.253 406.413C367.253 399.133 361.317 393.197 354.037 393.197C346.756 393.197 340.82 399.133 340.82 406.413C340.82 413.694 346.756 419.63 354.037 419.63Z" fill="url(#paint0_linear)"/>
<path fill-rule="evenodd" clip-rule="evenodd" d="M393.934 421.923C414.41 421.923 431.106 405.224 431.106 384.751C431.106 364.275 414.406 347.58 393.934 347.58C373.457 347.58 356.758 364.279 356.758 384.751C356.758 405.224 373.462 421.923 393.934 421.923Z" fill="#8EAC34"/>
<path fill-rule="evenodd" clip-rule="evenodd" d="M415.437 380.461C425.932 380.461 434.488 371.902 434.488 361.411C434.488 350.916 425.928 342.361 415.437 342.361C404.942 342.361 396.383 350.92 396.383 361.411C396.387 371.902 404.942 380.461 415.437 380.461Z" fill="url(#paint1_linear)"/>
<path fill-rule="evenodd" clip-rule="evenodd" d="M417.209 394L388.332 413.889V440H381.48V431.897L353.886 406.776L357.284 403.04L381.48 425.069V406.584L344.491 382.914L347.355 378.754L381.48 400.596V361.069H388.332V407.758L414.345 389.84L417.209 394Z" fill="#AF7A34"/>
<path d="M386.303 374.338C408.003 374.338 425.593 356.747 425.593 335.048C425.593 313.348 408.003 295.757 386.303 295.757C364.604 295.757 347.013 313.348 347.013 335.048C347.013 356.747 364.604 374.338 386.303 374.338Z" fill="url(#paint2_linear)"/>
<path fill-rule="evenodd" clip-rule="evenodd" d="M345.942 367.029C354.713 367.029 361.863 359.875 361.863 351.108C361.863 342.336 354.709 335.186 345.942 335.186C337.17 335.186 330.021 342.34 330.021 351.108C330.016 359.879 337.17 367.029 345.942 367.029Z" fill="url(#paint3_linear)"/>
<path d="M419.193 409.53C430.684 409.53 439.999 400.215 439.999 388.724C439.999 377.233 430.684 367.917 419.193 367.917C407.702 367.917 398.387 377.233 398.387 388.724C398.387 400.215 407.702 409.53 419.193 409.53Z" fill="url(#paint4_linear)"/>
<path fill-rule="evenodd" clip-rule="evenodd" d="M348.981 409.245C362.645 409.245 373.788 398.102 373.788 384.438C373.788 370.773 362.645 359.631 348.981 359.631C335.316 359.631 324.174 370.773 324.174 384.438C324.174 398.102 335.316 409.245 348.981 409.245Z" fill="url(#paint5_linear)"/>
<path d="M369.425 395.491C382.325 395.491 392.782 385.033 392.782 372.134C392.782 359.234 382.325 348.777 369.425 348.777C356.526 348.777 346.068 359.234 346.068 372.134C346.068 385.033 356.526 395.491 369.425 395.491Z" fill="url(#paint6_linear)"/>
<path fill-rule="evenodd" clip-rule="evenodd" d="M23.5156 378.135C23.5156 380.682 23.0267 383.118 22.1344 385.355C21.1852 387.754 19.7715 389.922 18.0115 391.751C14.4304 395.466 9.41111 397.785 3.87037 397.785C2.5463 397.785 1.25074 397.654 0 397.402V358.869C1.25074 358.616 2.5463 358.486 3.87037 358.486C12.3852 358.486 19.6656 363.953 22.3748 371.556C23.1163 373.613 23.5156 375.829 23.5156 378.135Z" fill="url(#paint7_linear)"/>
<path d="M74.0459 400.119C103.973 394.122 123.371 364.999 117.373 335.073C111.376 305.146 82.2535 285.747 52.3268 291.745C22.4001 297.743 3.00163 326.865 8.99918 356.792C14.9967 386.718 44.1191 406.117 74.0459 400.119Z" fill="#8EAC34"/>
<path fill-rule="evenodd" clip-rule="evenodd" d="M95.154 339.558C110.754 339.558 123.477 326.834 123.477 311.235C123.477 295.635 110.754 282.912 95.154 282.912C79.5544 282.912 66.8311 295.635 66.8311 311.235C66.8311 326.83 79.5544 339.558 95.154 339.558Z" fill="url(#paint8_linear)"/>
<path fill-rule="evenodd" clip-rule="evenodd" d="M97.79 359.684L54.8615 389.249V440H44.6722V416.02L18.0115 391.751L6.20074 380.999L3.6463 378.673L8.70222 373.124L13.917 377.874L22.1344 385.354L44.6722 405.872V378.392L26.457 366.732L16.4715 360.344L1.01852 350.452L0 349.8V340.898L30.1522 360.193L32.1567 361.476L44.6722 369.486V310.726H54.8615V380.132L93.5285 353.499L97.79 359.684Z" fill="#AF7A34"/>
<path fill-rule="evenodd" clip-rule="evenodd" d="M110.249 272.042C110.249 300.964 89.043 325.095 61.38 329.67C59.2411 330.024 57.0656 330.261 54.8615 330.375C53.8593 330.428 52.853 330.452 51.8385 330.452C49.4144 330.452 47.023 330.301 44.6722 330.012C38.39 329.238 32.4093 327.462 26.9011 324.842C20.2237 321.673 14.2348 317.269 9.23593 311.936C8.77556 311.443 8.31926 310.941 7.87926 310.432C5.76889 308.02 3.85407 305.437 2.15926 302.704C1.39333 301.469 0.672222 300.206 0 298.911V245.17C9.75333 226.457 29.3456 213.628 51.8385 213.628C84.0115 213.628 110.249 239.869 110.249 272.042Z" fill="url(#paint9_linear)"/>
<path fill-rule="evenodd" clip-rule="evenodd" d="M15.5059 295.912C15.5059 301.718 13.3996 307.043 9.90815 311.17C9.69222 311.43 9.46815 311.687 9.23593 311.936C6.71407 314.673 3.55667 316.816 0 318.132V273.7C8.56778 276.862 14.8296 284.855 15.453 294.348C15.4896 294.865 15.5059 295.387 15.5059 295.912Z" fill="url(#paint10_linear)"/>
<path fill-rule="evenodd" clip-rule="evenodd" d="M100.74 382.767C117.778 382.767 131.67 368.871 131.67 351.837C131.67 334.799 117.774 320.907 100.74 320.907C83.7022 320.907 69.8096 334.803 69.8096 351.837C69.8055 368.871 83.7022 382.767 100.74 382.767Z" fill="url(#paint11_linear)"/>
<path fill-rule="evenodd" clip-rule="evenodd" d="M33.2363 345.465C33.2363 350.696 32.1363 355.679 30.1522 360.193C29.92 360.735 29.6715 361.273 29.4067 361.798C28.5511 363.526 27.5611 365.171 26.457 366.732C25.2348 368.455 23.87 370.069 22.3748 371.556C19.8815 374.045 17.0337 376.176 13.917 377.874C11.497 379.194 8.91 380.25 6.20074 380.999C4.1963 381.561 2.12667 381.953 0 382.164V308.762C2.72556 309.031 5.36148 309.601 7.87926 310.432C8.5637 310.66 9.24 310.905 9.90815 311.17C16.8463 313.928 22.7659 318.735 26.9011 324.842C30.8978 330.733 33.2363 337.834 33.2363 345.465Z" fill="url(#paint12_linear)"/>
<path fill-rule="evenodd" clip-rule="evenodd" d="M61.4696 327.177C61.4696 328.016 61.4411 328.847 61.38 329.67C60.9074 336.299 58.5567 342.422 54.8615 347.51C52.1319 351.279 48.6648 354.477 44.6722 356.897C40.9037 359.179 36.6748 360.767 32.1567 361.476C31.2522 361.623 30.3356 361.729 29.4067 361.798C28.5307 361.867 27.6426 361.9 26.7504 361.9C23.1733 361.9 19.7226 361.354 16.4715 360.344C10.4663 358.474 5.14556 355.011 1.01852 350.452C0.668148 350.069 0.33 349.674 0 349.274V305.079C0.68037 304.252 1.40148 303.462 2.15926 302.704C5.85852 298.984 10.393 296.096 15.453 294.348C18.9974 293.117 22.7985 292.453 26.7504 292.453C45.8741 292.453 61.4696 308.053 61.4696 327.177Z" fill="url(#paint13_linear)"/>
<path fill-rule="evenodd" clip-rule="evenodd" d="M440 58.0352V116.022C423.17 115.394 385.603 114.078 378.18 112.754C365.554 110.505 315.174 120.898 309.21 107.596C301.827 91.1452 310.24 80.6545 325.653 74.1278C327.942 73.1582 338.946 65.3441 342.311 63.4578C340.771 49.9767 350.993 45.483 358.094 54.9756C355.54 42.513 371.608 49.9482 369.848 46.0004C364.739 34.5237 398.839 13.1919 406.617 36.0148C406.951 36.0067 420.933 24.9252 424.575 48.2656C425.101 51.6145 429.814 42.9082 435.82 52.1522C437.616 54.9185 438.798 57.0493 439.543 58.6585C439.67 58.4508 439.82 58.243 440 58.0352Z" fill="#FDFDFD"/>
<path fill-rule="evenodd" clip-rule="evenodd" d="M176.314 34.1693C168.826 32.9063 178.049 37.51 161.745 42.1178C148.655 45.813 144.67 33.2567 141.415 39.0826C139.268 42.9285 132.815 44.3993 125.347 44.44L125.343 44.4441C119.916 60.1252 91.3407 48.1393 89.4911 50.1885C80.137 60.553 54.45 55.7252 55.5296 43.5315C55.7333 41.2541 40.9567 51.5656 29.7937 44.88C15.2737 36.1778 31.3704 41.3804 9.63926 47.5159C5.24741 48.7544 2.26926 47.4304 0 45.8741V0H169.009C170.011 1.42593 170.891 3.28778 171.576 5.71185C173.751 13.42 167.522 5.45111 187.33 6.42074C204.869 7.28037 206.894 39.3393 176.314 34.1693Z" fill="#FDFDFD"/>
<path fill-rule="evenodd" clip-rule="evenodd" d="M285.878 416.236C246.29 456.101 160.205 431.526 141.969 424.751C138.445 423.443 146.279 366.728 146.296 366.638C149.221 350.623 148.972 301.204 145.029 296.548C144.996 296.507 144.959 296.47 144.923 296.442C144.915 296.434 144.911 296.43 144.902 296.421C142.548 293.985 133.894 282.48 133.128 263.075C132.411 244.864 138.828 225.174 144.796 221.186C144.809 221.177 144.817 221.169 144.829 221.161C149.714 217.914 154.619 215.514 159.378 214.272C171.27 211.167 190.116 206.967 211.611 206.824C233.102 206.967 251.949 211.167 263.841 214.272C266.909 215.074 269.948 216.215 272.934 217.645C283.307 222.783 293.529 234.023 293.529 257.184C293.529 279.873 280.137 294.49 278.516 296.605C278.487 296.641 278.463 296.674 278.446 296.699C273.953 303.07 277.334 392.957 285.878 416.236Z" fill="#958068"/>
<path fill-rule="evenodd" clip-rule="evenodd" d="M371.653 312.669C366.597 323.103 366.267 322.536 360.841 331.357C352.334 345.18 336.237 344.43 322.483 342.108C295.908 337.623 288.624 312.107 279.926 297.379C279.771 297.114 279.616 296.849 279.457 296.593C279.428 296.564 279.4 296.54 279.371 296.515C275.277 290.29 254.617 260.203 255.4 237.645C256.202 214.651 266.082 214.716 271.24 216.871C271.272 216.883 271.301 216.896 271.329 216.908C271.427 216.949 271.521 216.989 271.61 217.034C271.692 217.067 271.765 217.103 271.843 217.14C296.495 228.307 317.867 259.237 324.781 279.323C328.273 275.799 331.723 271.761 334.196 265.886C340.927 249.892 341.114 247.264 348.59 257.213C355.133 265.911 384.556 272.906 387.351 276.263C390.194 279.685 376.09 303.514 371.653 312.669Z" fill="#958068"/>
<path fill-rule="evenodd" clip-rule="evenodd" d="M360.914 265.263C360.706 265.169 360.502 265.076 360.295 264.982C360.168 264.925 360.042 264.868 359.92 264.811C359.622 264.672 359.325 264.534 359.036 264.391C358.958 264.354 358.881 264.318 358.807 264.281C358.575 264.171 358.351 264.061 358.123 263.947C358.111 263.943 358.095 263.935 358.078 263.927C357.793 263.784 357.512 263.641 357.235 263.499C356.942 263.348 356.652 263.197 356.367 263.043C356.082 262.892 355.801 262.737 355.524 262.586C355.345 262.484 355.169 262.387 354.998 262.285C354.346 261.914 353.727 261.535 353.136 261.152C352.945 261.026 352.757 260.904 352.57 260.777C352.537 260.753 352.501 260.728 352.464 260.704C352.232 260.545 352.008 260.382 351.788 260.219C351.69 260.15 351.592 260.077 351.495 260.003C351.27 259.832 351.055 259.661 350.843 259.486C350.741 259.408 350.643 259.323 350.545 259.241C350.382 259.103 350.227 258.964 350.077 258.822C350.003 258.757 349.934 258.696 349.869 258.63C349.735 258.5 349.608 258.374 349.482 258.247C346.956 262.831 343.725 272.018 336.885 286.061C323.481 313.569 273.166 213.974 273.166 230.776C273.166 249.606 270.086 245.255 277.652 256.316C276.356 254.573 329.943 345.486 349.694 291.443C350.439 289.402 358.217 274.914 361.875 265.691C361.553 265.552 361.232 265.41 360.914 265.263ZM238.74 209.033V436.562C246.029 435.694 253.163 434.215 259.909 431.962V213.274C254.01 211.819 246.827 210.255 238.74 209.033ZM221.507 207.073C218.924 206.955 216.288 206.877 213.616 206.845C212.947 206.837 212.279 206.828 211.607 206.824C210.935 206.828 210.267 206.837 209.599 206.849C206.677 206.902 203.809 207.032 201.006 207.22V436.533C207.908 437.23 215.033 437.625 222.175 437.572V207.101C221.955 207.089 221.731 207.081 221.507 207.073ZM163.276 213.282V429.77C169.489 431.351 176.668 432.944 184.445 434.272V209.037C176.354 210.259 169.172 211.827 163.276 213.282ZM279.31 296.462C279.318 296.47 279.326 296.474 279.33 296.483C279.347 296.491 279.363 296.503 279.375 296.515C279.355 296.491 279.335 296.474 279.31 296.462ZM387.35 276.263C387.33 276.238 387.306 276.21 387.281 276.186C387.257 276.157 387.228 276.129 387.2 276.104C387.171 276.076 387.143 276.047 387.11 276.023C387.049 275.966 386.98 275.909 386.902 275.851C386.894 275.843 386.882 275.835 386.87 275.827C386.817 275.79 386.764 275.75 386.707 275.713C386.523 275.583 386.312 275.452 386.071 275.318C385.961 275.257 385.847 275.196 385.729 275.13C385.546 275.033 385.354 274.935 385.146 274.833C385.012 274.772 384.873 274.703 384.731 274.637C384.584 274.568 384.433 274.499 384.279 274.43C384.046 274.328 383.806 274.222 383.553 274.112C383.386 274.039 383.215 273.965 383.036 273.896C382.665 273.741 382.278 273.582 381.871 273.419C381.696 273.354 381.52 273.281 381.341 273.211C381.239 273.171 381.137 273.134 381.036 273.093C380.832 273.016 380.628 272.934 380.416 272.853C380.363 272.833 380.31 272.816 380.257 272.792C379.993 272.694 379.724 272.592 379.451 272.486C379.435 272.482 379.414 272.474 379.398 272.466C378.868 272.266 378.318 272.059 377.752 271.851C377.695 271.834 377.642 271.814 377.589 271.79C371.079 283.47 360.27 306.395 357.785 309.662C343.086 328.994 348.101 333.74 329.625 329.633C319.126 327.299 285.735 289.626 280.911 281.808C267.805 260.574 277.314 294.287 279.457 296.593C288.367 311.182 295.431 337.541 322.487 342.108C336.241 344.43 352.338 345.18 360.845 331.357C366.271 322.536 366.597 323.103 371.653 312.669C375.666 304.39 381.736 284.733 387.509 276.511C387.465 276.418 387.412 276.336 387.35 276.263Z" fill="#86725C"/>
<path fill-rule="evenodd" clip-rule="evenodd" d="M125.836 144.63C126.483 144.381 127.098 144.076 127.685 143.725C164.613 126.072 216.638 123.954 273.248 132.925C287.079 135.117 314.253 141.843 325.143 152.489C336.657 166.186 148.773 183.704 106.011 158.233C106.003 158.229 105.6 157.687 105.6 157.683C111.654 152.664 118.429 148.325 125.836 144.63ZM310.676 141.493C319.607 148.406 325.327 152.668 325.147 152.493C322.756 149.649 316.6 145.033 310.676 141.493Z" fill="#CF9847"/>
<path fill-rule="evenodd" clip-rule="evenodd" d="M113.94 151.494C167.502 171.51 283.8 158.416 321.314 149.641C323.849 151.556 325.238 152.582 325.148 152.493C324.419 151.625 323.335 150.59 322.015 149.47L321.628 149.563C322.932 150.504 324.113 151.478 325.148 152.493C336.662 166.19 148.777 183.708 106.016 158.237C106.008 158.233 105.604 157.691 105.604 157.687C108.244 155.495 111.027 153.43 113.94 151.494Z" fill="#B46A55"/>
<path fill-rule="evenodd" clip-rule="evenodd" d="M254.214 171.164V146.398H262.024C266.318 146.398 269.834 150.822 269.834 156.233V161.329C269.834 166.74 266.322 171.164 262.024 171.164H254.214V171.164Z" fill="#FFB66D"/>
<path fill-rule="evenodd" clip-rule="evenodd" d="M170.374 171.164V146.398H162.564C158.27 146.398 154.754 150.822 154.754 156.233V161.329C154.754 166.74 158.27 171.164 162.564 171.164H170.374V171.164Z" fill="#FFB66D"/>
<path fill-rule="evenodd" clip-rule="evenodd" d="M167.998 106.733H257.607V159.512C257.607 180.062 243.588 197.491 224.644 202.718H224.835V208.14C240.203 216.989 226.274 221.809 210.503 221.601C185.407 221.275 191.306 210.369 200.77 208.14V202.718H200.961C182.017 197.491 167.998 180.062 167.998 159.512V106.733V106.733Z" fill="#FFB66D"/>
<path fill-rule="evenodd" clip-rule="evenodd" d="M197.927 219.98C188.263 216.786 193.45 209.864 200.775 208.14V202.718H200.966C182.022 197.491 168.003 180.062 168.003 159.512V115.655C169.368 115.133 170.696 114.942 171.975 115.162C175.32 115.736 180.319 118.543 179.989 118.93C167.286 133.833 182.653 196.794 198.078 201.614C218.509 207.998 201.785 202.429 197.841 215.796C197.324 217.515 197.511 218.884 197.927 219.98Z" fill="#D09C6F"/>
<path fill-rule="evenodd" clip-rule="evenodd" d="M164.869 123.18H262.895V165.008C262.895 176.513 258.19 186.967 250.608 194.549C243.026 202.131 232.568 206.837 221.067 206.837H205.537C194.031 206.837 183.573 202.131 175.995 194.549C168.414 186.967 163.708 176.509 163.708 165.008V123.18H164.869ZM260.573 125.498H166.026V165.008C166.026 175.874 170.471 185.749 177.633 192.912C184.795 200.074 194.671 204.519 205.537 204.519H221.063C231.928 204.519 241.804 200.074 248.966 192.912C256.128 185.749 260.573 175.874 260.573 165.008V125.498Z" fill="#E04C24"/>
<path fill-rule="evenodd" clip-rule="evenodd" d="M155.06 134.432C155.056 134.432 157.52 139.818 161.016 141.859C165.294 144.361 168.826 157.455 169.311 151.474C170.077 142.063 172.077 135.182 175.699 130.097C168.691 131.067 161.937 132.346 155.463 133.951L155.312 134.175C155.28 134.224 155.104 134.461 155.06 134.432ZM248.283 129.67C248.38 129.922 248.474 130.175 248.556 130.44C250.405 136.428 252.389 141.476 254.214 150.407C255.486 156.628 263.45 137.361 267.15 132C260.794 131.079 254.5 130.301 248.283 129.67Z" fill="#62472C"/>
<path fill-rule="evenodd" clip-rule="evenodd" d="M194.207 155.332C195.544 155.332 196.636 153.788 196.636 151.894C196.636 149.999 195.544 148.455 194.207 148.455C192.871 148.455 191.779 149.999 191.779 151.894C191.779 153.784 192.871 155.332 194.207 155.332Z" fill="#6F441D"/>
<path fill-rule="evenodd" clip-rule="evenodd" d="M230.503 155.332C231.84 155.332 232.932 153.788 232.932 151.894C232.932 149.999 231.84 148.455 230.503 148.455C229.167 148.455 228.075 149.999 228.075 151.894C228.075 153.784 229.167 155.332 230.503 155.332Z" fill="#6F441D"/>
<path fill-rule="evenodd" clip-rule="evenodd" d="M206.348 192.231C209.212 193.514 206.547 195.063 214.708 195.063C219.768 195.063 223.023 192.268 223.227 192.284C222.485 195.678 218.855 197.23 215.857 197.866C213.188 198.432 210.092 198.098 208.397 195.592C207.623 194.452 207.142 192.586 206.348 192.231Z" fill="#E09C60"/>
<path fill-rule="evenodd" clip-rule="evenodd" d="M202.037 180.355C209.823 185.211 217.486 187.611 225.422 180.282C226.078 179.675 223.524 185.379 219.307 188.483C214.752 191.832 204.95 188.186 202.897 182.25C202.628 181.467 202.123 180.408 202.037 180.355Z" fill="#FDFDFD"/>
<path fill-rule="evenodd" clip-rule="evenodd" d="M185.252 132.697H199.878C201.263 132.697 202.396 133.829 202.396 135.215C202.396 136.6 201.263 137.732 199.878 137.732H185.252C183.867 137.732 182.734 136.6 182.734 135.215C182.734 133.829 183.867 132.697 185.252 132.697Z" fill="#6F441D"/>
<path fill-rule="evenodd" clip-rule="evenodd" d="M222.982 132.697H237.608C238.993 132.697 240.125 133.829 240.125 135.215C240.125 136.6 238.993 137.732 237.608 137.732H222.982C221.596 137.732 220.464 136.6 220.464 135.215C220.464 133.829 221.596 132.697 222.982 132.697Z" fill="#6F441D"/>
<path fill-rule="evenodd" clip-rule="evenodd" d="M105.6 157.691C141.92 127.539 204.176 121.982 273.252 132.929C287.084 135.121 314.258 141.847 325.148 152.493C325.755 153.087 258.422 102.593 227.981 70.5018C211.575 53.2074 215.425 58.907 199.381 71.2555C183.154 83.7426 96.4373 165.297 105.6 157.691Z" fill="#FFBA55"/>
<path fill-rule="evenodd" clip-rule="evenodd" d="M213.754 146.08C218.871 146.08 223.055 150.264 223.055 155.381V166.919C223.055 172.036 218.871 176.22 213.754 176.22C208.637 176.22 204.453 172.036 204.453 166.919V155.381C204.453 150.264 208.637 146.08 213.754 146.08Z" fill="url(#paint14_linear)"/>
<path fill-rule="evenodd" clip-rule="evenodd" d="M215.49 59.7463C211.726 69.0963 193.197 104.512 184.287 119.713C181.757 124.027 180.001 126.712 179.581 126.712C178.685 126.712 173.242 128.92 166.638 131.548C152.574 134.127 139.647 138.062 128.162 143.493C124.398 144.613 120.87 145.689 116.942 146.451C122.361 141.305 129.218 134.848 136.681 127.873C160.515 105.604 190.504 78.0878 199.381 71.2515C209.041 63.8163 211.489 58.793 215.49 59.7463Z" fill="#D3A664"/>
<path fill-rule="evenodd" clip-rule="evenodd" d="M319.481 148.117C319.171 147.921 318.853 147.726 318.535 147.534C319.998 148.647 321.249 149.592 322.251 150.346C322.381 150.443 322.508 150.537 322.63 150.631C322.63 150.635 322.634 150.631 322.634 150.631C323.041 150.936 323.404 151.209 323.718 151.446C323.844 151.539 323.962 151.629 324.072 151.71C324.129 151.751 324.182 151.792 324.231 151.829C324.435 151.979 324.606 152.106 324.744 152.203C324.809 152.256 324.871 152.297 324.924 152.338C325.025 152.411 325.095 152.46 325.131 152.48C323.555 150.94 321.64 149.486 319.481 148.117ZM290.987 125.979C288.868 125.571 286.892 125.225 285.104 124.94C249.378 119.277 215.164 117.28 184.287 119.713C167.31 121.049 151.339 123.73 136.681 127.873C129.217 134.848 122.361 141.305 116.942 146.451C108.04 154.909 103.025 159.83 105.604 157.687C112.285 152.138 119.843 147.424 128.162 143.493C139.647 138.062 152.574 134.127 166.638 131.548C197.759 125.832 234.43 126.773 273.252 132.925C284.794 134.754 305.629 139.741 318.535 147.534C312.355 142.817 302.386 135.113 290.987 125.979Z" fill="#CE7359"/>
<path opacity="0.15" fill-rule="evenodd" clip-rule="evenodd" d="M196.094 271.166C196.257 271.716 196.501 272.323 196.868 273.004C197.177 273.578 197.736 276.177 197.748 278.223C200.653 282.293 203.093 285.572 204.678 287.393C201.761 281.107 198.701 275.273 196.094 271.166ZM207.424 293.533C211.706 303.49 215.181 313.504 215.633 318.747C217.654 342.076 214.187 320.882 216.305 315.631C228.01 286.599 204.702 263.083 234.435 236.708C245.736 226.686 236.411 248.734 235.702 249.985C221.585 275.053 224.384 292.343 219.401 317.786C217.584 327.063 220.249 331.895 216.252 327.075C218.138 334.392 223.541 329.491 219.927 319.733C212.85 300.634 208.699 300.699 199.899 286.334C197.833 282.957 194.362 279.746 190.268 276.862L190.329 276.866C190.81 276.915 193.287 277.697 193.657 278.186C194.851 279.75 195.719 280.512 196.342 280.732C201.243 287.919 204.718 293.056 204.706 293.293C204.666 294.01 206.332 294.018 207.175 293.83C207.261 293.733 207.346 293.631 207.424 293.533ZM175.348 268.714C179.508 267.52 191.172 273.733 181.24 269.414C179.011 268.445 165.807 259.885 173.36 259.991C178.991 260.069 177.54 263.25 170.48 256.471C161.456 247.806 176.485 254.116 171.173 251.867C171.116 251.843 158.327 241.242 168.761 243.389C170.252 243.695 166.438 242.049 164.548 238.741C156.543 224.714 163.342 221.34 171.881 236.256C172.603 236.512 173.426 236.863 174.322 237.311C174.66 235.583 175.524 233.95 178.441 236.17C179.871 237.258 180.209 239.095 180.188 240.806C180.747 241.189 181.317 241.589 181.891 242.008L182.221 241.474C183.517 239.397 185.208 241.417 185.77 245.056C189.547 248.246 193.209 252.026 195.861 256.039C196.35 256.781 196.904 257.649 197.499 258.614C201.007 261.539 203.733 265.581 198.603 259.592C197.023 257.742 188.887 244.273 195.637 247.671C200.665 250.201 197.972 252.43 194.586 243.247C190.256 231.509 201.015 243.752 197.226 239.405C197.186 239.36 190.321 224.233 198.766 230.727C199.972 231.652 197.259 228.507 197.006 224.706C195.87 207.554 204.543 208.584 204.828 229.203C204.869 232.002 207.452 222.184 210.63 228.47C213.168 233.493 202.853 240.464 211.71 234.891C214.965 232.846 214.688 240.301 209.746 246.078C205.847 245.716 220.913 241.324 211.469 254.703C210.19 256.516 214.606 251.656 214.513 260.37C214.464 264.778 210.854 264.077 211.09 269.651C211.119 270.299 210.483 272.882 209.599 274.723C210.414 279.543 211.16 283.49 211.783 285.845C212.178 286.733 212.565 287.622 212.944 288.51C213.254 288.958 213.457 289.43 213.527 289.895C218.521 301.901 221.854 313.749 219.483 320.023C218.709 322.068 215.698 327.93 216.823 327.429C202.172 299.151 193.547 289.854 166.654 273.203C148.178 261.759 160.433 262.358 175.348 268.714ZM206.291 274.344C206.173 273.929 206.059 273.452 205.949 272.91C205.884 272.584 205.309 271.92 204.727 271.333C205.244 272.315 205.766 273.322 206.291 274.344Z" fill="#252322"/>
<path fill-rule="evenodd" clip-rule="evenodd" d="M209.863 267.491C207.236 265.568 195.922 258.916 199.014 253.689C201.976 248.681 213.445 266.958 205.793 256.471C204.359 254.503 197.295 240.448 203.761 244.355C208.576 247.268 205.72 249.28 203.056 239.865C199.65 227.826 209.428 240.867 205.981 236.239C205.944 236.19 200.273 220.579 208.189 227.708C209.322 228.727 206.861 225.378 206.906 221.564C207.101 204.376 215.669 206.079 214.353 226.657C214.174 229.452 217.515 219.861 220.195 226.38C222.334 231.587 211.513 237.73 220.774 232.866C224.176 231.081 223.324 238.492 217.951 243.866C214.092 243.206 229.452 239.996 219.002 252.597C217.584 254.304 222.363 249.802 221.593 258.48C221.202 262.871 217.661 261.894 217.462 267.467C217.409 268.93 213.249 279.909 212.068 270.315C211.994 269.7 210.259 267.777 209.863 267.491Z" fill="#FCCF10"/>
<path fill-rule="evenodd" clip-rule="evenodd" d="M213.962 288.933C214.475 288.163 207.007 197.564 211.135 220.065C213.119 230.902 215.396 283.075 217.559 285.98C218.851 287.715 218.651 289.744 215.82 290.648C214.997 290.384 213.563 289.532 213.962 288.933Z" fill="#44AA2A"/>
<path fill-rule="evenodd" clip-rule="evenodd" d="M196.191 273.044C192.989 272.462 179.903 271.427 180.4 265.373C180.876 259.576 199.177 270.999 187.713 264.913C185.566 263.772 173.066 254.214 180.587 254.907C186.193 255.42 184.502 258.48 177.992 251.175C169.669 241.837 184.16 249.293 179.039 246.636C178.986 246.608 167.061 235.046 177.295 237.995C178.758 238.419 175.083 236.48 173.458 233.033C166.12 217.486 174.57 215.274 182.38 234.357C183.443 236.948 182.249 226.865 187.513 231.554C191.713 235.302 184.665 245.557 190.87 237.136C193.148 234.039 195.621 241.079 193.135 248.262C189.375 249.354 201.785 239.751 197.894 255.656C197.368 257.811 199.695 251.672 202.795 259.816C204.363 263.935 200.75 264.607 203.007 269.708C203.602 271.044 204.657 282.745 199.401 274.629C199.071 274.104 196.668 273.13 196.191 273.044Z" fill="#FCCF10"/>
<path fill-rule="evenodd" clip-rule="evenodd" d="M209.248 290.538C209.374 289.622 163.052 211.4 176.603 229.835C183.125 238.712 207.981 284.647 211.196 286.31C213.119 287.308 213.823 289.218 211.672 291.268C210.813 291.394 209.15 291.255 209.248 290.538Z" fill="#44AA2A"/>
<path fill-rule="evenodd" clip-rule="evenodd" d="M218.684 325.514C206.274 296.181 198.399 286.248 172.879 267.557C144.116 246.49 195.258 264.134 204.999 283.226C212.658 298.234 216.802 298.491 222.375 318.079C225.219 328.089 219.454 332.559 218.142 325.115C221.752 330.228 219.47 325.209 222 316.099C228.946 291.121 227.496 273.668 243.519 249.769C244.318 248.576 255.326 227.317 243.283 236.431C211.595 260.415 233.004 285.67 219.079 313.704C216.557 318.78 218.37 340.177 218.166 316.759C218.069 305.494 205.871 271.394 199.568 263.238C192.814 254.491 194.631 251.871 184.869 241.336C164.474 219.332 193.323 234.663 203.329 252.703C209.908 264.566 228.038 305.279 221.906 318.324C220.986 320.316 217.527 325.922 218.684 325.514Z" fill="#1D620C"/>
<path fill-rule="evenodd" clip-rule="evenodd" d="M193.665 322.202C206.437 319.689 207.146 312.274 230.776 308.416C268.029 302.329 299.2 365.412 218.521 365.412C208.597 365.412 195.951 364.752 188.801 364.047C190.373 350.285 193.462 336.922 193.665 322.202Z" fill="#FFB66D"/>
<path opacity="0.68" fill-rule="evenodd" clip-rule="evenodd" d="M269.145 337.802C269.202 341.595 268.261 345.359 266.118 348.834C265.503 349.829 264.79 350.798 263.975 351.739C263.649 352.114 263.303 352.485 262.945 352.852C255.742 360.169 241.78 365.408 218.525 365.408C208.605 365.408 195.955 364.748 188.809 364.043C189.355 359.236 190.088 354.477 190.821 349.694C216.37 349.283 248.567 347.087 269.145 337.802Z" fill="#D09C6F"/>
<path fill-rule="evenodd" clip-rule="evenodd" d="M195.722 314.592C195.722 332.514 193.473 348.064 191.363 365.229C189.786 378.017 193.909 374.041 171.803 373.642C159.174 373.413 122.413 364.088 111.401 354.726C96.5878 342.137 89.9511 326.529 93.7563 293.997C96.327 272.014 120.23 237.718 144.446 221.414V221.434C156.391 213.286 163.109 226.527 163.708 253.558C164.201 275.941 147.155 295.912 144.47 296.226C144.25 296.218 144.01 296.336 143.753 296.593C141.537 300.223 142.898 305.417 142.82 309.98C142.824 309.984 142.82 309.988 142.82 309.988C142.824 309.992 142.824 309.992 142.824 309.996C143.073 317.749 195.722 312.799 195.722 314.592Z" fill="#958068"/>
<path fill-rule="evenodd" clip-rule="evenodd" d="M195.71 317.061C195.657 321.75 195.454 326.289 195.144 330.746C181.17 332.791 148.447 328.713 142.69 326.085C131.694 321.066 131.104 308.884 133.911 298.149C138.596 280.231 152.753 266.355 143.758 296.593C141.391 304.561 143.008 309.638 146.728 312.873C152.769 318.124 164.352 318.511 173.405 318.511C188.78 318.511 193.474 316.568 195.71 317.061Z" fill="#86725C"/>
<path fill-rule="evenodd" clip-rule="evenodd" d="M192.798 353.707C192.333 357.496 191.844 361.321 191.363 365.228C190.369 373.303 191.645 374.693 187.159 374.521C185.513 374.11 183.716 373.662 181.761 373.21C150.325 365.905 131.58 373.14 110.945 347.555C97.8105 331.275 98.1731 311.846 104.573 293.606C112.86 269.993 131.271 248.372 143.656 238.154C145.172 236.907 143.697 254.507 142.69 257.742C142.291 257.742 142.454 257.318 142.56 257.123C134.457 270.433 128.228 282.248 124.166 292.649C108.676 332.322 124.83 351.417 190.092 354.204C191.298 354.253 192.154 353.984 192.798 353.707Z" fill="#86725C"/>
</g>
<defs>
<linearGradient id="paint0_linear" x1="359.353" y1="383.314" x2="379.05" y2="297.743" gradientUnits="userSpaceOnUse">
<stop stop-color="#88C540"/>
<stop offset="1" stop-color="#CBDB2A"/>
</linearGradient>
<linearGradient id="paint1_linear" x1="418.705" y1="373.556" x2="408.32" y2="334.948" gradientUnits="userSpaceOnUse">
<stop stop-color="#8CAB3F"/>
<stop offset="1" stop-color="#CBDB2A"/>
</linearGradient>
<linearGradient id="paint2_linear" x1="377.252" y1="374.365" x2="396.949" y2="288.795" gradientUnits="userSpaceOnUse">
<stop stop-color="#88C540"/>
<stop offset="1" stop-color="#CBDB2A"/>
</linearGradient>
<linearGradient id="paint3_linear" x1="348.671" y1="361.259" x2="339.993" y2="328.991" gradientUnits="userSpaceOnUse">
<stop stop-color="#8CAB3F"/>
<stop offset="1" stop-color="#CBDB2A"/>
</linearGradient>
<linearGradient id="paint4_linear" x1="418.569" y1="391.439" x2="438.265" y2="305.871" gradientUnits="userSpaceOnUse">
<stop stop-color="#88C540"/>
<stop offset="1" stop-color="#CBDB2A"/>
</linearGradient>
<linearGradient id="paint5_linear" x1="349.323" y1="382.952" x2="380.88" y2="245.859" gradientUnits="userSpaceOnUse">
<stop stop-color="#88C540"/>
<stop offset="1" stop-color="#CBDB2A"/>
</linearGradient>
<linearGradient id="paint6_linear" x1="364.046" y1="395.511" x2="375.754" y2="344.645" gradientUnits="userSpaceOnUse">
<stop stop-color="#88C540"/>
<stop offset="1" stop-color="#CBDB2A"/>
</linearGradient>
<linearGradient id="paint7_linear" x1="17.4051" y1="345.092" x2="46.6844" y2="217.894" gradientUnits="userSpaceOnUse">
<stop stop-color="#88C540"/>
<stop offset="1" stop-color="#CBDB2A"/>
</linearGradient>
<linearGradient id="paint8_linear" x1="100.011" y1="329.29" x2="84.5733" y2="271.892" gradientUnits="userSpaceOnUse">
<stop stop-color="#8CAB3F"/>
<stop offset="1" stop-color="#CBDB2A"/>
</linearGradient>
<linearGradient id="paint9_linear" x1="39.2957" y1="330.701" x2="68.5794" y2="203.484" gradientUnits="userSpaceOnUse">
<stop stop-color="#88C540"/>
<stop offset="1" stop-color="#CBDB2A"/>
</linearGradient>
<linearGradient id="paint10_linear" x1="8.51669" y1="308.294" x2="-3.17601" y2="264.821" gradientUnits="userSpaceOnUse">
<stop stop-color="#8CAB3F"/>
<stop offset="1" stop-color="#CBDB2A"/>
</linearGradient>
<linearGradient id="paint11_linear" x1="99.8096" y1="355.875" x2="129.092" y2="228.664" gradientUnits="userSpaceOnUse">
<stop stop-color="#88C540"/>
<stop offset="1" stop-color="#CBDB2A"/>
</linearGradient>
<linearGradient id="paint12_linear" x1="12.7582" y1="345.985" x2="58.4429" y2="147.517" gradientUnits="userSpaceOnUse">
<stop stop-color="#88C540"/>
<stop offset="1" stop-color="#CBDB2A"/>
</linearGradient>
<linearGradient id="paint13_linear" x1="20.5542" y1="362.339" x2="37.9621" y2="286.714" gradientUnits="userSpaceOnUse">
<stop stop-color="#88C540"/>
<stop offset="1" stop-color="#CBDB2A"/>
</linearGradient>
<linearGradient id="paint14_linear" x1="213.754" y1="153.996" x2="213.754" y2="175.009" gradientUnits="userSpaceOnUse">
<stop stop-color="#FFB66D"/>
<stop offset="0.3336" stop-color="#FEB36C"/>
<stop offset="0.5528" stop-color="#FCAA69"/>
<stop offset="0.7392" stop-color="#F79C63"/>
<stop offset="0.9062" stop-color="#F1875C"/>
<stop offset="1" stop-color="#ED7756"/>
</linearGradient>
<clipPath id="clip0">
<rect width="440" height="440" fill="white"/>
</clipPath>
</defs>
</svg>
