<svg width="440" height="440" viewBox="0 0 440 440" fill="none" xmlns="http://www.w3.org/2000/svg">
<path d="M440 0H0V440H440V0Z" fill="#D3EBFA"/>
<path fill-rule="evenodd" clip-rule="evenodd" d="M440 177.65V239.584C424.005 240.81 384.539 243.984 376.794 243.503C363.99 242.705 315.129 258.777 307.686 246.249C298.475 230.743 305.637 219.36 320.202 211.119C322.369 209.896 332.407 200.876 335.532 198.619C332.469 185.399 342.112 179.769 350.248 188.389C346.288 176.297 363.097 181.854 360.902 178.135C354.517 167.314 385.957 142.23 396.289 164.018C396.619 163.973 409.249 151.364 415.531 174.138C416.431 177.401 420.118 168.214 427.142 176.717C429.24 179.259 430.658 181.243 431.583 182.755C432.393 181.015 434.703 179.076 440 177.65Z" fill="white"/>
<path fill-rule="evenodd" clip-rule="evenodd" d="M67.6622 220.094C62.1582 219.996 54.2463 219.242 52.7063 217.91C52.6574 218.558 54.0752 220.599 54.6822 221.813C59.6159 231.697 66.163 243.878 80.0678 238.195C83.0297 236.989 86.8552 220.432 67.6622 220.094Z" fill="#52A63C"/>
<path fill-rule="evenodd" clip-rule="evenodd" d="M104.154 265.047C108.843 265.177 113.133 260.101 120.263 264.375C123.4 266.253 101.701 267.593 107.34 271.973C109.1 273.338 91.9927 276.344 89.3405 277.77C85.7879 279.673 84.3701 275.913 89.6746 271.936C92.392 269.899 100.092 264.929 104.154 265.047Z" fill="#7A5627"/>
<path fill-rule="evenodd" clip-rule="evenodd" d="M89.8737 220.44C77.3378 184.719 98.8571 187.477 110.635 167.901C113.21 163.619 115.235 161.305 114.75 155.947C114.742 155.862 115.219 167.347 119.704 177.059C130.024 199.414 113.911 239.311 99.3826 232.459C95.8993 230.821 91.0145 223.687 89.8737 220.44Z" fill="#52A63C"/>
<path fill-rule="evenodd" clip-rule="evenodd" d="M103.261 270.893C102.699 274.572 97.415 273.256 97.5047 270.873C97.8713 260.781 94.6121 252.992 89.5276 246.628C80.7195 235.612 66.4317 228.877 56.0225 221.903C57.4769 220.998 78.821 233.522 81.848 234.895C91.968 239.478 93.6791 238.733 99.7698 224.571C104.651 213.229 114.542 188.589 112.261 175.507C118.547 190.716 107.454 215.514 105.799 218.867C104.06 222.408 101.998 230.128 99.8024 233.233C88.2769 249.517 109.14 264.79 109.234 265.157C109.462 266.082 104.402 269.304 103.261 270.893Z" fill="#3B7D38"/>
<path fill-rule="evenodd" clip-rule="evenodd" d="M440 234.773V339.509C374.321 336.168 316.714 330.326 272.722 322.793C216.353 313.133 182.339 300.691 182.339 287.141C182.339 282.944 185.602 278.854 191.787 274.919C202.061 268.376 220.399 262.264 245.21 256.813C291.251 246.701 359.577 238.863 440 234.773Z" fill="#875B25"/>
<path fill-rule="evenodd" clip-rule="evenodd" d="M282.17 310.571C282.17 314.767 278.907 318.857 272.723 322.793C241.466 342.695 135.61 358.6 0 364.051V257.09C45.3444 258.911 87.3644 261.902 124.377 265.821C149.282 268.457 171.922 271.517 191.787 274.919C248.156 284.574 282.17 297.02 282.17 310.571Z" fill="#95652C"/>
<path fill-rule="evenodd" clip-rule="evenodd" d="M440 297.22V440H0V297.469C39.7793 284.546 82.7933 273.313 124.377 265.821C159.027 259.58 192.687 255.933 222.656 256.072C229.981 256.104 237.514 256.357 245.21 256.813C305.983 260.411 377.117 276.642 440 297.22Z" fill="#A46E2F"/>
<path fill-rule="evenodd" clip-rule="evenodd" d="M268.07 134.616C280.313 130.7 297.509 123.697 300.056 119.684C300.602 121.098 298.797 126.622 298.259 129.751C293.867 155.173 287.414 186.821 252.495 183.456C245.056 182.734 225.37 148.276 268.07 134.616Z" fill="#52A63C"/>
<path fill-rule="evenodd" clip-rule="evenodd" d="M216.663 259.686C206.262 263.136 193.257 254.658 180.18 269.011C174.431 275.322 223.862 263.727 214.19 277.322C211.171 281.563 251.456 276.789 258.341 278.186C267.565 280.06 268.208 270.694 253.676 265.361C246.237 262.635 225.667 256.699 216.663 259.686Z" fill="#7A5627"/>
<path fill-rule="evenodd" clip-rule="evenodd" d="M218.623 150.325C222.653 61.9952 176.375 82.6344 136.877 46.7663C128.24 38.9237 122.153 35.1063 119.644 22.7985C119.603 22.5989 126.252 48.6159 122.752 73.3537C114.694 130.289 177.553 208.694 205.44 183.606C212.117 177.589 218.257 158.355 218.623 150.325Z" fill="#52A63C"/>
<path fill-rule="evenodd" clip-rule="evenodd" d="M377.806 204.873C383.2 203.781 390.847 201.61 392.118 200.021C392.285 200.648 391.258 202.913 390.879 204.221C387.816 214.834 383.583 227.997 368.879 224.926C365.75 224.27 358.996 208.682 377.806 204.873Z" fill="#52A63C"/>
<path fill-rule="evenodd" clip-rule="evenodd" d="M205.39 263.352C207.395 257.033 195.136 262.509 196.382 270.539C199.039 287.662 179.552 337.223 170.797 349.604C156.204 370.244 154.285 383.452 168.585 404.47C183.349 426.172 224.66 430.43 248.127 415.678C321.187 369.738 258.072 345.441 239.091 272.193C237.755 267.039 230.417 262.138 224.954 260.492C219.735 258.916 203.512 269.276 205.39 263.352Z" fill="#7A5627"/>
<path fill-rule="evenodd" clip-rule="evenodd" d="M192.59 398.127C192.472 398.391 192.333 398.632 192.178 398.823C193.47 397.214 193.286 397.312 192.59 398.127ZM191.987 395.576C188.809 397.727 187.008 400.665 188.031 404.718C189.196 409.322 188.642 404.657 189.306 402.881C189.787 401.606 191.653 399.218 192.59 398.127C193.234 396.729 193.335 394.66 191.987 395.576ZM254.471 354.477C253.933 352.448 252.968 350.599 251.635 348.944C244.583 340.177 227.264 336.918 208.984 341.766C187.693 347.413 172.989 361.957 175.589 374.57C175.642 374.831 175.703 375.092 175.772 375.353C179.162 388.133 199.532 393.824 221.263 388.06C242.994 382.299 257.865 367.261 254.471 354.477ZM238.452 392.716C231.432 393.588 231.078 402.29 234.541 406.124C236.044 407.79 234.101 405.158 234.052 403.504C233.905 398.363 235.013 397.389 239.095 395.246C241.894 393.78 241.666 393.621 241.801 392.59C242.171 392.541 242.379 392.187 242.367 391.791C242.257 387.958 239.535 392.586 238.452 392.716ZM224.93 396.387C225.113 396.114 224.995 395.409 224.848 395.189C223.386 392.953 221.984 396.024 220.387 396.546C216.798 397.719 211.045 397.226 209.416 398.037C204.335 400.571 205.203 404.336 206.185 408.564C206.218 408.711 206.25 408.85 206.275 408.98C206.556 407.358 207.688 404.735 211.274 402.201C215.759 399.027 218.884 400.991 222.436 400.103C225.806 399.267 224.869 397.116 224.689 395.438L224.93 396.387ZM206.275 408.98C205.953 410.846 206.764 411.396 206.275 408.98V408.98ZM177.275 389.266C171.099 389.266 172.289 401.076 172.729 397.939C173.14 394.965 178.159 391.009 180.201 391.523L179.369 391.995C179.789 392.48 179.488 392.83 180.526 391.791C183.541 388.773 179.048 389.266 177.275 389.266ZM252.242 375.287C252.263 375.463 252.299 375.617 252.365 375.711C254.907 379.512 249.965 382.511 251.741 386.626C255.355 395.002 251.692 386.088 254.222 383.334C258.684 378.486 255.485 372.407 252.242 375.287ZM252.214 374.436C252.214 374.636 252.206 374.978 252.242 375.267L252.214 374.436Z" fill="#ECC52E"/>
<path fill-rule="evenodd" clip-rule="evenodd" d="M350.053 255.685C345.465 256.663 340.328 252.446 334.09 257.942C331.349 260.358 352.929 257.746 348.175 263.075C346.692 264.737 364.059 264.599 366.923 265.52C370.761 266.75 371.474 262.794 365.542 259.844C362.499 258.329 354.025 254.837 350.053 255.685Z" fill="#7A5627"/>
<path fill-rule="evenodd" clip-rule="evenodd" d="M237.006 208.666C249.305 178.102 276.736 153.434 295.326 130.843C291.464 129.8 252.149 172.158 246.294 177.259C226.739 194.317 222.412 193.796 199.276 166.218C180.743 144.129 142.055 95.6633 138.36 64.8715C134.526 103.119 176.009 151.12 181.957 157.512C188.231 164.259 198.029 180.143 205.028 185.611C245.83 217.47 195.124 247.496 207.823 297.587C210.63 308.66 224.502 319.073 225.505 336.274C225.757 340.605 225.655 343.143 222.416 346.382C219.862 348.936 220.913 348.386 226.515 350.313C228.34 350.941 240.574 356.848 241.124 350.533C241.304 348.464 242.909 347.914 242.909 340.866C242.905 299.75 200.787 298.658 237.006 208.666Z" fill="#3B7D38"/>
<path fill-rule="evenodd" clip-rule="evenodd" d="M187.533 382.458C188.03 386.613 182.457 385.122 178.045 391.062C175.69 394.232 175.8 401.586 178.802 404.262C181.544 406.707 178.937 405.57 184.368 409.257C192.988 415.107 181.838 407.705 181.838 400.424C181.838 394.88 182.261 393.661 187.912 390.643C195.649 386.507 190.805 388.61 194.724 384.462C195.563 383.574 204.644 384.764 193.987 393.657C191.371 395.841 191.037 408.52 194.997 410.984C197.323 412.435 201.259 416.741 201.071 419.149C202.151 418.925 202.391 413.808 201.006 411.327C197.755 405.493 194.569 403.362 197.947 395.617C199.996 390.92 204.327 392.313 205.944 384.21C207.492 376.444 216.382 380.103 219.291 387.269C224.127 399.21 220.668 408.1 209.655 414.765C208.494 415.47 215.779 416.093 223.067 408.801C228.535 403.329 231.391 397.296 226.95 390.076C223.678 384.751 236.28 373.14 241.12 395.478C242.615 402.368 237.893 409.302 231.945 412.553C227.838 414.798 231.607 413.665 226.4 415.168C222.134 416.403 225.21 416.994 230.788 414.83C240.688 410.984 247.125 405.252 247.125 394.419C247.125 388.536 233.77 374.521 251.219 375.104C256.116 375.267 258.919 385.929 257.314 390.056C255.652 394.326 259.526 387.705 259.526 382.466C259.526 377.471 258.341 372.354 254.148 369.372C251.521 367.51 240.362 375.654 226.987 369.327C220.395 366.21 213.025 365.514 206.771 369.559C200.346 373.719 187.423 374.79 187.158 381.728C187.134 382.217 187.476 381.989 187.533 382.458Z" fill="#ECC52E"/>
<path fill-rule="evenodd" clip-rule="evenodd" d="M356.025 209.236C361.892 171.836 341.224 178.444 326.101 161.321C322.793 157.577 320.381 155.666 319.892 150.313C319.884 150.227 321.489 161.61 318.841 171.975C312.738 195.825 335.802 232.149 348.847 222.783C351.976 220.534 355.492 212.638 356.025 209.236Z" fill="#52A63C"/>
<path fill-rule="evenodd" clip-rule="evenodd" d="M351.983 261.278C353.202 264.794 358.16 262.541 357.642 260.215C355.455 250.36 357.251 242.106 361.105 234.927C367.775 222.497 380.608 213.29 389.583 204.547C387.99 203.924 369.266 220.102 366.536 222C357.41 228.34 355.597 227.916 347.046 215.091C340.197 204.82 326.007 182.372 325.885 169.094C322.455 185.191 337.855 207.57 340.083 210.568C342.434 213.734 345.86 220.957 348.582 223.61C362.861 237.539 345.11 256.333 345.082 256.716C345.017 257.665 350.578 259.922 351.983 261.278Z" fill="#3B7D38"/>
<path fill-rule="evenodd" clip-rule="evenodd" d="M152.639 19.0911C145.155 17.8241 154.375 22.4278 138.074 27.0356C124.984 30.7348 120.996 18.1744 117.745 24.0004C115.598 27.8463 109.144 29.3211 101.673 29.3619C99.4482 35.7948 93.3248 37.5711 86.7493 37.5711C77.2933 37.5711 66.9085 33.9004 65.8207 35.1063C56.4667 45.4707 30.7796 40.643 31.8593 28.4533C32.0589 26.1719 17.2863 36.4874 6.12333 29.7978C2.6237 27.6996 0.90037 26.4082 0 25.7482V0H175.369C178.954 9.37445 173.075 22.5419 152.639 19.0911Z" fill="white"/>
<path fill-rule="evenodd" clip-rule="evenodd" d="M218.244 381.749C199.96 386.597 182.641 383.342 175.589 374.57C172.989 361.957 187.693 347.413 208.984 341.766C227.264 336.918 244.583 340.177 251.635 348.944C254.243 361.554 239.535 376.102 218.244 381.749Z" fill="#FFDE66"/>
<path fill-rule="evenodd" clip-rule="evenodd" d="M202.86 348.236C210.968 346.084 218.562 348.207 219.825 352.978C221.088 357.744 215.543 363.354 207.44 365.501C199.332 367.653 191.738 365.53 190.475 360.759C189.208 355.997 194.753 350.387 202.86 348.236Z" fill="#FFECA4"/>
</svg>
