<svg width="440" height="440" viewBox="0 0 440 440" fill="none" xmlns="http://www.w3.org/2000/svg">
<path d="M440 0H0V440H440V0Z" fill="#D0E9FF"/>
<path opacity="0.62" fill-rule="evenodd" clip-rule="evenodd" d="M329.312 437.69C284.073 438.843 247.296 439.315 210.858 440H0V338.902C6.53074 337.317 13.7133 335.769 21.5111 334.371C22.5989 334.176 23.6948 333.984 24.807 333.797C26.3837 333.528 27.9848 333.267 29.6104 333.015C38.553 331.613 48.2085 330.436 58.5282 329.617C64.46 329.148 70.6119 328.794 76.9715 328.59C134.905 326.732 210.137 337.028 295.097 379.805C308.562 386.589 322.276 394.187 336.205 402.681C369.307 422.877 471.02 434.084 329.312 437.69Z" fill="#6EC358"/>
<path d="M40.8055 357.74C51.6575 357.74 60.4548 348.943 60.4548 338.091C60.4548 327.239 51.6575 318.442 40.8055 318.442C29.9535 318.442 21.1562 327.239 21.1562 338.091C21.1562 348.943 29.9535 357.74 40.8055 357.74Z" fill="url(#paint0_linear)"/>
<path fill-rule="evenodd" clip-rule="evenodd" d="M36.7522 305.886V305.922C36.7481 309.133 36.4711 312.282 35.9374 315.346C35.8437 315.892 35.7419 316.433 35.6319 316.975C35.473 317.753 35.2978 318.523 35.1063 319.285C33.8881 324.146 32.0222 328.753 29.6104 333.015C29.0319 334.037 28.4207 335.04 27.777 336.022C26.0374 338.682 24.0778 341.183 21.9185 343.502C15.9296 349.93 8.43333 354.942 0 357.952V253.819C1.32 254.292 2.61963 254.813 3.89074 255.383C13.4363 259.637 21.5641 266.522 27.3493 275.11V275.114C27.94 275.986 28.5022 276.87 29.04 277.779C33.937 286.02 36.7522 295.635 36.7522 305.886Z" fill="#8EAC34"/>
<path fill-rule="evenodd" clip-rule="evenodd" d="M35.9741 333.076L41.0259 338.629L38.4715 340.955L26.6648 351.703L0 375.976V365.827L22.5378 345.31L30.7552 337.83L35.9741 333.076Z" fill="#AF7A34"/>
<path fill-rule="evenodd" clip-rule="evenodd" d="M54.9878 303.156L43.6456 310.416L35.9374 315.345L28.213 320.291C28.213 320.291 28.2089 320.291 28.2048 320.295L18.2193 326.688L0 338.348V329.442L12.5196 321.432H12.5237L14.52 320.149L36.7522 305.922L50.7344 296.975L51.0726 297.464L54.9878 303.156Z" fill="#AF7A34"/>
<path fill-rule="evenodd" clip-rule="evenodd" d="M51.2437 231.994V232.255C51.1948 243.389 48.0048 253.803 42.513 262.656C40.8181 265.393 38.9074 267.976 36.797 270.388C36.793 270.388 36.793 270.392 36.793 270.392C36.3448 270.901 35.8926 271.399 35.4363 271.891C33.4481 274.01 31.3133 275.978 29.04 277.779C25.5811 280.52 21.8044 282.883 17.7793 284.794H17.7752C12.263 287.414 6.2863 289.194 0 289.968V174.024C28.8119 177.573 51.2437 202.249 51.2437 231.994Z" fill="url(#paint1_linear)"/>
<path fill-rule="evenodd" clip-rule="evenodd" d="M52.8405 279.543C65.8816 279.543 76.5149 268.905 76.5149 255.868C76.5149 242.831 65.8816 232.198 52.8405 232.198C39.7993 232.198 29.166 242.831 29.166 255.868C29.166 268.905 39.7993 279.543 52.8405 279.543Z" fill="url(#paint2_linear)"/>
<path fill-rule="evenodd" clip-rule="evenodd" d="M48.3189 342.3C68.6323 342.3 85.1975 325.734 85.1975 305.421C85.1975 285.108 68.6323 268.543 48.3189 268.543C28.0056 268.543 11.4404 285.108 11.4404 305.421C11.4404 325.73 28.0056 342.3 48.3189 342.3Z" fill="url(#paint3_linear)"/>
<path fill-rule="evenodd" clip-rule="evenodd" d="M52.6452 287.133C52.6452 290.726 52.0952 294.197 51.0726 297.464C49.553 302.325 46.9863 306.729 43.6456 310.416C41.3193 312.978 38.6222 315.195 35.6319 316.975C33.3178 318.356 30.8326 319.477 28.213 320.291C28.213 320.291 28.2089 320.291 28.2048 320.295C24.9578 321.306 21.503 321.852 17.9259 321.852C17.0337 321.852 16.1456 321.819 15.2696 321.75C14.3448 321.681 13.4281 321.575 12.5237 321.432H12.5196C8.00148 320.719 3.76852 319.13 0 316.845V257.416C1.24667 256.658 2.5463 255.978 3.89074 255.383C8.18482 253.473 12.9352 252.409 17.9259 252.409C21.8778 252.409 25.6789 253.073 29.2193 254.304C34.2793 256.051 38.8137 258.936 42.513 262.655C44.2893 264.44 45.8741 266.42 47.2348 268.555C49.3493 271.871 50.9137 275.57 51.7978 279.518C52.3519 281.971 52.6452 284.517 52.6452 287.133Z" fill="url(#paint4_linear)"/>
<path fill-rule="evenodd" clip-rule="evenodd" d="M118.348 77.8719C110.864 76.6048 120.083 81.2126 103.783 85.8163C90.693 89.5156 86.7044 76.9552 83.4493 82.7811C81.3063 86.627 74.8489 88.1019 67.3811 88.1426C65.1567 94.5756 59.0333 96.3519 52.4537 96.3519C43.0018 96.3519 32.617 92.6811 31.5252 93.887C24.1267 102.084 6.5063 100.78 0 93.8422V0H16.3044C17.987 2.37111 19.2785 6.18037 19.747 12.1326C20.0119 15.51 25.3774 7.19074 30.6574 16.8707C32.2341 19.7674 33.2485 21.9837 33.8718 23.6419C35.3467 21.6089 39.4126 19.7185 49.0641 20.1911C76.0181 21.5111 60.8667 40.203 74.7674 31.297C76.45 30.2215 93.7485 30.4415 95.9037 39.5715C96.3804 41.5841 109.144 33.607 113.61 49.4144C115.785 57.1185 109.556 49.1496 129.364 50.1233C146.903 50.983 148.928 83.0419 118.348 77.8719Z" fill="#FDFDFD"/>
<path fill-rule="evenodd" clip-rule="evenodd" d="M440 382.405V440H0V387.575C72.437 384.804 189.281 380.437 295.097 379.806C348.606 379.488 399.296 380.123 440 382.405Z" fill="#71AF4D"/>
<path fill-rule="evenodd" clip-rule="evenodd" d="M136.999 209.175H294.441L402.51 249.973H29.6182L136.999 209.175Z" fill="#925D33"/>
<path fill-rule="evenodd" clip-rule="evenodd" d="M164.014 167.746H268.119L294.442 209.175H136.999L164.014 167.746Z" fill="#9D6633"/>
<path fill-rule="evenodd" clip-rule="evenodd" d="M153.12 142.927C155.295 148.357 158.184 153.796 164.751 161.048H164.01V167.742H165.9L157.899 179.17C151.307 169.001 153.12 151.881 153.12 142.927Z" fill="#976233"/>
<path d="M331.083 249.973H101.045V354.656H331.083V249.973Z" fill="#AD7131"/>
<path fill-rule="evenodd" clip-rule="evenodd" d="M279.632 142.927C277.457 148.357 274.568 153.796 268.001 161.048H268.119V167.742H266.229L274.548 179.626C281.502 169.522 279.632 152.02 279.632 142.927Z" fill="#976233"/>
<path d="M268.119 161.048H164.014V167.742H268.119V161.048Z" fill="#8D5C33"/>
<path fill-rule="evenodd" clip-rule="evenodd" d="M125.677 269.178H160.001V313.977H125.677V269.178ZM152.219 276.956H133.458V306.191H152.219V276.956Z" fill="#784F31"/>
<path d="M78.5523 249.973H66.1875V366.459H78.5523V249.973Z" fill="#9D6633"/>
<path d="M365.942 249.973H353.577V366.459H365.942V249.973Z" fill="#9D6633"/>
<path fill-rule="evenodd" clip-rule="evenodd" d="M272.336 269.178H306.66V313.977H272.336V269.178ZM298.879 276.956H280.117V306.191H298.879V276.956Z" fill="#784F31"/>
<path d="M162.752 249.973H150.387V366.459H162.752V249.973Z" fill="#9D6633"/>
<path d="M281.743 249.973H269.378V366.459H281.743V249.973Z" fill="#9D6633"/>
<path d="M150.386 323.49H78.5518V354.652H150.386V323.49Z" fill="#C88033"/>
<path d="M353.576 323.49H281.742V354.652H353.576V323.49Z" fill="#C88033"/>
<path d="M249.956 269.162H182.176V354.656H249.956V269.162Z" fill="#764F31"/>
<path d="M374.994 354.656H57.1348V366.459H374.994V354.656Z" fill="#A76E32"/>
<path d="M391.995 366.459H40.1377V378.261H391.995V366.459Z" fill="#A76E32"/>
<path d="M404.27 378.262H27.8584V390.064H404.27V378.262Z" fill="#A76E32"/>
<path d="M400.974 357.74C411.826 357.74 420.624 348.943 420.624 338.091C420.624 327.239 411.826 318.442 400.974 318.442C390.122 318.442 381.325 327.239 381.325 338.091C381.325 348.943 390.122 357.74 400.974 357.74Z" fill="url(#paint5_linear)"/>
<path fill-rule="evenodd" clip-rule="evenodd" d="M439.999 254.491V357.284C432.287 354.224 425.418 349.474 419.857 343.497C417.698 341.183 415.738 338.682 414.003 336.021C410.686 330.953 408.181 325.315 406.669 319.285C406.478 318.523 406.303 317.753 406.148 316.975C406.034 316.437 405.932 315.896 405.838 315.35C405.305 312.286 405.028 309.137 405.023 305.922V305.886C405.023 295.635 407.839 286.02 412.74 277.779C413.278 276.87 413.84 275.982 414.426 275.11C420.212 266.522 428.343 259.637 437.889 255.383C438.586 255.07 439.286 254.772 439.999 254.491Z" fill="#8EAC34"/>
<path fill-rule="evenodd" clip-rule="evenodd" d="M405.838 315.35L398.13 310.416L386.788 303.156L390.703 297.469L391.046 296.976L405.024 305.922L427.256 320.149L429.256 321.432L440 328.305V337.211L423.557 326.688L413.567 320.291C413.567 320.291 413.567 320.291 413.563 320.291L405.838 315.35Z" fill="#AF7A34"/>
<path fill-rule="evenodd" clip-rule="evenodd" d="M440 364.21V374.358L415.115 351.707L403.309 340.955L400.75 338.629L405.806 333.076L411.025 337.826L419.238 345.306L440 364.21Z" fill="#AF7A34"/>
<path fill-rule="evenodd" clip-rule="evenodd" d="M440 174.273V289.72C434.365 288.852 428.991 287.169 424.005 284.798C419.976 282.887 416.199 280.524 412.74 277.779C410.467 275.978 408.328 274.01 406.344 271.891C405.879 271.399 405.427 270.897 404.983 270.388C402.873 267.976 400.958 265.389 399.263 262.656C393.771 253.803 390.581 243.389 390.532 232.255V231.994C390.532 202.864 412.047 178.595 440 174.273Z" fill="url(#paint6_linear)"/>
<path fill-rule="evenodd" clip-rule="evenodd" d="M388.939 279.543C401.98 279.543 412.614 268.905 412.614 255.868C412.614 242.831 401.98 232.198 388.939 232.198C375.898 232.198 365.265 242.831 365.265 255.868C365.265 268.905 375.898 279.543 388.939 279.543Z" fill="url(#paint7_linear)"/>
<path fill-rule="evenodd" clip-rule="evenodd" d="M393.462 342.3C413.775 342.3 430.34 325.734 430.34 305.421C430.34 285.108 413.775 268.543 393.462 268.543C373.148 268.543 356.583 285.108 356.583 305.421C356.579 325.73 373.148 342.3 393.462 342.3Z" fill="url(#paint8_linear)"/>
<path fill-rule="evenodd" clip-rule="evenodd" d="M440 256.41V317.851C436.696 319.603 433.078 320.829 429.256 321.432C428.352 321.575 427.435 321.681 426.51 321.75C425.635 321.819 424.746 321.852 423.854 321.852C420.277 321.852 416.822 321.306 413.567 320.291C413.567 320.291 413.567 320.291 413.563 320.291C410.948 319.477 408.462 318.36 406.148 316.975C403.158 315.199 400.457 312.983 398.13 310.416C394.79 306.729 392.227 302.325 390.703 297.468C389.681 294.201 389.131 290.73 389.131 287.133C389.131 284.517 389.424 281.971 389.978 279.518C390.862 275.57 392.427 271.871 394.541 268.555C395.902 266.42 397.487 264.44 399.263 262.655C402.966 258.936 407.501 256.047 412.561 254.3C416.105 253.073 419.902 252.409 423.854 252.409C428.845 252.409 433.595 253.473 437.889 255.383C438.606 255.701 439.311 256.043 440 256.41Z" fill="url(#paint9_linear)"/>
<path fill-rule="evenodd" clip-rule="evenodd" d="M440 84.5044V157.316C435.877 158.119 430.01 159.382 424.465 159.382C417.886 159.382 411.762 157.606 409.538 151.173C402.066 151.128 395.613 149.657 393.466 145.811C390.214 139.985 386.226 152.541 373.136 148.846C356.836 144.239 366.055 139.635 358.571 140.902C327.991 146.072 330.012 114.013 347.555 113.149C367.363 112.18 361.134 120.149 363.309 112.444C367.774 96.637 380.539 104.614 381.015 102.597C383.17 93.4715 400.469 93.2515 402.147 94.327C416.052 103.233 400.897 84.5411 427.855 83.2211C433.774 82.9319 437.592 83.5307 440 84.5044Z" fill="#FDFDFD"/>
<path fill-rule="evenodd" clip-rule="evenodd" d="M97.4513 335.545C110.476 336.633 112.318 377.508 112.281 386.817C112.257 392.834 112.391 399.145 111.364 405.138H109.315C106.577 401.606 103.542 396.953 101.334 393.963C96.7424 387.734 89.0954 374.778 81.6113 372.586C89.0343 369.038 103.017 390.659 105.958 395.731L106.072 395.931C104.997 392.794 103.982 389.734 103.094 387.347C99.6595 378.115 94.848 359.578 86.4554 354.265C96.7832 352.526 106.312 383.892 108.129 391.127L108.28 391.726C107.958 387.693 107.681 383.786 107.351 380.694C106.056 368.463 105.958 344.561 97.4513 335.545Z" fill="#759E54"/>
<path fill-rule="evenodd" clip-rule="evenodd" d="M118.779 362.931C110.879 363.587 109.763 388.381 109.783 394.028C109.796 397.678 109.714 401.504 110.338 405.138H111.58C113.242 402.995 115.084 400.176 116.42 398.359C119.207 394.582 123.843 386.723 128.382 385.391C123.88 383.24 115.398 396.354 113.613 399.426L113.544 399.548C114.196 397.646 114.811 395.788 115.349 394.342C117.431 388.74 120.352 377.5 125.44 374.277C119.178 373.222 113.397 392.248 112.293 396.635L112.199 396.998C112.395 394.55 112.562 392.182 112.762 390.304C113.56 382.894 113.617 368.398 118.779 362.931Z" fill="#759E54"/>
<path fill-rule="evenodd" clip-rule="evenodd" d="M79.8678 369.237C86.7856 368.084 93.133 389.107 94.343 393.955C95.1252 397.088 96.0256 400.351 96.2822 403.606L95.2148 403.875C93.3244 402.396 91.1326 400.38 89.5885 399.113C86.3781 396.477 80.6948 390.748 76.5107 390.594C79.9044 387.77 90.0285 397.173 92.2244 399.422L92.31 399.512C91.3363 398.021 90.4074 396.562 89.6293 395.438C86.6267 391.087 81.6807 382.079 76.6126 380.421C81.7541 378.155 90.8474 393.217 92.7459 396.741L92.9048 397.031C92.2041 394.973 91.5481 392.981 90.9656 391.413C88.6841 385.224 85.4818 372.802 79.8678 369.237Z" fill="#759E54"/>
<path fill-rule="evenodd" clip-rule="evenodd" d="M94.5753 380.669C90.5542 382.054 93.239 395.096 93.9968 398.033C94.4857 399.931 94.9461 401.932 95.7487 403.741L96.3965 403.578C96.979 402.246 97.5657 400.534 98.022 399.414C98.9713 397.084 100.348 392.382 102.536 391.091C99.9124 390.565 97.2276 398.506 96.7061 400.339L96.6857 400.412C96.7753 399.337 96.8487 398.29 96.9383 397.467C97.2846 394.281 97.3213 388.047 99.5416 385.701C96.1439 385.978 95.6468 396.636 95.6509 399.064V399.259C95.4309 397.96 95.2068 396.705 95.0602 395.703C94.4939 391.743 92.6116 384.193 94.5753 380.669Z" fill="#759E54"/>
<path fill-rule="evenodd" clip-rule="evenodd" d="M329.116 350.529C319.595 351.324 318.246 381.207 318.275 388.015C318.291 392.415 318.193 397.027 318.943 401.406H320.442C322.443 398.823 324.663 395.426 326.276 393.238C329.633 388.683 335.223 379.215 340.695 377.61C335.268 375.014 325.046 390.822 322.895 394.529L322.809 394.676C323.596 392.382 324.337 390.146 324.985 388.402C327.495 381.651 331.015 368.101 337.15 364.218C329.601 362.947 322.634 385.88 321.302 391.168L321.192 391.604C321.428 388.654 321.632 385.799 321.872 383.537C322.826 374.595 322.895 357.121 329.116 350.529Z" fill="#759E54"/>
<path fill-rule="evenodd" clip-rule="evenodd" d="M313.52 370.549C319.297 371.03 320.112 389.156 320.096 393.283C320.083 395.951 320.145 398.75 319.688 401.406H318.78C317.566 399.838 316.217 397.776 315.239 396.452C313.202 393.69 309.813 387.946 306.492 386.972C309.784 385.399 315.985 394.986 317.289 397.235L317.342 397.324C316.865 395.931 316.417 394.574 316.022 393.519C314.498 389.424 312.367 381.207 308.643 378.852C313.223 378.082 317.447 391.991 318.254 395.197L318.323 395.462C318.181 393.674 318.059 391.942 317.912 390.569C317.338 385.147 317.293 374.546 313.52 370.549Z" fill="#759E54"/>
<path fill-rule="evenodd" clip-rule="evenodd" d="M341.97 375.161C336.91 374.318 332.274 389.685 331.389 393.23C330.819 395.519 330.159 397.907 329.972 400.286L330.75 400.481C332.131 399.402 333.732 397.927 334.861 397.002C337.207 395.075 341.363 390.887 344.422 390.773C341.941 388.707 334.539 395.584 332.934 397.226L332.872 397.291C333.585 396.2 334.266 395.136 334.832 394.313C337.028 391.131 340.642 384.548 344.349 383.338C340.589 381.68 333.944 392.692 332.555 395.267L332.441 395.478C332.954 393.975 333.435 392.517 333.858 391.372C335.525 386.85 337.863 377.769 341.97 375.161Z" fill="#759E54"/>
<path fill-rule="evenodd" clip-rule="evenodd" d="M331.218 383.517C334.16 384.527 332.196 394.065 331.642 396.208C331.283 397.593 330.945 399.056 330.359 400.38L329.886 400.262C329.462 399.288 329.034 398.037 328.7 397.218C328.004 395.511 326.997 392.077 325.4 391.136C327.319 390.753 329.283 396.554 329.662 397.899L329.678 397.952C329.613 397.165 329.56 396.399 329.495 395.796C329.242 393.466 329.218 388.907 327.588 387.192C330.073 387.396 330.436 395.185 330.432 396.962V397.108C330.595 396.159 330.758 395.242 330.864 394.509C331.279 391.612 332.652 386.096 331.218 383.517Z" fill="#759E54"/>
<path fill-rule="evenodd" clip-rule="evenodd" d="M388.251 313.076C372.839 314.36 370.659 362.727 370.7 373.743C370.728 380.861 370.569 388.329 371.783 395.418H374.208C377.446 391.238 381.04 385.733 383.651 382.193C389.086 374.823 398.13 359.492 406.987 356.897C398.208 352.701 381.659 378.282 378.18 384.283L378.041 384.519C379.316 380.804 380.514 377.186 381.565 374.363C385.627 363.436 391.323 341.505 401.251 335.219C389.033 333.162 377.756 370.276 375.605 378.836L375.426 379.541C375.809 374.77 376.135 370.146 376.526 366.488C378.07 352.025 378.184 323.742 388.251 313.076Z" fill="#759E54"/>
<path fill-rule="evenodd" clip-rule="evenodd" d="M363.012 345.477C372.358 346.256 373.682 375.593 373.654 382.274C373.637 386.593 373.731 391.119 372.998 395.422H371.527C369.563 392.887 367.384 389.551 365.799 387.4C362.503 382.93 357.019 373.633 351.646 372.057C356.97 369.51 367.009 385.029 369.119 388.667L369.201 388.809C368.431 386.556 367.701 384.36 367.062 382.649C364.597 376.021 361.142 362.719 355.121 358.91C362.531 357.663 369.372 380.172 370.675 385.363L370.785 385.79C370.553 382.894 370.354 380.091 370.117 377.874C369.188 369.099 369.119 351.947 363.012 345.477Z" fill="#759E54"/>
<path fill-rule="evenodd" clip-rule="evenodd" d="M409.054 352.937C400.869 351.576 393.36 376.445 391.93 382.181C391.006 385.888 389.938 389.75 389.637 393.6L390.896 393.918C393.132 392.17 395.727 389.783 397.553 388.284C401.35 385.167 408.076 378.384 413.026 378.2C409.013 374.86 397.031 385.986 394.432 388.646L394.33 388.752C395.483 386.988 396.583 385.265 397.504 383.933C401.056 378.783 406.911 368.125 412.904 366.166C406.817 363.485 396.062 381.305 393.813 385.473L393.625 385.815C394.452 383.383 395.234 381.02 395.919 379.17C398.624 371.857 402.409 357.162 409.054 352.937Z" fill="#759E54"/>
<path fill-rule="evenodd" clip-rule="evenodd" d="M391.652 366.467C396.411 368.105 393.233 383.537 392.341 387.013C391.762 389.257 391.217 391.624 390.267 393.763L389.501 393.568C388.813 391.991 388.12 389.966 387.578 388.642C386.454 385.884 384.824 380.323 382.237 378.795C385.342 378.172 388.52 387.567 389.139 389.738L389.163 389.824C389.057 388.549 388.968 387.314 388.862 386.336C388.454 382.564 388.41 375.19 385.782 372.411C389.803 372.737 390.394 385.35 390.385 388.223V388.459C390.646 386.923 390.911 385.436 391.082 384.254C391.75 379.569 393.979 370.635 391.652 366.467Z" fill="#759E54"/>
<path fill-rule="evenodd" clip-rule="evenodd" d="M36.5493 343.73C45.8952 344.508 47.2193 373.845 47.1908 380.527C47.1745 384.845 47.2722 389.372 46.5348 393.674H45.0641C43.1004 391.14 40.9208 387.803 39.336 385.652C36.0441 381.179 30.5563 371.882 25.1826 370.309C30.5074 367.763 40.5459 383.281 42.6563 386.919L42.7378 387.062C41.9678 384.809 41.2385 382.613 40.5989 380.902C38.1341 374.273 34.6793 360.971 28.6578 357.162C36.0685 355.915 42.9089 378.425 44.2126 383.615L44.3226 384.043C44.0904 381.146 43.8908 378.343 43.6545 376.127C42.7256 367.351 42.6563 350.199 36.5493 343.73Z" fill="#759E54"/>
<path fill-rule="evenodd" clip-rule="evenodd" d="M51.8589 363.379C46.1878 363.851 45.3893 381.643 45.4015 385.697C45.4137 388.316 45.3526 391.062 45.8008 393.67H46.693C47.8826 392.134 49.2067 390.109 50.1682 388.805C52.1685 386.096 55.493 380.453 58.7522 379.5C55.5215 377.956 49.4348 387.367 48.1556 389.575L48.1067 389.661C48.5752 388.296 49.0152 386.964 49.4022 385.925C50.8974 381.908 52.9915 373.837 56.6419 371.527C52.1482 370.769 47.9967 384.422 47.2063 387.571L47.1411 387.832C47.2797 386.076 47.4019 384.377 47.5445 383.028C48.1108 377.707 48.1556 367.302 51.8589 363.379Z" fill="#759E54"/>
<path fill-rule="evenodd" clip-rule="evenodd" d="M23.9315 367.905C28.8978 367.078 33.4486 382.165 34.3164 385.644C34.8786 387.893 35.5223 390.235 35.7056 392.57L34.9397 392.765C33.583 391.706 32.0104 390.256 30.9023 389.347C28.6004 387.457 24.5182 383.342 21.5156 383.232C23.9519 381.203 31.216 387.954 32.7927 389.567L32.8538 389.632C32.1571 388.561 31.489 387.518 30.9308 386.707C28.7756 383.586 25.2271 377.121 21.589 375.931C25.2801 374.306 31.8067 385.114 33.1675 387.64L33.2815 387.848C32.7804 386.373 32.3078 384.939 31.8923 383.819C30.2586 379.378 27.9608 370.464 23.9315 367.905Z" fill="#759E54"/>
<path fill-rule="evenodd" clip-rule="evenodd" d="M34.4871 376.11C31.5986 377.105 33.5257 386.463 34.0716 388.569C34.4219 389.93 34.756 391.368 35.3305 392.663L35.7949 392.545C36.2105 391.588 36.6342 390.362 36.9601 389.559C37.6445 387.885 38.6305 384.511 40.199 383.586C38.3168 383.208 36.3897 388.907 36.0149 390.223L35.9986 390.276C36.0638 389.502 36.1168 388.752 36.1819 388.162C36.4305 385.876 36.4549 381.403 38.052 379.716C35.6157 379.916 35.2571 387.563 35.2612 389.306V389.449C35.1023 388.516 34.9394 387.616 34.8375 386.899C34.426 384.055 33.0775 378.64 34.4871 376.11Z" fill="#759E54"/>
<path fill-rule="evenodd" clip-rule="evenodd" d="M67.8411 194.064C64.9566 191.579 49.8296 190.227 54.7226 197.197C58.8374 203.056 70.1837 202.591 70.0737 203.109C67.8166 213.412 82.2918 220.008 76.2907 205.802C74.6937 202.021 74.0989 202.62 79.4114 206.356C84.3003 209.794 84.9563 210.063 89.6944 208.059C91.7029 207.211 87.8814 199.401 79.3218 199.169C84.9481 177.32 67.947 171.148 67.8411 194.064Z" fill="#EBE236"/>
<path fill-rule="evenodd" clip-rule="evenodd" d="M67.6535 193.103C68.118 192.732 70.5013 194.953 72.9743 198.061C75.4472 201.17 77.0769 203.989 76.6124 204.356C76.148 204.726 73.7646 202.506 71.2917 199.397C68.8147 196.293 67.185 193.474 67.6535 193.103Z" fill="#8F891F"/>
<path fill-rule="evenodd" clip-rule="evenodd" d="M372.158 289.308C375.043 286.823 390.17 285.47 385.277 292.441C381.162 298.3 369.816 297.835 369.926 298.353C372.183 308.656 357.708 315.252 363.709 301.045C365.306 297.265 365.9 297.864 360.588 301.6C355.699 305.038 355.043 305.307 350.305 303.302C348.296 302.455 352.118 294.645 360.678 294.413C355.051 272.568 372.052 266.396 372.158 289.308Z" fill="#EBE236"/>
<path fill-rule="evenodd" clip-rule="evenodd" d="M372.346 288.351C371.881 287.98 369.498 290.2 367.025 293.309C364.552 296.417 362.922 299.237 363.387 299.603C363.851 299.974 366.234 297.754 368.707 294.645C371.184 291.537 372.814 288.721 372.346 288.351Z" fill="#8F891F"/>
<path fill-rule="evenodd" clip-rule="evenodd" d="M330.199 34.0796C333.084 31.5944 348.211 30.2418 343.318 37.2126C339.207 43.0711 327.857 42.6066 327.967 43.124C330.224 53.4274 315.749 60.0233 321.75 45.817C323.347 42.0363 323.942 42.6351 318.629 46.3711C313.74 49.8096 313.084 50.0785 308.346 48.074C306.337 47.2266 310.159 39.4166 318.719 39.1844C313.092 17.3392 330.093 11.167 330.199 34.0796Z" fill="#EBE236"/>
<path fill-rule="evenodd" clip-rule="evenodd" d="M330.391 33.1222C329.926 32.7514 327.543 34.9718 325.07 38.0803C322.597 41.1888 320.967 44.0081 321.432 44.3747C321.896 44.7455 324.279 42.5251 326.752 39.4166C329.225 36.3081 330.855 33.4929 330.391 33.1222Z" fill="#8F891F"/>
<defs>
<linearGradient id="paint0_linear" x1="32.9008" y1="303.75" x2="3.61797" y2="176.536" gradientUnits="userSpaceOnUse">
<stop stop-color="#88C540"/>
<stop offset="1" stop-color="#CBDB2A"/>
</linearGradient>
<linearGradient id="paint1_linear" x1="31.8064" y1="284.524" x2="3.40701" y2="161.148" gradientUnits="userSpaceOnUse">
<stop stop-color="#88C540"/>
<stop offset="1" stop-color="#CBDB2A"/>
</linearGradient>
<linearGradient id="paint2_linear" x1="48.7794" y1="270.967" x2="61.682" y2="222.996" gradientUnits="userSpaceOnUse">
<stop stop-color="#8CAB3F"/>
<stop offset="1" stop-color="#CBDB2A"/>
</linearGradient>
<linearGradient id="paint3_linear" x1="47.8112" y1="303.213" x2="0.897153" y2="99.4037" gradientUnits="userSpaceOnUse">
<stop stop-color="#88C540"/>
<stop offset="1" stop-color="#CBDB2A"/>
</linearGradient>
<linearGradient id="paint4_linear" x1="31.0804" y1="320.689" x2="13.6736" y2="245.068" gradientUnits="userSpaceOnUse">
<stop stop-color="#88C540"/>
<stop offset="1" stop-color="#CBDB2A"/>
</linearGradient>
<linearGradient id="paint5_linear" x1="408.878" y1="303.749" x2="438.161" y2="176.536" gradientUnits="userSpaceOnUse">
<stop stop-color="#88C540"/>
<stop offset="1" stop-color="#CBDB2A"/>
</linearGradient>
<linearGradient id="paint6_linear" x1="409.101" y1="284.316" x2="437.34" y2="161.637" gradientUnits="userSpaceOnUse">
<stop stop-color="#88C540"/>
<stop offset="1" stop-color="#CBDB2A"/>
</linearGradient>
<linearGradient id="paint7_linear" x1="392.998" y1="270.962" x2="380.095" y2="222.991" gradientUnits="userSpaceOnUse">
<stop stop-color="#8CAB3F"/>
<stop offset="1" stop-color="#CBDB2A"/>
</linearGradient>
<linearGradient id="paint8_linear" x1="393.968" y1="303.213" x2="440.882" y2="99.4036" gradientUnits="userSpaceOnUse">
<stop stop-color="#88C540"/>
<stop offset="1" stop-color="#CBDB2A"/>
</linearGradient>
<linearGradient id="paint9_linear" x1="409.962" y1="320.525" x2="427.368" y2="244.905" gradientUnits="userSpaceOnUse">
<stop stop-color="#88C540"/>
<stop offset="1" stop-color="#CBDB2A"/>
</linearGradient>
</defs>
</svg>
