<svg width="440" height="440" viewBox="0 0 440 440" fill="none" xmlns="http://www.w3.org/2000/svg">
<g clip-path="url(#clip0)">
<path d="M440 0H0V440H440V0Z" fill="#D1EAFF"/>
<path opacity="0.62" fill-rule="evenodd" clip-rule="evenodd" d="M336.205 402.682C301.335 381.411 267.809 365.766 236.101 354.477C184.731 336.18 138.123 329.32 98.2993 328.476C96.4537 330.428 94.4859 332.538 92.3919 334.828C92.2615 334.974 92.1352 335.117 92.0089 335.264C91.3774 336.001 90.8274 336.759 90.3467 337.533L90.2937 337.623L90.1593 337.843L90.0859 337.969L89.98 338.156L89.9515 338.205C89.8496 338.389 89.7519 338.568 89.6582 338.755L89.6093 338.849L89.4911 339.089L89.487 339.097L89.3526 339.374L89.3363 339.415L89.1937 339.729V339.733L89.0593 340.051L89.043 340.087L88.9289 340.373L88.9004 340.446L88.8107 340.694L88.7985 340.727C88.7333 340.906 88.6681 341.086 88.6111 341.265L88.5867 341.338L88.5296 341.526L88.4889 341.66L88.4196 341.888L88.3952 341.982L88.3667 342.088L88.3056 342.308L88.2322 342.609L88.2281 342.63L88.1548 342.956L88.1507 342.972L88.0856 343.281L88.0407 343.522L88.0244 343.603L88.0081 343.701L87.9715 343.929L87.9674 343.962L87.9307 344.182L87.9226 344.255L87.8981 344.426L87.8778 344.581L87.8533 344.789L87.8411 344.903L87.837 344.964L87.8126 345.229L87.7922 345.51L87.7881 345.551L87.7719 345.873L87.7596 346.194L87.7556 346.231L87.7515 346.516V347.001L87.7596 347.278V347.331L87.7719 347.584V347.657L87.78 347.787L87.7963 348.012L87.8004 348.105L87.8207 348.362L87.8289 348.419L87.8574 348.712L87.8615 348.729L87.8981 349.042V349.059L87.9389 349.352L87.947 349.405L87.9837 349.657L88 349.747L88.0367 349.963L88.057 350.085L88.0937 350.269L88.1222 350.427L88.1548 350.57L88.1956 350.762L88.22 350.867L88.273 351.096L88.2893 351.165L88.3585 351.426L88.3667 351.458L88.4441 351.752L88.5296 352.041L88.5419 352.073L88.6193 352.33L88.6396 352.395L88.713 352.611L88.7456 352.713L88.7496 352.721L88.8474 352.998L88.8678 353.055C88.933 353.239 89.0022 353.418 89.0756 353.597L89.0918 353.638L89.1244 353.719L89.2181 353.939L89.2385 353.988L89.3485 354.237L89.3526 354.253L89.4748 354.518L89.483 354.53L89.6011 354.774L89.6215 354.819L89.7274 355.031L89.7681 355.104L89.7885 355.153L90.0411 355.61L90.0656 355.659L90.1348 355.773L90.2244 355.927L90.2326 355.94L90.3752 356.172L90.3874 356.192L90.42 356.249L90.5504 356.453L90.5707 356.482L90.7215 356.706L90.7459 356.742L90.75 356.75L90.7663 356.779L90.7785 356.795L90.7907 356.812L90.807 356.836L90.8152 356.848L90.8396 356.877V356.881L90.8641 356.913L90.8681 356.922L90.8885 356.95L90.8967 356.962L90.913 356.983L90.9293 357.007L90.9374 357.019L90.9578 357.048L90.9619 357.052L90.9863 357.089H90.9904L91.0107 357.121L91.0189 357.129L91.0352 357.154L91.0474 357.17L91.0596 357.186L91.08 357.211L91.0841 357.223L91.1085 357.256H91.1126L91.1411 357.296L91.1615 357.321L91.1696 357.337L91.1859 357.353L91.2022 357.378L91.2104 357.386L91.2348 357.419L91.2633 357.451L91.2674 357.455L91.2878 357.484L91.2959 357.496L91.3285 357.537L91.3367 357.549L91.357 357.577L91.3652 357.582L91.3896 357.614V357.618L91.4141 357.647L91.4222 357.655L91.4426 357.679L91.467 357.708L91.4874 357.732L91.4915 357.74L91.5159 357.773H91.52L91.5444 357.806L91.5485 357.81L91.5689 357.834L91.5811 357.85L91.5974 357.867L91.6137 357.887L91.6259 357.899L91.6463 357.924L91.6504 357.928L91.7033 357.989L91.7115 358.001L91.7563 358.05L91.7767 358.074L91.7807 358.083L91.8093 358.111L91.8378 358.14L91.8418 358.152L91.9111 358.221L91.9152 358.229L91.9437 358.258V358.262L91.9722 358.29L92.0007 358.319L92.0089 358.331L92.0252 358.347L92.0415 358.368L92.0537 358.376L92.0741 358.404L92.1433 358.474L92.1637 358.494L92.1759 358.51L92.1881 358.523L92.2126 358.543L92.2167 358.547L92.2452 358.58L92.2737 358.604L92.2778 358.612L92.3022 358.633L92.3144 358.649L92.3267 358.661L92.3552 358.69L92.3837 358.714V358.718C92.4774 358.808 92.567 358.893 92.6607 358.979C92.7096 359.024 92.7544 359.064 92.8033 359.105H69.3244C68.3344 351.23 69.1778 343.546 73.0318 336.694L73.1337 336.514L73.3415 336.156L73.4474 335.977L73.5493 335.806L73.5533 335.797L73.6633 335.622C73.8426 335.329 74.03 335.04 74.2174 334.75L74.2256 334.742L74.3437 334.567L74.4619 334.392L74.5841 334.217C74.7837 333.927 74.9915 333.638 75.2033 333.353L75.3296 333.182L75.3581 333.141L75.46 333.007L75.5944 332.84L75.6963 332.705L75.7248 332.669L75.8593 332.497L75.9978 332.326L76.1363 332.159L76.2748 331.992L76.2789 331.984L76.4133 331.821L76.5559 331.654L76.6985 331.487L76.7556 331.418L76.8452 331.32L76.9918 331.153L77.1304 330.998L77.1385 330.99L77.2893 330.823L77.44 330.66L77.5133 330.579L77.5948 330.493L77.6111 330.473L77.8515 330.22L77.9044 330.167L77.9085 330.159L78.0593 330.004L78.2181 329.841L78.3119 329.747L78.377 329.678L78.54 329.515L78.703 329.356L78.7233 329.336L78.87 329.193L79.037 329.034L79.147 328.929L79.2041 328.871L79.3752 328.717L79.5463 328.558L79.583 328.521C47.4385 329.344 20.4885 333.931 0 338.906V440H210.65C247.158 439.316 283.991 438.839 329.311 437.686C471.024 434.08 369.311 422.873 336.205 402.682ZM99.1548 359.105H99.11L99.2119 359.028L99.1548 359.105Z" fill="#6EC458"/>
<path fill-rule="evenodd" clip-rule="evenodd" d="M118.348 77.8678C110.864 76.6048 120.083 81.2085 103.783 85.8122C90.693 89.5115 86.7044 76.9552 83.4533 82.7811C81.3063 86.627 74.853 88.0978 67.3811 88.1385C65.1567 94.5756 59.0293 96.3519 52.4537 96.3519C43.0019 96.3519 32.617 92.677 31.5293 93.887C24.1267 102.084 6.50222 100.776 0 93.8341V0H16.3085C17.987 2.37111 19.2826 6.18037 19.747 12.1326C20.0119 15.51 25.3774 7.18667 30.6574 16.8667C32.2382 19.7633 33.2526 21.9796 33.8759 23.6419C31.2767 27.223 36.7196 31.2522 33.8759 23.6419C35.3467 21.6089 39.4126 19.7185 49.0641 20.1911C76.0222 21.5111 60.8667 40.203 74.7715 31.293C76.45 30.2174 93.7526 30.4415 95.9037 39.5674C96.3804 41.5841 109.149 33.603 113.61 49.4104C115.785 57.1185 109.556 49.1496 129.364 50.1193C146.907 50.9789 148.932 83.0378 118.348 77.8678Z" fill="#FEFEFE"/>
<path fill-rule="evenodd" clip-rule="evenodd" d="M440 109.051V207.044C439.014 206.739 438.468 206.694 438.509 207.146C439.588 219.34 413.901 224.164 404.547 213.803C403.455 212.597 393.071 216.268 383.619 216.268C377.039 216.268 370.916 214.492 368.691 208.059C361.224 208.014 354.766 206.543 352.623 202.697C349.368 196.871 345.38 209.432 332.29 205.733C315.989 201.129 325.213 196.521 317.725 197.788C287.145 202.954 289.17 170.899 306.708 170.036C326.517 169.066 320.287 177.035 322.463 169.331C326.928 153.523 339.692 161.5 340.169 159.484C342.324 150.358 359.622 150.138 361.305 151.213C375.206 160.119 360.054 141.427 387.008 140.107C396.664 139.635 400.734 141.525 402.205 143.562C402.824 141.9 403.838 139.684 405.419 136.787C410.699 127.107 416.061 135.426 416.325 132.049C418.175 108.501 432.964 118.478 433.298 118.462C434.512 113.74 436.936 110.737 440 109.051Z" fill="#FEFEFE"/>
<path fill-rule="evenodd" clip-rule="evenodd" d="M324.21 193.975C355.234 197.303 377.328 162.511 378.42 133.002C387.212 159.366 382.832 175.157 372.79 185.444C382.417 186.462 380.608 186.609 404.698 192.63C370.63 199.691 387.811 197.271 353.153 199.89C352.004 199.89 350.912 199.658 349.918 199.234C328.399 207.541 304.276 210.214 303.816 224.97C303.816 226.694 303.29 228.291 302.39 229.615C309.026 230.185 315.985 231.371 323.037 231.367C333.096 231.363 343.355 228.951 353.153 218.904C357.756 253.106 292.461 230.992 284.048 253.236C282.834 256.357 279.933 258.321 276.796 258.496C272.494 263.124 267.642 268.188 262.289 273.806C261.009 275.97 259.253 277.811 257.163 279.196C251.786 284.863 245.96 291.068 239.69 297.937C239.364 298.296 239.046 298.658 238.732 299.025C223.793 316.421 226.416 339.13 235.518 352.513C237.078 354.807 238.826 356.828 240.708 358.498H182.152C178.293 327.865 185.553 298.434 215.046 276.124C185.244 267.349 177.727 251.399 178.151 232.951C175.079 232.112 172.635 229.525 172.146 226.168C170.638 213.591 100.845 229.761 99.3582 190.854C99.3012 189.432 99.8226 188.846 100.487 187.57C102.051 189.428 101.469 188.43 102.308 190.524L102.222 190.161C114.424 206.841 129.963 208.588 144.585 207.937C159.109 207.289 172.728 204.278 181.267 211.176C183.48 201.239 186.327 191.119 187.973 181.414C188.715 177.031 189.212 172.733 189.293 168.573C186.063 168.145 182.555 168.337 178.852 168.895C154.269 172.594 121.154 192.569 103.795 156.094C102.014 156.611 100.047 156.534 98.2134 155.74C66.3215 142.8 43.9182 149.392 50.9623 104.704C62.7404 138.971 64.2397 132.652 89.4012 137.056C91.9638 137.504 94.7667 138.062 97.8549 138.787C95.1823 127.861 93.3245 114.098 92.5138 96.7878C91.9556 84.8752 89.7719 81.2166 85.323 70.3429C94.5915 79.4037 96.816 82.9848 98.9141 96.1807C113.544 188.365 137.797 164.564 168.886 155.234C174.635 153.507 180.62 152.277 186.82 152.366C186.686 152.016 186.547 151.666 186.401 151.319C184.327 146.357 180.99 141.81 175.967 137.83C165.383 129.441 158.017 126.015 148.642 121.069C146.226 119.794 143.68 118.421 140.914 116.836C141.48 116.608 142.038 116.404 142.588 116.217C151.844 113.072 159.084 115.361 168.837 119.089C174.79 121.367 179.919 123.827 184.372 126.435C185.02 124.39 185.57 122.479 186.034 120.678C189.171 108.44 188.087 101.656 184.942 97.0485C183.142 96.2133 181.634 94.7385 180.803 92.7707L180.779 92.7137C179.825 91.96 178.815 91.2511 177.764 90.5544C169.416 85.03 158.648 80.2796 156.668 59.2329C155.984 51.9648 160.176 46.4485 164.165 41.03L164.128 47.3163C162.69 62.0359 167.102 69.3896 173.372 74.5515C176.876 77.4359 180.954 79.6318 184.922 82.0518L185.195 81.9296C188.389 80.6015 191.07 78.9759 193.335 77.0937C207.089 65.6822 205.484 44.8841 209.643 23.8496C216.582 52.1155 221.026 76.4541 197.58 93.3737C202.583 101.347 204.241 113.899 198.016 136.93C217.6 157.251 209.419 183.048 204.966 204.755C200.416 226.946 199.776 244.864 236.679 248.286C238.3 248.437 239.995 248.559 241.763 248.657C243.76 248.763 245.85 248.832 248.046 248.865C250.013 248.865 251.9 249.211 253.652 249.843C289.683 225.545 295.207 215.241 275.285 183.712C274.23 184.295 273.032 184.653 271.749 184.727C260.235 185.073 251.883 184.128 245.756 182.18C218.627 173.556 235.277 145.224 215.702 121.892C216.948 121.13 216.679 121.033 218.085 121.114C228.286 121.721 230.609 129.001 232.116 137.696C233.949 148.276 234.581 160.954 246.709 166.283C250.987 168.161 256.691 169.127 264.387 168.764C264.692 168.748 264.99 168.744 265.299 168.724C260.353 161.553 254.597 153.43 248.042 144.128C264.366 153.931 274.409 155.084 282.007 181.178C281.636 152.66 282.96 162.568 303.681 133.788C305.975 130.603 308.505 126.948 311.3 122.707C340.344 78.6378 324.214 80.5933 318.788 55.1915C342.45 63.6085 334.302 99.0815 325.42 119.981C327.926 118.71 330.297 117.83 332.55 117.211C353.605 111.393 364.271 128.223 376.399 61.2578C386.915 150.912 346.948 108.101 319.607 145.689C317.313 149.131 312.884 150.297 309.25 148.606C302.874 158.098 299.477 161.183 297.867 164.043C296.894 165.774 296.01 167.497 296.649 170.374C305.637 210.581 297.484 191.111 324.21 193.975ZM256.446 358.502H256.56L256.695 358.303L256.446 358.502Z" fill="#8F6134"/>
<path fill-rule="evenodd" clip-rule="evenodd" d="M324.21 193.975C346.129 196.326 363.586 179.65 372.333 159.252C375.906 152.916 378.591 145.97 380.237 138.963C384.14 153.193 383.883 164.063 380.889 172.525C379.581 174.521 378.094 176.35 376.456 178.029L378.273 178.224C376.737 180.897 374.892 183.289 372.794 185.436C379.931 186.189 380.787 186.466 390.561 189.013C379.695 191.367 382.612 190.524 356.815 192.471C355.666 192.471 354.574 192.239 353.58 191.816C332.583 199.923 309.116 202.665 307.556 216.5C305.278 218.827 303.921 221.577 303.816 224.962C303.816 226.686 303.29 228.283 302.39 229.607C309.026 230.177 315.985 231.363 323.037 231.359C333.096 231.354 343.354 228.943 353.153 218.896C353.466 221.239 353.446 223.308 353.144 225.158C339.541 239.107 294.592 227.619 287.707 245.817C286.493 248.938 283.596 250.902 280.455 251.077C276.153 255.705 271.3 260.769 265.947 266.387C264.668 268.547 262.912 270.392 260.822 271.777C255.448 277.444 249.622 283.649 243.348 290.518C243.022 290.877 242.704 291.239 242.391 291.602C238.85 295.725 236.296 300.145 234.585 304.672C224.42 321.094 227.374 340.527 235.514 352.501C236.781 354.367 238.174 356.05 239.665 357.512H186.776C183.451 338.425 184.107 319.64 191.396 302.569C196.765 293.016 204.473 284.106 215.046 276.112C213.742 275.729 212.483 275.33 211.261 274.919C213.567 272.792 216.044 270.718 218.704 268.702C188.906 259.926 181.386 243.976 181.813 225.529C178.741 224.689 176.297 222.102 175.808 218.745C174.476 207.619 119.671 218.994 106.048 194.794C117.577 207.163 131.454 208.515 144.584 207.933C159.108 207.285 172.728 204.274 181.267 211.172C181.903 208.324 182.587 205.46 183.284 202.591C183.85 202.946 184.4 203.333 184.93 203.761C187.142 193.824 189.99 183.704 191.636 174C192.377 169.616 192.874 165.318 192.956 161.158C189.725 160.73 186.217 160.922 182.514 161.48C157.931 165.179 124.817 185.154 107.457 148.679C105.677 149.197 103.709 149.119 101.876 148.325C73.8503 136.942 53.154 140.649 53.3292 111.385C63.0703 138.099 66.0281 132.945 89.4011 137.036C91.9637 137.484 94.7666 138.042 97.8548 138.767C97.1989 136.078 96.5877 133.218 96.0337 130.179C97.757 130.517 99.5781 130.904 101.513 131.36C98.8407 120.434 96.9829 106.667 96.1763 89.3607C96.0744 87.1648 95.9155 85.2459 95.6996 83.5104C97.1377 86.7778 98.0381 90.6237 98.9181 96.1604C113.548 188.344 137.801 164.544 168.89 155.214C174.639 153.487 180.624 152.256 186.824 152.346C186.69 151.996 186.551 151.645 186.405 151.299C185.553 149.262 184.486 147.29 183.182 145.404C185.582 145.074 188.018 144.899 190.487 144.935C190.353 144.585 190.214 144.234 190.067 143.888C187.994 138.926 184.657 134.379 179.634 130.399C170.015 122.776 163.052 119.248 154.823 114.958C159.239 115.537 163.692 117.105 168.841 119.073C174.794 121.35 179.923 123.811 184.376 126.419C185.024 124.373 185.574 122.463 186.038 120.662C186.254 119.814 186.45 118.991 186.629 118.197C187.106 118.466 187.578 118.735 188.038 119.004C188.69 116.959 189.24 115.048 189.701 113.247C192.838 101.009 191.754 94.2252 188.609 89.6174C186.808 88.7863 185.305 87.3074 184.47 85.3396L184.445 85.2785C183.496 84.5248 182.481 83.82 181.43 83.1233C173.083 77.5989 162.319 72.8485 160.335 51.8018C160.123 49.557 160.38 47.4833 160.946 45.5237C161.964 43.9878 163.073 42.4967 164.168 41.0096L164.132 47.2959C162.694 62.0155 167.106 69.3693 173.376 74.5311C176.88 77.4155 180.958 79.6115 184.926 82.0315L185.199 81.9093C188.393 80.5811 191.074 78.9555 193.339 77.0733C197.767 73.3985 200.603 68.75 202.554 63.4333C208.327 54.6537 209.541 42.8552 211.175 30.197C214.98 46.5992 217.225 61.5267 212.617 74.2459C209.912 78.4544 206.205 82.3655 201.247 85.9426C201.837 86.8837 202.379 87.8941 202.872 88.9737C201.291 90.4852 199.536 91.9437 197.584 93.3533C202.587 101.326 204.245 113.879 198.02 136.909C217.604 157.231 209.423 183.028 204.97 204.734C200.42 226.926 199.78 244.844 236.683 248.266C238.304 248.417 239.999 248.539 241.767 248.637C243.764 248.743 245.854 248.812 248.05 248.844C250.017 248.844 251.904 249.191 253.656 249.822C272.392 237.189 282.875 228.34 285.824 218.322C293.793 206.877 291.117 195.539 278.951 176.281C277.896 176.864 276.698 177.222 275.415 177.296C263.902 177.642 255.55 176.697 249.423 174.749C225.569 167.167 235.558 144.349 225.011 123.09C229.537 125.93 231.04 131.438 232.12 137.675C233.953 148.256 234.585 160.934 246.713 166.263C250.991 168.141 256.695 169.107 264.391 168.744C264.696 168.728 264.994 168.724 265.303 168.703C263.653 166.308 261.91 163.806 260.076 161.191C262.464 161.415 265.112 161.472 268.049 161.333C268.355 161.317 268.652 161.309 268.962 161.293C267.055 158.526 265.026 155.621 262.879 152.562C271.019 157.687 277.037 164.083 282.007 181.158C281.901 173.173 281.934 168.198 282.484 164.548C283.596 167.224 284.655 170.264 285.67 173.751C285.547 164.36 285.608 159.137 286.484 155.324C289.65 151.164 294.942 145.909 303.681 133.768C305.975 130.582 308.505 126.928 311.3 122.687C317.598 113.129 321.774 105.739 324.394 99.7619C336.547 77.3259 331.279 71.6018 326.194 59.4815C340.417 72.1763 333.202 101.656 325.42 119.961C327.926 118.69 330.297 117.81 332.55 117.191C348.06 112.905 357.931 120.902 366.903 98.6496C370.455 92.95 373.788 83.657 377.157 68.4078C378.966 87.6537 378.123 100.006 375.426 108.171C364.381 123.457 341.134 113.699 323.273 138.258C320.98 141.7 316.551 142.866 312.917 141.175C306.541 150.667 303.143 153.747 301.534 156.611C300.817 157.887 300.149 159.154 300.104 160.881C299.134 162.103 298.405 163.073 297.876 164.022C296.902 165.754 296.018 167.477 296.657 170.353C305.637 210.581 297.484 191.111 324.21 193.975Z" fill="#B37839"/>
<path fill-rule="evenodd" clip-rule="evenodd" d="M440 353.231V440H0V362.43C17.873 361.872 49.5896 360.58 89.3485 359.105C90.4444 359.065 91.5485 359.024 92.6607 358.979C134.196 357.451 184.144 355.744 236.101 354.477C305.568 352.782 378.632 351.878 440 353.231Z" fill="#71B04D"/>
<path opacity="0.21" fill-rule="evenodd" clip-rule="evenodd" d="M368.728 355.182H368.683L368.626 355.1L368.728 355.182ZM437.478 266.119C437.266 266.151 437.042 266.184 436.818 266.22C436.728 266.233 436.639 266.245 436.549 266.261C436.272 266.306 435.987 266.351 435.693 266.404C434.667 266.587 433.542 266.807 432.304 267.1C432.45 266.506 432.589 265.89 432.723 265.255C432.829 264.738 432.935 264.204 433.033 263.658C433.717 259.918 434.202 255.493 434.447 250.262C434.667 245.488 435.543 244.021 437.327 239.662C435.168 241.772 433.962 243.141 433.167 244.958C433.147 244.995 433.131 245.035 433.114 245.072C433.078 245.158 433.045 245.243 433.009 245.333C432.96 245.455 432.911 245.581 432.866 245.712C432.805 245.887 432.744 246.07 432.687 246.258C432.642 246.392 432.601 246.53 432.564 246.677C432.532 246.795 432.499 246.913 432.467 247.036C432.434 247.158 432.406 247.284 432.377 247.41C432.194 248.172 432.035 249.028 431.88 250.018C426.013 286.974 416.289 277.432 403.83 273.692C401.524 273 399.124 272.507 396.639 272.539C396.692 272.401 396.749 272.262 396.806 272.124C396.859 272.002 396.912 271.875 396.969 271.753C397.144 271.366 397.34 270.987 397.556 270.616C397.682 270.392 397.821 270.176 397.963 269.96C398.733 268.795 399.732 267.712 400.99 266.713C405.232 263.352 408.185 261.975 411.941 259.995C412.911 259.486 413.934 258.936 415.042 258.3C414.814 258.207 414.59 258.125 414.37 258.052C412.618 257.457 411.049 257.347 409.469 257.551C409.469 257.551 409.464 257.551 409.464 257.555C409.416 257.559 409.371 257.567 409.322 257.571C409.143 257.596 408.963 257.624 408.788 257.661C408.65 257.685 408.507 257.714 408.364 257.746C408.222 257.775 408.083 257.808 407.937 257.844C407.794 257.877 407.651 257.913 407.509 257.954C407.379 257.987 407.248 258.023 407.114 258.064C406.987 258.101 406.861 258.138 406.735 258.174C406.556 258.231 406.372 258.292 406.189 258.353C406.148 258.366 406.107 258.378 406.067 258.394C405.83 258.472 405.59 258.557 405.346 258.643C404.861 258.818 404.364 259.005 403.846 259.201C401.463 260.113 399.406 261.103 397.621 262.146C397.36 261.328 397.14 260.562 396.953 259.84C396.908 259.669 396.867 259.502 396.831 259.339C396.79 259.176 396.753 259.013 396.717 258.855C395.763 254.565 396.216 252.092 397.393 250.368C398.114 250.034 398.717 249.443 399.051 248.653L399.063 248.629C399.442 248.327 399.85 248.042 400.269 247.765C403.618 245.549 407.933 243.646 408.727 235.209C408.927 233.094 408.096 231.35 407.016 229.721C406.609 229.106 406.16 228.507 405.724 227.912L405.737 230.43C406.315 236.333 404.547 239.279 402.033 241.348C400.628 242.505 398.994 243.385 397.401 244.355L397.291 244.306C396.012 243.772 394.936 243.12 394.028 242.367C393.906 242.265 393.787 242.163 393.673 242.057C393.576 241.972 393.486 241.886 393.392 241.796C393.201 241.613 393.017 241.422 392.842 241.226C392.366 240.692 391.946 240.122 391.579 239.515C391.51 239.405 391.441 239.291 391.38 239.177C391.099 238.684 390.846 238.166 390.626 237.633C390.577 237.523 390.532 237.409 390.487 237.295C390.434 237.164 390.386 237.034 390.337 236.899C388.691 232.414 388.622 226.743 387.493 221.023C387.281 221.886 387.073 222.742 386.882 223.589C386.727 224.245 386.58 224.893 386.442 225.541C386.254 226.425 386.079 227.297 385.929 228.156C385.88 228.433 385.831 228.71 385.786 228.983C385.737 229.281 385.692 229.574 385.656 229.863C385.574 230.426 385.505 230.98 385.448 231.53C385.419 231.786 385.395 232.043 385.374 232.296C385.366 232.357 385.362 232.414 385.362 232.467C385.35 232.63 385.338 232.789 385.33 232.948C385.317 233.094 385.309 233.241 385.305 233.388C385.269 234.072 385.256 234.744 385.277 235.404C385.281 235.526 385.285 235.653 385.289 235.775C385.293 235.95 385.305 236.121 385.317 236.288C385.326 236.455 385.338 236.622 385.354 236.789C385.366 236.924 385.379 237.062 385.395 237.201C385.411 237.392 385.436 237.584 385.464 237.775C385.484 237.938 385.509 238.101 385.537 238.264C385.562 238.427 385.59 238.586 385.623 238.749C385.717 239.246 385.831 239.735 385.969 240.216C386.055 240.505 386.149 240.794 386.246 241.083C386.25 241.092 386.25 241.1 386.254 241.108C386.271 241.153 386.291 241.202 386.307 241.246C387.077 243.369 388.324 245.341 390.206 247.138C390.231 247.162 390.255 247.182 390.28 247.207C390.394 247.317 390.512 247.423 390.634 247.533C390.683 247.578 390.732 247.622 390.785 247.667C390.87 247.74 390.956 247.818 391.046 247.891C391.152 247.981 391.262 248.07 391.372 248.16C391.677 248.413 391.995 248.653 392.329 248.893C390.32 252.092 389.656 257.123 392.154 266.355C384.299 274.503 387.579 284.843 389.367 293.545C391.188 302.443 391.445 309.626 376.652 310.995C376 311.056 375.324 311.105 374.615 311.145C373.812 311.186 372.973 311.215 372.093 311.227C371.307 311.227 370.549 311.365 369.848 311.618C369.38 311.3 368.923 310.99 368.479 310.685C367.062 309.711 365.778 308.795 364.621 307.915C364.405 307.747 364.189 307.585 363.982 307.422C363.806 307.283 363.631 307.149 363.46 307.006C363.187 306.79 362.918 306.574 362.662 306.358C362.515 306.236 362.372 306.114 362.234 305.996C361.957 305.759 361.692 305.523 361.439 305.291C361.309 305.173 361.179 305.055 361.052 304.932C360.775 304.672 360.51 304.415 360.262 304.158C360.119 304.012 359.985 303.869 359.85 303.722C359.696 303.555 359.549 303.392 359.414 303.229C359.296 303.099 359.186 302.969 359.085 302.838C358.97 302.7 358.86 302.561 358.755 302.419C358.632 302.26 358.518 302.105 358.408 301.946C358.31 301.803 358.217 301.665 358.127 301.522C358.033 301.376 357.944 301.229 357.862 301.082C357.797 300.976 357.736 300.866 357.679 300.756C357.638 300.679 357.597 300.602 357.561 300.524C357.365 300.141 357.202 299.754 357.072 299.367C357.047 299.298 357.023 299.229 357.003 299.159C355.813 295.407 357.28 291.268 361.175 285.108C361.598 285.34 362.075 285.487 362.592 285.515C367.208 285.654 370.553 285.275 373.014 284.493C383.887 281.038 377.21 269.679 385.061 260.325C384.56 260.02 384.666 259.979 384.103 260.012C382.95 260.081 382.046 260.362 381.329 260.814C381.325 260.814 381.325 260.818 381.321 260.818C381.211 260.888 381.105 260.965 381.003 261.042C380.901 261.12 380.799 261.201 380.706 261.291C380.697 261.295 380.693 261.299 380.689 261.303C380.6 261.389 380.514 261.474 380.429 261.564C380.343 261.658 380.262 261.755 380.18 261.857C380.099 261.959 380.025 262.065 379.952 262.171C379.879 262.281 379.809 262.391 379.744 262.505C379.683 262.611 379.626 262.721 379.569 262.831C379.443 263.083 379.333 263.344 379.227 263.621C379.186 263.739 379.141 263.862 379.1 263.988C378.832 264.807 378.644 265.711 378.481 266.66C377.744 270.902 377.491 275.986 372.631 278.121C370.916 278.875 368.626 279.262 365.542 279.115C365.42 279.111 365.302 279.103 365.175 279.099C365.839 278.137 366.536 277.135 367.269 276.088C368.732 273.998 370.341 271.725 372.093 269.239C369.828 270.6 367.864 271.545 366.137 272.633C365.994 272.727 365.852 272.816 365.713 272.91C365.456 273.077 365.208 273.252 364.963 273.428C364.768 273.57 364.58 273.713 364.393 273.867C364.254 273.982 364.116 274.096 363.977 274.214C363.973 274.214 363.969 274.222 363.969 274.222C363.9 274.279 363.835 274.34 363.77 274.401C363.631 274.523 363.497 274.65 363.366 274.78C363.097 275.037 362.841 275.314 362.588 275.607C362.523 275.685 362.462 275.758 362.401 275.831C361.9 276.438 361.423 277.123 360.971 277.913C360.926 277.99 360.877 278.072 360.832 278.153C360.474 278.793 360.132 279.506 359.802 280.3C359.749 280.423 359.696 280.545 359.647 280.671C359.602 280.777 359.557 280.887 359.516 281.001C359.467 281.119 359.423 281.233 359.382 281.356C359.321 281.506 359.264 281.661 359.211 281.82C359.158 281.971 359.105 282.122 359.052 282.276C358.856 282.847 358.665 283.45 358.477 284.093C358.498 282.61 358.506 281.388 358.486 280.358C358.486 280.256 358.482 280.158 358.482 280.064C358.469 279.555 358.449 279.099 358.42 278.679C358.408 278.549 358.4 278.426 358.392 278.304C358.384 278.251 358.38 278.202 358.376 278.149C358.355 277.946 358.331 277.75 358.302 277.567C358.074 275.929 357.602 274.943 356.677 273.733C356.477 273.472 356.261 273.203 356.017 272.91C355.919 272.792 355.821 272.674 355.715 272.552C355.552 272.36 355.381 272.156 355.198 271.94C355.031 271.745 354.86 271.545 354.672 271.329C354.289 270.877 353.87 270.376 353.405 269.814C353.255 269.626 353.096 269.431 352.929 269.227C352.521 268.722 352.081 268.168 351.613 267.557C351.519 267.435 351.421 267.308 351.327 267.182C351.16 266.962 350.989 266.734 350.818 266.502C350.619 266.233 350.411 265.956 350.199 265.666C350.065 265.479 349.926 265.288 349.783 265.092C348.867 263.817 347.852 262.35 346.728 260.651C345.942 259.453 345.233 258.341 344.605 257.302C344.349 256.887 344.112 256.483 343.888 256.096C343.77 255.901 343.66 255.709 343.554 255.518C343.444 255.326 343.338 255.139 343.236 254.956C342.931 254.402 342.646 253.872 342.389 253.367C342.303 253.2 342.222 253.033 342.14 252.87C342.03 252.654 341.929 252.442 341.835 252.234C341.762 252.079 341.688 251.925 341.623 251.774C337.586 242.835 342.006 241.654 343.729 233.583C342.552 234.003 341.57 234.589 340.759 235.31C340.751 235.319 340.743 235.327 340.735 235.335C340.596 235.457 340.462 235.588 340.332 235.722C340.262 235.791 340.197 235.865 340.132 235.938C339.928 236.162 339.741 236.394 339.566 236.639C339.513 236.712 339.46 236.785 339.411 236.859C339.354 236.94 339.301 237.022 339.252 237.103C339.146 237.27 339.048 237.441 338.954 237.612C338.914 237.69 338.873 237.763 338.832 237.84C338.486 238.529 338.213 239.27 338.005 240.049C337.973 240.171 337.944 240.297 337.916 240.423C337.887 240.533 337.867 240.643 337.842 240.753C337.802 240.961 337.761 241.169 337.728 241.381C337.712 241.487 337.696 241.593 337.679 241.699C337.639 241.98 337.606 242.265 337.582 242.55C337.557 242.807 337.541 243.068 337.529 243.332C337.525 243.446 337.52 243.56 337.516 243.67C337.512 243.78 337.508 243.895 337.508 244.009C337.427 249.199 339.207 255.176 341.069 259.555C340.067 259.05 339.113 258.696 338.213 258.447C338.013 258.39 337.814 258.341 337.622 258.296C337.439 258.252 337.256 258.215 337.076 258.178C337.068 258.178 337.06 258.174 337.052 258.174C336.873 258.138 336.697 258.109 336.522 258.08C336.363 258.052 336.209 258.032 336.058 258.011C335.997 258.003 335.936 257.995 335.879 257.987C335.736 257.966 335.593 257.95 335.455 257.938C335.027 257.889 334.612 257.856 334.204 257.832C333.98 257.816 333.76 257.803 333.544 257.791C333.438 257.783 333.328 257.779 333.222 257.771C333.01 257.759 332.799 257.746 332.591 257.73C332.473 257.726 332.355 257.714 332.232 257.706C332.045 257.689 331.857 257.673 331.674 257.653C331.255 257.608 330.847 257.547 330.448 257.457C330.375 257.437 330.297 257.42 330.224 257.4C330.036 257.355 329.853 257.298 329.67 257.237C329.576 257.205 329.486 257.172 329.397 257.135C329.307 257.103 329.217 257.062 329.128 257.025C329.038 256.985 328.949 256.944 328.863 256.899C328.688 256.809 328.513 256.708 328.337 256.598C328.252 256.54 328.166 256.483 328.081 256.422C327.527 256.023 326.993 255.502 326.467 254.805C326.423 254.744 326.378 254.687 326.337 254.626C326.219 254.463 326.101 254.287 325.987 254.108C325.926 254.015 325.869 253.921 325.812 253.827C325.75 253.729 325.693 253.632 325.636 253.53C325.465 253.224 325.29 252.902 325.123 252.552C325.062 252.434 325.005 252.316 324.952 252.193C324.781 251.827 324.61 251.436 324.443 251.016C323.155 247.826 321.913 243.088 320.633 236.015C320.515 237.013 320.413 237.971 320.332 238.888C320.316 239.063 320.299 239.234 320.283 239.405C320.1 241.462 319.994 243.312 319.961 244.986C319.957 245.125 319.953 245.263 319.953 245.402C319.933 246.649 319.953 247.793 320.018 248.845C320.03 249.048 320.047 249.248 320.059 249.448C320.063 249.488 320.067 249.529 320.067 249.57C320.124 250.315 320.202 251.012 320.299 251.664C320.324 251.839 320.352 252.006 320.381 252.173C320.409 252.336 320.438 252.499 320.47 252.658L320.483 252.731C320.511 252.866 320.54 252.996 320.564 253.126C320.601 253.281 320.633 253.432 320.67 253.579C320.703 253.725 320.743 253.872 320.78 254.015C320.813 254.137 320.849 254.259 320.882 254.377C320.927 254.532 320.976 254.683 321.025 254.829C324.443 265.19 335.304 258.728 343.399 269.863C344.32 271.24 346.096 271.712 347.551 271.032C349.262 273.578 350.439 274.976 351.222 275.962C351.535 276.361 351.788 276.691 351.983 277.005C352.032 277.078 352.073 277.147 352.114 277.22C352.505 277.913 352.859 278.606 352.603 279.759C349.005 295.884 352.273 288.074 341.558 289.223C340.849 289.3 340.156 289.325 339.472 289.304C339.366 289.304 339.26 289.3 339.158 289.292C338.665 289.268 338.176 289.219 337.696 289.149C337.549 289.129 337.402 289.105 337.26 289.076C337.089 289.047 336.917 289.011 336.746 288.974C336.575 288.937 336.408 288.901 336.241 288.856C336.07 288.815 335.903 288.77 335.74 288.722C335.622 288.689 335.508 288.652 335.394 288.616C335.341 288.603 335.292 288.583 335.239 288.567C335.076 288.514 334.913 288.457 334.75 288.4C334.599 288.347 334.453 288.29 334.302 288.229C333.833 288.045 333.377 287.833 332.925 287.605C332.819 287.552 332.713 287.495 332.607 287.438C331.654 286.929 330.745 286.326 329.882 285.646C329.784 285.572 329.686 285.495 329.592 285.413C329.026 284.949 328.476 284.452 327.95 283.918C327.861 283.833 327.775 283.743 327.69 283.653C326.305 282.211 325.074 280.561 324.023 278.781C323.889 278.557 323.758 278.333 323.636 278.105C323.571 277.995 323.51 277.88 323.453 277.77C323.33 277.542 323.208 277.31 323.09 277.074C323.029 276.96 322.972 276.842 322.915 276.723C322.687 276.259 322.467 275.782 322.263 275.306C322.263 275.306 322.263 275.302 322.259 275.302C320.805 271.908 319.953 268.253 319.823 264.782C319.55 265.605 319.305 266.404 319.097 267.174C319.049 267.357 319 267.54 318.951 267.72C318.906 267.899 318.861 268.078 318.816 268.258C318.772 268.437 318.731 268.612 318.69 268.787C318.649 268.962 318.613 269.133 318.576 269.309C318.539 269.48 318.503 269.651 318.47 269.822C318.397 270.185 318.332 270.547 318.275 270.902C318.242 271.089 318.213 271.276 318.189 271.464C318.067 272.307 317.989 273.114 317.957 273.888C317.945 274.063 317.94 274.238 317.936 274.409C317.932 274.593 317.928 274.772 317.928 274.951V274.955C317.928 275.212 317.932 275.469 317.945 275.717C317.945 275.762 317.945 275.803 317.949 275.843C317.969 276.316 318.006 276.776 318.059 277.22C318.059 277.245 318.063 277.269 318.067 277.294C318.091 277.506 318.124 277.717 318.156 277.925C318.16 277.954 318.165 277.982 318.169 278.011C318.246 278.471 318.34 278.915 318.45 279.347C318.503 279.559 318.56 279.767 318.621 279.975C318.629 279.991 318.633 280.011 318.641 280.032C318.694 280.199 318.747 280.37 318.804 280.533C318.816 280.565 318.825 280.594 318.837 280.626C319.122 281.441 319.476 282.203 319.884 282.912C319.892 282.924 319.896 282.932 319.904 282.945C319.957 283.042 320.014 283.14 320.075 283.234C320.193 283.429 320.32 283.625 320.446 283.812C320.507 283.902 320.568 283.988 320.629 284.073C320.695 284.171 320.768 284.265 320.841 284.358C320.898 284.44 320.959 284.517 321.02 284.595C321.143 284.753 321.269 284.904 321.395 285.055C321.615 285.316 321.843 285.564 322.08 285.805C321.632 285.853 321.249 285.894 320.898 285.935C320.792 285.951 320.686 285.963 320.589 285.976C318.93 286.192 318.075 286.428 314.958 287.239C313.593 287.593 311.789 288.062 309.287 288.685C322.947 291.516 316.058 290.547 329.955 291.598C330.415 291.598 330.851 291.504 331.25 291.333C337.895 293.9 345.163 295.126 348.231 298.259C348.292 298.32 348.345 298.377 348.398 298.438C348.993 299.094 349.413 299.832 349.608 300.683C349.641 300.822 349.665 300.964 349.686 301.111C349.698 301.2 349.706 301.29 349.714 301.38C349.722 301.469 349.726 301.559 349.73 301.653C349.73 302.341 349.942 302.985 350.305 303.515C347.645 303.743 344.854 304.219 342.026 304.215C337.993 304.215 333.882 303.25 329.955 299.22C329.873 299.823 329.845 300.377 329.869 300.895C329.873 300.976 329.877 301.062 329.886 301.143C329.894 301.245 329.902 301.343 329.914 301.441C329.926 301.539 329.939 301.636 329.955 301.73C331.585 311.801 354.513 304.676 357.654 312.983C358.143 314.233 359.305 315.024 360.563 315.093C362.291 316.947 364.234 318.976 366.381 321.229C366.894 322.096 367.595 322.838 368.434 323.392C370.59 325.665 372.924 328.15 375.438 330.905C375.572 331.047 375.699 331.194 375.825 331.34C376.456 332.074 377.006 332.832 377.487 333.606V333.61C377.609 333.805 377.727 334.005 377.837 334.2C377.935 334.376 378.033 334.551 378.123 334.726C378.135 334.746 378.143 334.767 378.155 334.787C378.241 334.954 378.326 335.121 378.404 335.292C378.493 335.48 378.583 335.671 378.664 335.863C378.746 336.05 378.823 336.242 378.897 336.433C379.039 336.796 379.17 337.166 379.284 337.533C379.349 337.745 379.41 337.957 379.467 338.169C379.524 338.36 379.573 338.556 379.618 338.747C379.646 338.882 379.675 339.012 379.703 339.146C379.732 339.269 379.756 339.391 379.777 339.517C379.801 339.647 379.826 339.782 379.846 339.912C379.879 340.104 379.907 340.299 379.932 340.495C379.956 340.658 379.972 340.821 379.989 340.984C379.997 341.061 380.005 341.143 380.013 341.22C380.025 341.363 380.037 341.505 380.046 341.648C380.054 341.795 380.062 341.937 380.066 342.08C380.07 342.182 380.074 342.287 380.078 342.389C380.168 346.309 378.978 350.036 377.112 352.782C376.986 352.97 376.856 353.149 376.721 353.328C376.591 353.507 376.452 353.679 376.314 353.846C376.037 354.184 375.747 354.497 375.45 354.791C375.312 354.925 375.173 355.056 375.03 355.182H398.509C399.499 347.303 398.656 339.623 394.802 332.766C394.802 332.762 394.798 332.762 394.798 332.758C394.663 332.522 394.529 332.286 394.386 332.053C394.252 331.825 394.113 331.601 393.975 331.381C393.967 331.369 393.959 331.357 393.95 331.345C393.8 331.108 393.649 330.872 393.49 330.64C393.323 330.395 393.156 330.151 392.985 329.906C392.846 329.719 392.708 329.527 392.569 329.34C392.541 329.303 392.512 329.271 392.488 329.234C392.321 329.014 392.15 328.794 391.974 328.574C391.962 328.562 391.954 328.55 391.95 328.542C391.775 328.326 391.6 328.11 391.42 327.898C391.233 327.674 391.037 327.45 390.842 327.23C390.65 327.014 390.459 326.802 390.259 326.586C390.251 326.582 390.247 326.574 390.239 326.566C390.043 326.358 389.844 326.15 389.644 325.942C389.176 325.466 388.687 324.993 388.177 324.529C387.982 324.349 387.786 324.174 387.583 323.999C387.566 323.983 387.55 323.966 387.534 323.954C387.33 323.779 387.126 323.604 386.919 323.429C386.69 323.237 386.454 323.046 386.218 322.854C386.083 322.748 385.949 322.642 385.814 322.536C385.652 322.41 385.489 322.284 385.322 322.157C385.501 322.105 385.68 322.052 385.859 321.995C386.039 321.942 386.214 321.885 386.389 321.827C386.54 321.779 386.686 321.73 386.833 321.681H386.837C397.523 318.079 400.273 311.923 400.11 304.851C401.341 304.513 402.319 303.478 402.518 302.133C403.121 297.09 431.102 303.572 431.697 287.976C431.721 287.406 431.509 287.169 431.244 286.66C430.617 287.406 430.853 287.006 430.515 287.846L430.552 287.699C430.055 288.379 429.542 288.999 429.016 289.561L429 289.577C428.902 289.687 428.796 289.793 428.69 289.899C428.653 289.94 428.613 289.98 428.572 290.021C428.486 290.111 428.397 290.196 428.307 290.282C428.258 290.327 428.213 290.372 428.164 290.412C428.063 290.514 427.957 290.608 427.851 290.702C427.72 290.82 427.586 290.938 427.451 291.044C427.056 291.378 426.649 291.683 426.241 291.965C426.103 292.062 425.969 292.152 425.83 292.237C425.74 292.299 425.651 292.356 425.557 292.409C425.366 292.527 425.17 292.641 424.974 292.747C424.844 292.82 424.714 292.889 424.583 292.955C424.412 293.044 424.245 293.126 424.074 293.207C423.683 293.395 423.284 293.557 422.884 293.704C422.742 293.761 422.595 293.81 422.453 293.859C422.31 293.908 422.163 293.957 422.021 293.998C421.899 294.038 421.78 294.075 421.658 294.108C421.613 294.12 421.573 294.132 421.528 294.144C421.414 294.177 421.304 294.205 421.19 294.234C421.084 294.258 420.974 294.287 420.868 294.311C420.717 294.348 420.566 294.38 420.412 294.413C420.302 294.438 420.191 294.458 420.077 294.478C419.817 294.527 419.556 294.572 419.295 294.613C419.083 294.645 418.871 294.674 418.664 294.694C418.586 294.706 418.509 294.715 418.432 294.723C418.264 294.743 418.097 294.759 417.93 294.772C417.824 294.78 417.719 294.788 417.613 294.796C417.474 294.808 417.336 294.816 417.197 294.825C417.05 294.833 416.904 294.841 416.757 294.845C415.686 294.89 414.622 294.873 413.567 294.829C407.745 294.568 402.286 293.358 398.86 296.124C398.607 294.983 398.33 293.835 398.053 292.686C397.356 289.83 396.643 286.97 396.175 284.195C395.877 282.435 395.678 280.712 395.645 279.046C396.941 278.875 398.346 278.952 399.829 279.176C409.684 280.659 422.962 288.665 429.92 274.043C430.633 274.25 431.42 274.222 432.157 273.904C434.984 272.755 437.629 271.989 439.996 271.297V265.789C439.352 265.866 438.651 265.952 437.885 266.062C437.755 266.078 437.616 266.098 437.478 266.119Z" fill="#8F6134"/>
<path opacity="0.21" fill-rule="evenodd" clip-rule="evenodd" d="M437.89 266.061C438.656 265.951 439.357 265.866 440 265.788V267.899C437.275 268.709 434.122 269.536 430.695 270.93C429.958 271.252 429.172 271.28 428.459 271.072C421.496 285.694 408.223 277.689 398.367 276.206C396.884 275.982 395.479 275.904 394.179 276.075C394.216 277.742 394.411 279.465 394.709 281.225C395.369 285.112 396.514 289.169 397.398 293.154C397.61 292.983 397.83 292.828 398.058 292.685C398.335 293.834 398.612 294.983 398.864 296.124C402.291 293.358 407.75 294.568 413.572 294.828C414.627 294.873 415.69 294.889 416.762 294.845C416.909 294.841 417.055 294.832 417.202 294.824C417.34 294.816 417.479 294.808 417.617 294.796C417.723 294.788 417.829 294.779 417.935 294.771C418.102 294.755 418.269 294.739 418.436 294.722C418.514 294.714 418.591 294.706 418.669 294.694C418.88 294.669 419.088 294.641 419.3 294.612C419.561 294.572 419.821 294.527 420.082 294.478C420.192 294.458 420.302 294.437 420.416 294.413C420.567 294.38 420.722 294.348 420.873 294.311C420.979 294.287 421.089 294.258 421.194 294.234C421.309 294.205 421.419 294.172 421.533 294.144C421.577 294.132 421.618 294.119 421.663 294.107C421.785 294.071 421.907 294.034 422.026 293.997C422.172 293.952 422.315 293.908 422.457 293.859C422.604 293.81 422.747 293.757 422.889 293.704C423.289 293.557 423.684 293.39 424.079 293.207C424.25 293.125 424.417 293.044 424.588 292.954C424.719 292.889 424.849 292.82 424.979 292.746C425.175 292.641 425.37 292.526 425.562 292.408C425.656 292.351 425.745 292.294 425.835 292.237C425.973 292.148 426.112 292.058 426.246 291.964C426.654 291.683 427.061 291.378 427.456 291.044C427.591 290.934 427.721 290.819 427.856 290.701C427.961 290.608 428.063 290.514 428.169 290.412C428.218 290.371 428.263 290.326 428.312 290.282C428.402 290.196 428.487 290.111 428.577 290.021C428.617 289.98 428.658 289.939 428.695 289.899C428.801 289.793 428.903 289.687 429.004 289.577L429.021 289.561C423.562 299.261 401.59 294.702 401.056 299.163C400.857 300.508 399.879 301.542 398.644 301.881C398.816 309.275 395.805 315.671 383.856 319.187C384.923 319.998 385.913 320.821 386.838 321.681C386.691 321.729 386.544 321.778 386.394 321.827C386.218 321.884 386.043 321.941 385.864 321.994C385.685 322.051 385.506 322.104 385.326 322.157C385.493 322.284 385.656 322.41 385.819 322.536C385.954 322.642 386.088 322.748 386.223 322.854C386.459 323.045 386.695 323.237 386.923 323.428C387.131 323.604 387.335 323.779 387.538 323.954C387.555 323.966 387.571 323.982 387.587 323.999C387.791 324.174 387.987 324.349 388.182 324.528C388.691 324.993 389.18 325.465 389.649 325.942C389.848 326.15 390.048 326.358 390.244 326.565C390.252 326.574 390.256 326.582 390.264 326.586C390.464 326.802 390.655 327.014 390.847 327.229C391.042 327.449 391.238 327.674 391.425 327.898C391.604 328.109 391.78 328.325 391.955 328.541C391.959 328.549 391.967 328.562 391.979 328.574C392.154 328.794 392.326 329.014 392.493 329.234C392.517 329.271 392.546 329.303 392.574 329.34C392.713 329.527 392.851 329.719 392.99 329.906C393.161 330.151 393.328 330.395 393.495 330.639C393.654 330.872 393.804 331.108 393.955 331.344C393.963 331.357 393.971 331.369 393.98 331.381C394.118 331.601 394.257 331.825 394.391 332.053C394.534 332.285 394.668 332.522 394.803 332.758C394.803 332.762 394.807 332.762 394.807 332.766C397.728 339.607 397.989 347.139 396.656 354.791H375.455C375.752 354.497 376.041 354.184 376.318 353.845C376.457 353.678 376.591 353.507 376.726 353.328C376.86 353.149 376.991 352.969 377.117 352.782C378.983 350.036 380.173 346.308 380.083 342.389C380.079 342.287 380.075 342.181 380.071 342.079C380.067 341.937 380.058 341.794 380.05 341.648C380.042 341.505 380.03 341.362 380.018 341.22C380.01 341.142 380.001 341.065 379.993 340.984C379.977 340.821 379.961 340.658 379.936 340.495C379.912 340.299 379.883 340.108 379.851 339.912C379.83 339.782 379.806 339.647 379.781 339.517C379.761 339.395 379.737 339.272 379.708 339.146C379.68 339.012 379.651 338.881 379.623 338.747C379.574 338.555 379.525 338.36 379.472 338.168C379.415 337.957 379.354 337.745 379.288 337.533C379.174 337.166 379.044 336.799 378.901 336.433C378.828 336.241 378.751 336.05 378.669 335.862C378.584 335.671 378.498 335.479 378.408 335.292C378.327 335.121 378.246 334.954 378.16 334.787C378.148 334.767 378.14 334.746 378.127 334.726C378.038 334.551 377.94 334.375 377.842 334.2C377.732 334.005 377.614 333.805 377.492 333.609V333.605C376.803 331.788 375.781 330.02 374.359 328.37C374.237 328.224 374.106 328.077 373.976 327.934C371.462 325.18 369.128 322.695 366.973 320.422C366.133 319.868 365.428 319.126 364.915 318.258C362.772 316.005 360.825 313.976 359.101 312.123C357.843 312.049 356.681 311.263 356.193 310.012C353.434 302.716 335.415 307.324 329.96 301.73C329.943 301.636 329.931 301.538 329.919 301.441C329.907 301.343 329.898 301.245 329.89 301.143C329.882 301.062 329.878 300.976 329.874 300.895C329.85 300.377 329.878 299.823 329.96 299.22C333.887 303.249 337.998 304.215 342.031 304.215C344.858 304.219 347.649 303.742 350.31 303.514C349.947 302.985 349.735 302.341 349.735 301.652C349.731 301.563 349.727 301.469 349.719 301.379C349.711 301.29 349.703 301.2 349.69 301.111C349.67 300.964 349.646 300.821 349.613 300.683C349.417 299.831 348.998 299.094 348.403 298.438C348.35 298.377 348.293 298.316 348.236 298.259C347.613 292.71 338.205 291.614 329.788 288.363C329.385 288.534 328.949 288.628 328.489 288.628C318.149 287.845 319.318 288.184 314.963 287.238C318.08 286.428 318.935 286.191 320.593 285.975C320.691 285.963 320.797 285.951 320.903 285.935C321.253 285.894 321.636 285.853 322.084 285.804C321.848 285.564 321.62 285.315 321.4 285.055C321.274 284.904 321.147 284.753 321.025 284.594C320.964 284.517 320.903 284.439 320.846 284.358C320.773 284.264 320.699 284.171 320.634 284.073C320.573 283.987 320.512 283.902 320.451 283.812C320.324 283.625 320.198 283.429 320.08 283.234C320.019 283.14 319.962 283.042 319.909 282.944C319.901 282.932 319.897 282.924 319.888 282.912L320.618 282.834C319.962 282.162 319.363 281.429 318.841 280.626C318.829 280.594 318.821 280.565 318.809 280.532C318.752 280.369 318.699 280.198 318.646 280.031C318.638 280.011 318.634 279.991 318.625 279.974C318.564 279.766 318.507 279.559 318.454 279.347C318.344 278.915 318.251 278.471 318.173 278.011C318.169 277.982 318.165 277.954 318.161 277.925C318.128 277.717 318.096 277.505 318.071 277.294C318.067 277.269 318.063 277.245 318.063 277.22C318.01 276.776 317.974 276.316 317.953 275.843C317.949 275.802 317.949 275.762 317.949 275.717C317.937 275.468 317.933 275.212 317.933 274.955V274.951C317.933 274.772 317.937 274.592 317.941 274.409C317.945 274.238 317.949 274.063 317.961 273.888C317.994 273.114 318.071 272.307 318.194 271.464C318.218 271.276 318.247 271.089 318.279 270.901C318.336 270.547 318.401 270.184 318.475 269.822C318.507 269.651 318.544 269.479 318.581 269.308C318.617 269.133 318.654 268.962 318.695 268.787C318.735 268.612 318.776 268.436 318.821 268.257C318.866 268.078 318.911 267.899 318.955 267.719C319.004 267.54 319.053 267.357 319.102 267.174C319.762 269.981 320.838 272.759 322.264 275.301C322.268 275.301 322.268 275.305 322.268 275.305C322.471 275.782 322.691 276.259 322.92 276.723C322.977 276.841 323.034 276.955 323.095 277.074C323.213 277.31 323.335 277.542 323.457 277.77C323.518 277.884 323.58 277.994 323.641 278.104C323.763 278.332 323.893 278.556 324.028 278.781C325.079 280.561 326.309 282.211 327.694 283.653C327.78 283.743 327.865 283.832 327.955 283.918C328.481 284.452 329.031 284.949 329.597 285.413C329.695 285.495 329.788 285.568 329.886 285.645C330.75 286.326 331.658 286.929 332.612 287.438C332.718 287.495 332.824 287.552 332.93 287.605C333.382 287.833 333.838 288.045 334.307 288.228C334.457 288.289 334.604 288.346 334.755 288.399C334.918 288.456 335.081 288.514 335.244 288.566C335.297 288.587 335.35 288.603 335.398 288.615C335.513 288.652 335.631 288.689 335.745 288.721C335.912 288.77 336.079 288.815 336.246 288.856C336.413 288.901 336.58 288.937 336.751 288.974C336.922 289.011 337.093 289.047 337.264 289.076C337.407 289.104 337.554 289.129 337.7 289.149C338.181 289.218 338.67 289.267 339.163 289.292C339.269 289.3 339.371 289.304 339.477 289.304C340.161 289.324 340.854 289.3 341.563 289.222C352.277 288.074 349.01 295.884 352.607 279.758C352.864 278.605 352.51 277.913 352.118 277.22C352.078 277.151 352.037 277.078 351.988 277.004C351.793 276.691 351.54 276.361 351.226 275.961C351.206 275.269 350.941 274.759 350.652 274.25C350.008 273.101 348.647 271.867 346.089 268.062C344.63 268.738 342.858 268.269 341.937 266.892C334.779 257.045 325.458 260.956 321.029 254.829C320.98 254.682 320.931 254.532 320.887 254.377C320.854 254.259 320.817 254.136 320.785 254.014C320.748 253.872 320.707 253.725 320.675 253.578C320.638 253.432 320.605 253.281 320.569 253.126C320.544 252.996 320.516 252.865 320.487 252.731L320.475 252.658C320.443 252.499 320.414 252.336 320.385 252.173C320.357 252.006 320.328 251.839 320.304 251.663C320.21 251.016 320.133 250.319 320.072 249.569C320.072 249.529 320.068 249.488 320.064 249.447C320.051 249.248 320.035 249.048 320.023 248.844C319.962 247.793 319.941 246.648 319.958 245.402C319.958 245.263 319.962 245.125 319.966 244.986C320.003 243.312 320.108 241.458 320.288 239.405C320.304 239.233 320.32 239.062 320.337 238.887C321.685 245.002 323.021 248.726 324.447 251.016C324.614 251.435 324.785 251.826 324.957 252.193C325.014 252.315 325.071 252.434 325.128 252.552C325.295 252.902 325.47 253.224 325.641 253.529C325.698 253.631 325.759 253.729 325.816 253.827C325.873 253.921 325.93 254.014 325.991 254.108C326.105 254.287 326.224 254.462 326.342 254.625C326.387 254.686 326.427 254.748 326.472 254.805C326.998 255.501 327.531 256.023 328.085 256.422C328.171 256.483 328.257 256.544 328.342 256.597C328.517 256.707 328.693 256.809 328.868 256.899C328.957 256.944 329.043 256.984 329.133 257.025C329.222 257.066 329.312 257.102 329.401 257.135C329.491 257.172 329.581 257.208 329.674 257.237C329.858 257.302 330.041 257.355 330.228 257.4C330.306 257.42 330.379 257.436 330.453 257.457C330.852 257.546 331.259 257.608 331.679 257.652C331.862 257.673 332.05 257.689 332.237 257.705C332.359 257.714 332.477 257.726 332.595 257.73C332.803 257.746 333.015 257.758 333.227 257.771C333.333 257.779 333.443 257.783 333.549 257.791C333.765 257.803 333.985 257.815 334.209 257.832C334.612 257.856 335.032 257.889 335.46 257.938C335.598 257.95 335.741 257.966 335.883 257.986C335.94 257.995 336.001 258.003 336.063 258.011C336.213 258.031 336.368 258.052 336.527 258.08C336.702 258.109 336.877 258.137 337.057 258.174C337.065 258.174 337.073 258.178 337.081 258.178C337.26 258.215 337.444 258.251 337.627 258.296C337.818 258.341 338.018 258.39 338.218 258.447C339.118 258.695 340.071 259.05 341.074 259.555C339.212 255.175 337.431 249.199 337.513 244.008C337.513 243.894 337.517 243.78 337.521 243.67C337.525 243.56 337.529 243.446 337.533 243.332C337.545 243.067 337.562 242.806 337.586 242.55C337.611 242.265 337.643 241.979 337.684 241.698C337.7 241.592 337.717 241.486 337.733 241.381C337.765 241.169 337.806 240.961 337.847 240.753C337.871 240.643 337.892 240.533 337.92 240.423C337.949 240.297 337.977 240.171 338.01 240.048C338.218 239.27 338.491 238.529 338.837 237.84C338.878 237.763 338.918 237.689 338.959 237.612C339.053 237.441 339.151 237.27 339.257 237.103C339.305 237.021 339.358 236.94 339.415 236.858C339.464 236.785 339.517 236.712 339.57 236.638C339.745 236.394 339.933 236.162 340.137 235.938C340.202 235.864 340.267 235.791 340.336 235.722C340.467 235.587 340.601 235.457 340.74 235.335C340.748 235.326 340.756 235.318 340.764 235.31C338.727 240.171 336.617 242.464 341.485 251.46C341.53 251.562 341.575 251.668 341.628 251.773C341.693 251.924 341.762 252.075 341.84 252.234C341.933 252.442 342.035 252.654 342.145 252.869C342.223 253.032 342.308 253.199 342.394 253.366C342.65 253.872 342.935 254.401 343.241 254.955C343.343 255.139 343.449 255.326 343.559 255.518C343.669 255.705 343.779 255.901 343.893 256.096C344.117 256.487 344.357 256.886 344.61 257.302C345.237 258.341 345.946 259.453 346.733 260.651C347.857 262.35 348.871 263.816 349.788 265.092C349.931 265.287 350.069 265.479 350.204 265.666C350.416 265.955 350.619 266.232 350.823 266.501C350.994 266.734 351.165 266.962 351.332 267.182C351.426 267.308 351.524 267.434 351.617 267.556C352.086 268.168 352.526 268.722 352.933 269.227C353.096 269.431 353.255 269.626 353.41 269.814C353.874 270.376 354.294 270.877 354.677 271.329C354.86 271.541 355.036 271.749 355.203 271.94C355.386 272.156 355.557 272.36 355.72 272.551C355.826 272.674 355.924 272.792 356.021 272.91C356.266 273.203 356.482 273.472 356.681 273.733C357.036 275.261 357.06 277.355 357.011 281.119C357.419 279.722 357.843 278.504 358.287 277.432C358.319 277.656 358.352 277.896 358.376 278.149C358.38 278.202 358.384 278.251 358.393 278.304C358.401 278.426 358.409 278.548 358.421 278.679C358.45 279.098 358.47 279.555 358.482 280.064C358.482 280.158 358.486 280.255 358.486 280.357C358.507 281.388 358.498 282.61 358.478 284.093C358.666 283.449 358.857 282.846 359.053 282.276C359.106 282.121 359.158 281.971 359.211 281.82C359.264 281.661 359.321 281.506 359.383 281.355C359.423 281.233 359.468 281.119 359.517 281.001C359.558 280.887 359.603 280.777 359.647 280.671C359.696 280.545 359.749 280.422 359.802 280.3C360.132 279.506 360.474 278.793 360.833 278.153C360.878 278.072 360.927 277.99 360.971 277.913C361.424 277.122 361.9 276.438 362.401 275.831C362.463 275.758 362.524 275.684 362.589 275.607C362.841 275.314 363.098 275.036 363.367 274.78C363.497 274.645 363.632 274.519 363.77 274.401C363.836 274.34 363.901 274.279 363.97 274.222C363.97 274.222 363.974 274.214 363.978 274.214C364.117 274.095 364.255 273.981 364.394 273.867C364.581 273.712 364.768 273.57 364.964 273.427C365.208 273.252 365.457 273.077 365.714 272.91C365.852 272.816 365.995 272.726 366.137 272.633C365.282 273.859 364.475 275.024 363.709 276.128C363.836 276.136 363.954 276.136 364.076 276.145C365.253 276.198 366.313 276.177 367.27 276.088C366.537 277.135 365.84 278.137 365.176 279.098C365.302 279.102 365.42 279.111 365.543 279.115C368.627 279.261 370.916 278.874 372.631 278.121C377.492 275.986 377.744 270.901 378.482 266.66C378.645 265.711 378.832 264.806 379.101 263.988C379.142 263.861 379.187 263.739 379.227 263.621C379.333 263.344 379.443 263.083 379.57 262.831C379.627 262.721 379.684 262.611 379.745 262.505C379.81 262.391 379.879 262.281 379.953 262.171C380.026 262.065 380.099 261.959 380.181 261.857C380.262 261.755 380.344 261.657 380.429 261.564C380.515 261.474 380.6 261.388 380.69 261.303C380.694 261.299 380.698 261.295 380.706 261.291C380.8 261.201 380.902 261.119 381.004 261.042C381.106 260.965 381.211 260.887 381.321 260.818C381.326 260.818 381.326 260.814 381.33 260.814C377.101 269.337 381.106 278.483 371.544 281.522C369.087 282.305 365.742 282.684 361.126 282.545C360.609 282.516 360.128 282.37 359.708 282.138C354.828 289.858 353.756 294.401 356.95 298.992C356.967 299.049 356.983 299.102 357.003 299.159C357.024 299.228 357.048 299.298 357.073 299.367C357.203 299.754 357.366 300.141 357.561 300.524C357.598 300.601 357.639 300.679 357.68 300.756C357.737 300.862 357.798 300.972 357.863 301.082C357.944 301.229 358.034 301.375 358.128 301.522C358.217 301.661 358.311 301.803 358.409 301.946C358.519 302.105 358.633 302.259 358.755 302.418C358.857 302.557 358.967 302.699 359.085 302.838C359.187 302.968 359.297 303.099 359.415 303.229C359.55 303.392 359.696 303.555 359.851 303.722C359.981 303.869 360.12 304.011 360.263 304.158C360.511 304.415 360.776 304.671 361.053 304.932C361.179 305.054 361.306 305.172 361.44 305.291C361.693 305.523 361.957 305.759 362.234 305.995C362.373 306.118 362.516 306.236 362.662 306.358C362.919 306.574 363.188 306.79 363.461 307.006C363.632 307.148 363.803 307.283 363.982 307.421C364.19 307.584 364.402 307.747 364.622 307.914C365.779 308.794 367.062 309.711 368.48 310.685C368.924 310.99 369.38 311.3 369.849 311.618C370.55 311.365 371.307 311.226 372.094 311.226C372.974 311.214 373.813 311.186 374.616 311.145C375.324 311.104 376.001 311.055 376.653 310.994C391.446 309.625 391.189 302.443 389.368 293.545C387.579 284.843 384.3 274.503 392.154 266.355C389.657 257.123 390.321 252.091 392.33 248.893C391.996 248.653 391.678 248.412 391.372 248.16C391.262 248.07 391.152 247.981 391.046 247.891C390.957 247.818 390.871 247.74 390.786 247.667C390.733 247.622 390.684 247.577 390.635 247.532C390.513 247.422 390.394 247.316 390.28 247.206C390.256 247.182 390.231 247.162 390.207 247.137C390.403 246.705 390.623 246.302 390.859 245.923C388.875 244.493 387.392 242.929 386.308 241.246C386.304 241.242 386.304 241.238 386.3 241.234C386.284 241.193 386.271 241.148 386.255 241.108C386.251 241.099 386.251 241.091 386.247 241.083C386.149 240.794 386.056 240.505 385.97 240.215C385.831 239.735 385.717 239.246 385.624 238.749C385.591 238.586 385.563 238.427 385.538 238.264C385.51 238.101 385.485 237.938 385.465 237.775C385.436 237.583 385.412 237.392 385.396 237.201C385.379 237.062 385.367 236.924 385.355 236.789C385.338 236.622 385.326 236.455 385.318 236.288C385.306 236.121 385.294 235.95 385.29 235.775C385.286 235.652 385.281 235.526 385.277 235.404C385.257 234.744 385.269 234.072 385.306 233.387C385.31 233.241 385.318 233.094 385.33 232.947C385.338 232.788 385.351 232.629 385.363 232.466C385.363 232.413 385.367 232.356 385.375 232.295C385.396 232.043 385.42 231.786 385.448 231.529C385.501 230.979 385.571 230.425 385.656 229.863C385.693 229.574 385.738 229.281 385.787 228.983C385.831 228.71 385.88 228.433 385.929 228.156C386.076 227.296 386.251 226.425 386.443 225.541C386.577 224.893 386.724 224.237 386.878 223.573C386.878 223.577 386.878 223.585 386.883 223.589C387.534 228.657 388.023 233.383 390.337 236.899C390.386 237.033 390.435 237.164 390.488 237.294C390.533 237.408 390.578 237.522 390.627 237.632C390.847 238.166 391.099 238.683 391.38 239.176C391.441 239.291 391.511 239.401 391.58 239.515C391.947 240.122 392.366 240.692 392.843 241.226C393.018 241.421 393.201 241.613 393.393 241.796C393.483 241.886 393.576 241.971 393.674 242.057C393.788 242.163 393.906 242.265 394.028 242.366C394.937 243.12 396.013 243.772 397.292 244.306L397.402 244.355C398.995 243.385 400.629 242.505 402.034 241.348C404.548 239.278 406.316 236.333 405.737 230.429L405.725 227.912C406.161 228.506 406.609 229.105 407.017 229.721C407.241 230.507 407.347 231.338 407.261 232.238C406.467 240.676 402.152 242.578 398.803 244.795C398.384 245.072 397.976 245.357 397.597 245.658L397.585 245.683C397.251 246.469 396.648 247.064 395.927 247.398C394.664 249.244 394.228 251.965 395.487 256.87C395.674 257.591 395.894 258.357 396.151 259.176C396.339 259.07 396.53 258.96 396.717 258.854C396.754 259.013 396.791 259.176 396.831 259.339C396.868 259.502 396.909 259.669 396.954 259.84C397.141 260.561 397.361 261.327 397.622 262.146C399.406 261.103 401.464 260.113 403.847 259.201C404.364 259.005 404.861 258.818 405.346 258.642C405.591 258.557 405.831 258.471 406.067 258.394C406.108 258.378 406.149 258.365 406.19 258.353C406.373 258.292 406.556 258.231 406.736 258.174C406.862 258.137 406.988 258.101 407.114 258.064C407.249 258.023 407.379 257.986 407.51 257.954C407.652 257.913 407.795 257.876 407.937 257.844C408.084 257.807 408.223 257.775 408.365 257.746C408.508 257.714 408.65 257.685 408.789 257.661C408.964 257.624 409.143 257.595 409.323 257.571C409.371 257.563 409.42 257.559 409.469 257.551C409.469 257.551 409.465 257.551 409.465 257.555C406.165 259.274 403.379 260.688 399.52 263.743C397.508 265.34 396.171 267.161 395.34 269.149C395.279 269.292 395.226 269.431 395.173 269.573C396.159 269.557 397.137 269.626 398.099 269.756C398.054 269.826 398.005 269.891 397.964 269.96C397.817 270.176 397.683 270.392 397.557 270.616C397.341 270.987 397.145 271.366 396.97 271.753C396.913 271.875 396.86 271.997 396.807 272.124C396.75 272.262 396.693 272.401 396.64 272.539C399.125 272.506 401.525 272.999 403.831 273.692C416.289 277.432 426.014 286.974 431.881 250.018C432.036 249.028 432.194 248.172 432.378 247.41C432.406 247.284 432.435 247.158 432.467 247.035C432.5 246.913 432.533 246.795 432.565 246.677C432.602 246.53 432.643 246.392 432.687 246.257C432.744 246.07 432.806 245.886 432.867 245.711C432.911 245.581 432.96 245.455 433.009 245.332C433.046 245.243 433.079 245.157 433.115 245.072C433.131 245.031 433.152 244.986 433.168 244.945V244.958C433.083 245.65 433.017 246.416 432.977 247.292C432.655 254.23 431.909 259.751 430.838 264.13C431.612 263.947 432.345 263.792 433.034 263.658C432.936 264.203 432.83 264.737 432.724 265.255C432.59 265.89 432.451 266.505 432.304 267.1C433.543 266.807 434.667 266.587 435.694 266.404C435.987 266.351 436.273 266.306 436.55 266.261C436.639 266.245 436.729 266.232 436.819 266.22C437.043 266.184 437.267 266.151 437.479 266.118C437.617 266.098 437.756 266.078 437.89 266.061Z" fill="#B37839"/>
<path opacity="0.21" fill-rule="evenodd" clip-rule="evenodd" d="M126.276 293.15C138.715 294.486 147.572 280.537 148.008 268.706C151.532 279.274 149.776 285.605 145.751 289.728C149.609 290.135 148.883 290.196 158.543 292.608C144.887 295.44 151.772 294.47 137.879 295.521C137.419 295.521 136.983 295.427 136.584 295.256C127.955 298.585 118.287 299.656 118.104 305.576C118.104 306.264 117.892 306.908 117.529 307.438C120.19 307.666 122.98 308.143 125.808 308.143C129.841 308.139 133.952 307.173 137.879 303.148C139.725 316.857 113.549 307.992 110.176 316.91C109.687 318.161 108.526 318.951 107.267 319.02C105.539 320.878 103.596 322.907 101.449 325.16C100.936 326.028 100.235 326.769 99.3957 327.323C97.2405 329.597 94.9061 332.082 92.3923 334.836C92.262 334.979 92.1316 335.125 92.0094 335.272C86.0205 342.247 87.0716 351.348 90.722 356.714C91.3453 357.634 92.0461 358.441 92.8038 359.113H69.329C67.7809 346.834 70.6938 335.036 82.5168 326.093C70.5716 322.577 67.5568 316.181 67.7279 308.786C66.4935 308.448 65.5157 307.413 65.3201 306.065C64.7172 301.025 36.7364 307.507 36.1416 291.907C36.1212 291.337 36.329 291.101 36.5938 290.592C37.2212 291.337 36.989 290.938 37.3231 291.777L37.2864 291.63C42.1794 298.316 48.4087 299.017 54.2712 298.756C60.0931 298.495 65.5524 297.289 68.9786 300.056C69.8668 296.071 71.0075 292.013 71.6675 288.127C71.9649 286.371 72.1646 284.647 72.1972 282.981C70.9016 282.81 69.4961 282.887 68.0131 283.107C58.1579 284.59 44.8846 292.6 37.922 277.978C37.209 278.186 36.4187 278.153 35.6853 277.836C22.9009 272.645 13.9175 275.285 16.7449 257.371C21.4668 271.109 22.0657 268.575 32.1531 270.339C33.1798 270.519 34.3042 270.743 35.5427 271.032C34.4712 266.652 33.7257 261.132 33.3998 254.194C33.1757 249.419 32.2998 247.952 30.5194 243.593C34.235 247.223 35.1272 248.661 35.9664 253.949C41.8331 290.905 51.5538 281.364 64.0164 277.624C66.3224 276.931 68.7179 276.438 71.2072 276.475C71.1542 276.336 71.0972 276.194 71.0401 276.055C70.209 274.067 68.8727 272.246 66.8561 270.649C62.6149 267.284 59.6612 265.911 55.9009 263.931C54.9312 263.422 53.9127 262.871 52.8005 262.236C53.0287 262.146 53.2527 262.065 53.4727 261.987C57.1842 260.729 60.0849 261.645 63.9961 263.14C66.3835 264.053 68.4368 265.039 70.2253 266.086C70.4861 265.267 70.7061 264.501 70.8894 263.78C72.1483 258.875 71.7124 256.157 70.4494 254.308C69.7283 253.974 69.1253 253.383 68.7912 252.593L68.7831 252.568C68.4001 252.267 67.9927 251.981 67.5731 251.704C64.2283 249.488 59.9098 247.586 59.1153 239.148C58.8424 236.231 60.5209 234.023 62.1179 231.852L62.1057 234.373C61.5272 240.273 63.2994 243.222 65.8131 245.292C67.2146 246.449 68.8523 247.329 70.4412 248.299L70.5512 248.25C71.8305 247.716 72.9061 247.064 73.8146 246.31C79.3268 241.735 78.6831 233.4 80.3494 224.966C83.132 236.296 84.9124 246.054 75.5135 252.837C77.5179 256.031 78.1861 261.067 75.6886 270.299C83.5394 278.443 80.2598 288.787 78.4753 297.489C76.6501 306.387 76.3935 313.569 91.1864 314.938C91.8383 314.999 92.5186 315.048 93.2235 315.085C94.022 315.13 94.8612 315.154 95.7412 315.17C96.5275 315.17 97.2894 315.309 97.9901 315.561C112.437 305.82 114.649 301.689 106.664 289.051C106.24 289.284 105.759 289.43 105.246 289.459C100.63 289.597 97.2853 289.219 94.8246 288.436C83.9509 284.981 90.6242 273.623 82.7775 264.269C83.2786 263.963 83.1686 263.923 83.7309 263.959C87.8212 264.204 88.7501 267.121 89.3572 270.608C90.0905 274.849 90.3431 279.934 95.2075 282.069C96.9227 282.822 99.2083 283.209 102.296 283.063C102.419 283.059 102.537 283.054 102.663 283.046C100.679 280.17 98.3731 276.915 95.7453 273.187C102.288 277.119 106.318 277.579 109.361 288.041C109.21 276.605 109.74 280.581 118.051 269.044C118.972 267.769 119.986 266.302 121.106 264.603C132.75 246.938 126.285 247.72 124.109 237.535C133.593 240.908 130.33 255.131 126.765 263.507C127.772 262.998 128.721 262.643 129.625 262.395C138.067 260.06 142.341 266.807 147.205 239.963C151.422 275.904 135.398 258.744 124.439 273.81C123.518 275.187 121.746 275.656 120.288 274.98C117.733 278.785 116.368 280.019 115.725 281.168C115.333 281.861 114.979 282.553 115.24 283.706C118.829 299.807 115.562 292.001 126.276 293.15ZM99.1105 359.109H99.1553L99.2124 359.032L99.1105 359.109Z" fill="#8F6134"/>
<path opacity="0.21" fill-rule="evenodd" clip-rule="evenodd" d="M126.276 293.15C135.064 294.095 142.063 287.41 145.571 279.233C147.001 276.695 148.08 273.908 148.74 271.101C150.305 276.805 150.203 281.164 149.001 284.554C148.479 285.356 147.881 286.09 147.225 286.762L147.954 286.843C147.339 287.915 146.597 288.872 145.758 289.732C148.618 290.033 148.964 290.143 152.879 291.166C148.524 292.111 149.693 291.773 139.353 292.555C138.893 292.555 138.457 292.462 138.058 292.291C129.641 295.542 120.234 296.642 119.606 302.186C118.694 303.119 118.152 304.223 118.107 305.58C118.107 306.269 117.895 306.912 117.533 307.442C120.193 307.67 122.984 308.147 125.811 308.147C129.845 308.143 133.955 307.177 137.883 303.152C138.009 304.093 138.001 304.92 137.879 305.662C132.428 311.251 114.408 306.648 111.646 313.944C111.157 315.195 109.996 315.981 108.737 316.055C107.009 317.908 105.066 319.941 102.919 322.194C102.406 323.062 101.701 323.799 100.866 324.354C98.7105 326.627 96.3761 329.112 93.8624 331.866C93.732 332.009 93.6016 332.155 93.4794 332.302C92.0616 333.956 91.035 335.728 90.3465 337.541C86.2724 344.125 87.4539 351.915 90.7213 356.714C91.2305 357.464 91.7887 358.136 92.3835 358.722H71.1779C69.8457 351.071 70.1065 343.538 73.0316 336.698C75.1868 332.868 78.275 329.295 82.512 326.089C81.9905 325.934 81.4853 325.775 80.9924 325.612C81.9172 324.761 82.9113 323.93 83.9787 323.123C72.0335 319.607 69.0187 313.211 69.1898 305.816C67.9594 305.478 66.9776 304.443 66.782 303.099C66.2483 298.638 44.2768 303.197 38.8135 293.496C43.4376 298.455 48.9987 298.996 54.2624 298.764C60.0842 298.503 65.5435 297.298 68.9698 300.064C69.2224 298.923 69.4994 297.774 69.7765 296.625C70.0046 296.768 70.2246 296.923 70.4365 297.094C71.3246 293.109 72.4653 289.052 73.1213 285.161C73.4187 283.405 73.6183 281.682 73.6509 280.011C72.3553 279.84 70.9498 279.918 69.4668 280.142C59.6116 281.625 46.3383 289.63 39.3757 275.008C38.6627 275.216 37.8765 275.183 37.139 274.866C25.9027 270.303 17.6079 271.79 17.6772 260.056C21.5842 270.767 22.7657 268.702 32.1402 270.339C33.1668 270.519 34.2913 270.743 35.5298 271.032C35.265 269.956 35.0205 268.808 34.8005 267.589C35.489 267.724 36.2224 267.879 36.9964 268.062C35.925 263.682 35.1794 258.162 34.8535 251.224C34.8127 250.344 34.7476 249.574 34.662 248.877C35.2405 250.189 35.599 251.729 35.9535 253.949C41.8202 290.905 51.5409 281.364 64.0035 277.624C66.3094 276.931 68.705 276.438 71.1942 276.475C71.1413 276.336 71.0842 276.194 71.0272 276.055C70.685 275.236 70.2572 274.45 69.7357 273.692C70.6972 273.562 71.675 273.489 72.665 273.505C72.612 273.362 72.555 273.224 72.4979 273.085C71.6668 271.097 70.3305 269.276 68.3139 267.679C64.4557 264.623 61.669 263.206 58.369 261.486C60.1413 261.719 61.9257 262.346 63.9872 263.136C66.3746 264.049 68.4279 265.035 70.2165 266.082C70.4772 265.263 70.6972 264.497 70.8805 263.776C70.9661 263.438 71.0476 263.108 71.1168 262.79C71.3083 262.896 71.4957 263.006 71.6831 263.112C71.9439 262.293 72.1639 261.527 72.3472 260.806C73.6061 255.901 73.1702 253.179 71.9072 251.334C71.1861 251 70.5831 250.409 70.249 249.619L70.2409 249.594C69.8579 249.293 69.4546 249.008 69.0309 248.73C65.6861 246.518 61.3676 244.612 60.5731 236.174C60.4876 235.274 60.5935 234.443 60.8216 233.656C61.229 233.041 61.6731 232.442 62.1131 231.848L62.1009 234.369C61.5224 240.269 63.2946 243.218 65.8083 245.288C67.2098 246.445 68.8476 247.325 70.4365 248.295L70.5465 248.246C71.8257 247.712 72.9013 247.06 73.8098 246.306C75.5861 244.832 76.7227 242.97 77.5009 240.839C79.819 237.319 80.2998 232.589 80.9557 227.513C82.4794 234.088 83.3798 240.073 81.5342 245.17C80.4505 246.856 78.9635 248.425 76.9753 249.859C77.2116 250.238 77.4316 250.641 77.6272 251.073C76.9957 251.676 76.2909 252.263 75.5087 252.829C77.5131 256.023 78.1813 261.059 75.6839 270.291C83.5346 278.435 80.255 288.779 78.4705 297.481C76.6453 306.379 76.3887 313.561 91.1816 314.93C91.8335 314.991 92.5139 315.04 93.2187 315.077C94.0172 315.122 94.8565 315.146 95.7365 315.162C96.5228 315.162 97.2846 315.301 97.9853 315.553C105.498 310.489 109.698 306.941 110.88 302.924C114.074 298.336 113.002 293.79 108.126 286.069C107.702 286.302 107.221 286.448 106.708 286.477C102.092 286.615 98.7431 286.236 96.2865 285.458C86.7246 282.419 90.7294 273.273 86.5005 264.75C88.3135 265.891 88.9165 268.095 89.3483 270.596C90.0816 274.837 90.3342 279.922 95.1987 282.056C96.9139 282.81 99.1994 283.197 102.288 283.051C102.41 283.046 102.528 283.042 102.654 283.034C101.99 282.073 101.293 281.071 100.56 280.023C101.518 280.113 102.577 280.133 103.758 280.08C103.881 280.076 103.999 280.072 104.125 280.064C103.359 278.956 102.548 277.791 101.685 276.561C104.948 278.618 107.36 281.18 109.352 288.025C109.311 284.823 109.323 282.831 109.543 281.364C109.988 282.435 110.415 283.658 110.819 285.051C110.77 281.286 110.794 279.192 111.145 277.665C112.416 275.998 114.534 273.892 118.038 269.023C118.959 267.748 119.973 266.282 121.094 264.583C123.619 260.749 125.294 257.787 126.341 255.392C131.209 246.396 129.103 244.102 127.062 239.242C132.762 244.33 129.869 256.149 126.752 263.487C127.759 262.978 128.708 262.623 129.612 262.375C135.829 260.659 139.785 263.862 143.383 254.943C144.809 252.658 146.141 248.934 147.494 242.819C148.219 250.535 147.881 255.489 146.797 258.761C142.368 264.888 133.051 260.977 125.889 270.824C124.968 272.205 123.196 272.67 121.737 271.993C119.179 275.799 117.818 277.033 117.174 278.182C116.885 278.695 116.62 279.201 116.6 279.893C116.213 280.382 115.919 280.773 115.703 281.152C115.312 281.845 114.958 282.537 115.219 283.69C118.828 299.807 115.561 292.001 126.276 293.15Z" fill="#B37839"/>
<path fill-rule="evenodd" clip-rule="evenodd" d="M160.568 290.742C173.592 291.83 175.434 332.705 175.397 342.014C175.373 348.032 175.507 354.342 174.48 360.335H172.431C169.693 356.803 166.658 352.15 164.45 349.16C159.859 342.931 152.212 329.975 144.728 327.783C152.15 324.235 166.133 345.856 169.074 350.928L169.188 351.128C168.113 347.991 167.098 344.931 166.21 342.544C162.776 333.312 157.964 314.775 149.572 309.462C159.899 307.723 169.429 339.089 171.246 346.325L171.396 346.923C171.075 342.89 170.798 338.983 170.468 335.891C169.172 323.656 169.078 299.754 160.568 290.742Z" fill="#759E54"/>
<path fill-rule="evenodd" clip-rule="evenodd" d="M181.899 318.124C174 318.78 172.883 343.575 172.904 349.221C172.916 352.872 172.834 356.697 173.458 360.331H174.7C176.362 358.188 178.204 355.369 179.54 353.552C182.327 349.775 186.963 341.916 191.502 340.584C187 338.433 178.518 351.547 176.733 354.619L176.664 354.742C177.316 352.839 177.931 350.981 178.469 349.535C180.551 343.933 183.472 332.693 188.56 329.47C182.298 328.415 176.517 347.441 175.413 351.829L175.32 352.191C175.515 349.743 175.682 347.376 175.882 345.497C176.68 338.087 176.737 323.591 181.899 318.124Z" fill="#759E54"/>
<path fill-rule="evenodd" clip-rule="evenodd" d="M142.988 324.43C149.906 323.277 156.253 344.3 157.463 349.148C158.245 352.281 159.146 355.544 159.402 358.799L158.335 359.068C156.445 357.589 154.253 355.573 152.709 354.306C149.498 351.67 143.815 345.942 139.631 345.787C143.025 342.963 153.149 352.366 155.345 354.615L155.43 354.705C154.456 353.214 153.528 351.755 152.749 350.631C149.747 346.28 144.801 337.272 139.733 335.614C144.874 333.349 153.968 348.41 155.866 351.934L156.025 352.224C155.324 350.166 154.668 348.174 154.086 346.606C151.804 340.417 148.602 327.995 142.988 324.43Z" fill="#759E54"/>
<path fill-rule="evenodd" clip-rule="evenodd" d="M157.695 335.862C153.674 337.247 156.359 350.289 157.117 353.226C157.606 355.125 158.066 357.125 158.869 358.934L159.517 358.771C160.099 357.439 160.686 355.728 161.142 354.607C162.091 352.277 163.468 347.575 165.656 346.284C163.032 345.758 160.348 353.699 159.826 355.532L159.806 355.605C159.895 354.53 159.969 353.483 160.058 352.66C160.405 349.474 160.441 343.24 162.662 340.894C159.264 341.171 158.767 351.829 158.771 354.257V354.456C158.551 353.157 158.327 351.902 158.18 350.9C157.61 346.936 155.732 339.386 157.695 335.862Z" fill="#759E54"/>
<path fill-rule="evenodd" clip-rule="evenodd" d="M253.199 309.454C243.678 310.249 242.329 340.132 242.358 346.94C242.374 351.34 242.276 355.952 243.026 360.331H244.525C246.526 357.748 248.746 354.351 250.359 352.163C253.716 347.608 259.306 338.14 264.777 336.535C259.351 333.94 249.129 349.747 246.978 353.454L246.892 353.601C247.679 351.307 248.42 349.071 249.068 347.327C251.577 340.576 255.097 327.026 261.233 323.143C253.684 321.872 246.717 344.805 245.385 350.093L245.275 350.529C245.511 347.58 245.715 344.724 245.955 342.463C246.909 333.52 246.978 316.046 253.199 309.454Z" fill="#759E54"/>
<path fill-rule="evenodd" clip-rule="evenodd" d="M237.608 329.475C243.385 329.955 244.2 348.081 244.183 352.208C244.171 354.876 244.232 357.675 243.776 360.332H242.868C241.653 358.763 240.305 356.702 239.327 355.378C237.29 352.615 233.9 346.871 230.58 345.897C233.872 344.325 240.073 353.911 241.376 356.16L241.429 356.249C240.953 354.856 240.505 353.499 240.109 352.444C238.586 348.35 236.455 340.132 232.731 337.778C237.31 337.008 241.535 350.916 242.342 354.123L242.411 354.388C242.269 352.599 242.146 350.868 242 349.495C241.421 344.072 241.376 333.471 237.608 329.475Z" fill="#759E54"/>
<path fill-rule="evenodd" clip-rule="evenodd" d="M266.053 334.086C260.993 333.243 256.357 348.61 255.472 352.155C254.902 354.445 254.242 356.832 254.055 359.211L254.833 359.407C256.214 358.327 257.815 356.852 258.944 355.927C261.29 354 265.446 349.812 268.505 349.698C266.024 347.633 258.622 354.51 257.017 356.152L256.955 356.217C257.668 355.125 258.349 354.062 258.915 353.239C261.111 350.057 264.725 343.473 268.432 342.263C264.672 340.605 258.027 351.617 256.638 354.192L256.524 354.404C257.037 352.9 257.518 351.442 257.941 350.297C259.608 345.775 261.946 336.694 266.053 334.086Z" fill="#759E54"/>
<path fill-rule="evenodd" clip-rule="evenodd" d="M255.301 342.442C258.243 343.453 256.279 352.99 255.725 355.133C255.366 356.518 255.028 357.981 254.442 359.305L253.969 359.187C253.545 358.213 253.117 356.962 252.783 356.143C252.087 354.436 251.08 351.002 249.483 350.061C251.402 349.678 253.366 355.479 253.745 356.824L253.761 356.877C253.696 356.09 253.643 355.324 253.578 354.721C253.325 352.391 253.301 347.832 251.671 346.117C254.156 346.321 254.519 354.11 254.515 355.887V356.033C254.678 355.084 254.841 354.167 254.947 353.434C255.362 350.537 256.735 345.021 255.301 342.442Z" fill="#759E54"/>
<path fill-rule="evenodd" clip-rule="evenodd" d="M312.335 277.11C296.923 278.394 294.743 326.761 294.784 337.777C294.812 344.895 294.653 352.363 295.867 359.451H298.292C301.53 355.271 305.124 349.767 307.735 346.227C313.17 338.857 322.214 323.526 331.072 320.931C322.292 316.735 305.743 342.316 302.264 348.317L302.125 348.553C303.4 344.838 304.598 341.22 305.649 338.397C309.711 327.47 315.407 305.539 325.335 299.253C313.117 297.196 301.84 334.31 299.689 342.87L299.51 343.575C299.893 338.804 300.219 334.18 300.61 330.521C302.154 316.059 302.268 287.776 312.335 277.11Z" fill="#759E54"/>
<path fill-rule="evenodd" clip-rule="evenodd" d="M287.096 309.511C296.442 310.29 297.766 339.627 297.738 346.308C297.721 350.627 297.815 355.153 297.082 359.456H295.611C293.647 356.921 291.468 353.585 289.883 351.434C286.587 346.964 281.103 337.667 275.729 336.091C281.054 333.544 291.093 349.063 293.203 352.701L293.285 352.843C292.515 350.59 291.785 348.394 291.146 346.683C288.681 340.055 285.226 326.753 279.205 322.944C286.615 321.697 293.456 344.206 294.76 349.397L294.87 349.824C294.637 346.928 294.438 344.125 294.201 341.908C293.272 333.133 293.203 315.981 287.096 309.511Z" fill="#759E54"/>
<path fill-rule="evenodd" clip-rule="evenodd" d="M333.138 316.975C324.953 315.615 317.444 340.483 316.014 346.219C315.09 349.927 314.022 353.789 313.721 357.639L314.98 357.957C317.216 356.209 319.811 353.821 321.637 352.322C325.434 349.205 332.16 342.422 337.11 342.239C333.097 338.898 321.115 350.024 318.516 352.685L318.414 352.791C319.567 351.027 320.667 349.303 321.588 347.971C325.14 342.821 330.995 332.164 336.988 330.204C330.901 327.523 320.146 345.343 317.897 349.511L317.709 349.853C318.536 347.421 319.318 345.058 320.003 343.208C322.708 335.891 326.497 321.196 333.138 316.975Z" fill="#759E54"/>
<path fill-rule="evenodd" clip-rule="evenodd" d="M315.736 330.501C320.495 332.139 317.317 347.571 316.425 351.047C315.846 353.291 315.301 355.658 314.351 357.797L313.585 357.602C312.897 356.025 312.204 354 311.662 352.676C310.538 349.918 308.908 344.357 306.321 342.829C309.426 342.206 312.604 351.601 313.223 353.772L313.247 353.858C313.141 352.582 313.052 351.348 312.946 350.37C312.538 346.598 312.494 339.224 309.866 336.445C313.887 336.771 314.478 349.384 314.469 352.257V352.493C314.73 350.957 314.995 349.47 315.166 348.288C315.838 343.603 318.063 334.673 315.736 330.501Z" fill="#759E54"/>
<path fill-rule="evenodd" clip-rule="evenodd" d="M129.47 307.764C138.816 308.542 140.14 337.879 140.112 344.561C140.095 348.879 140.193 353.406 139.456 357.708H137.985C136.021 355.174 133.842 351.837 132.257 349.686C128.961 345.217 123.473 335.92 118.104 334.343C123.428 331.797 133.467 347.315 135.577 350.953L135.659 351.096C134.889 348.843 134.159 346.647 133.52 344.936C131.055 338.307 127.6 325.005 121.579 321.196C128.989 319.949 135.83 342.459 137.134 347.649L137.243 348.077C137.011 345.18 136.812 342.377 136.575 340.161C135.642 331.385 135.573 314.233 129.47 307.764Z" fill="#759E54"/>
<path fill-rule="evenodd" clip-rule="evenodd" d="M144.776 327.417C139.105 327.89 138.306 345.681 138.318 349.735C138.331 352.354 138.27 355.1 138.718 357.708H139.61C140.8 356.172 142.124 354.147 143.085 352.843C145.086 350.134 148.41 344.491 151.669 343.538C148.439 341.994 142.352 351.405 141.073 353.613L141.024 353.699C141.492 352.334 141.932 351.002 142.319 349.963C143.814 345.946 145.909 337.875 149.559 335.565C145.065 334.807 140.914 348.46 140.123 351.609L140.058 351.87C140.197 350.114 140.319 348.415 140.461 347.066C141.032 341.741 141.073 331.34 144.776 327.417Z" fill="#759E54"/>
<path fill-rule="evenodd" clip-rule="evenodd" d="M116.852 331.939C121.819 331.112 126.369 346.198 127.237 349.677C127.799 351.926 128.443 354.269 128.627 356.603L127.861 356.799C126.504 355.74 124.931 354.289 123.823 353.381C121.521 351.49 117.439 347.376 114.437 347.266C116.873 345.237 124.137 351.987 125.714 353.601L125.775 353.666C125.078 352.595 124.41 351.552 123.852 350.741C121.697 347.62 118.148 341.155 114.51 339.965C118.201 338.339 124.728 349.148 126.088 351.674L126.202 351.882C125.701 350.407 125.229 348.973 124.813 347.852C123.179 343.416 120.882 334.502 116.852 331.939Z" fill="#759E54"/>
<path fill-rule="evenodd" clip-rule="evenodd" d="M127.404 340.145C124.516 341.139 126.443 350.497 126.989 352.603C127.339 353.964 127.673 355.402 128.247 356.698L128.712 356.579C129.127 355.622 129.551 354.396 129.877 353.593C130.562 351.919 131.547 348.545 133.116 347.621C131.234 347.242 129.307 352.941 128.932 354.257L128.916 354.31C128.981 353.536 129.034 352.786 129.099 352.196C129.347 349.91 129.372 345.437 130.969 343.75C128.533 343.95 128.174 351.597 128.178 353.341V353.483C128.019 352.55 127.856 351.65 127.754 350.933C127.347 348.093 125.994 342.675 127.404 340.145Z" fill="#759E54"/>
<path fill-rule="evenodd" clip-rule="evenodd" d="M51.0198 200.428C48.1353 197.943 33.0083 196.59 37.9013 203.561C42.0161 209.42 53.3624 208.955 53.2524 209.473C50.9953 219.776 65.4705 226.372 59.4694 212.166C57.8724 208.385 57.2776 208.984 62.5902 212.72C67.479 216.158 68.135 216.427 72.8731 214.423C74.8816 213.575 71.0602 205.765 62.5005 205.533C68.1268 183.688 51.1257 177.516 51.0198 200.428Z" fill="#EBE236"/>
<path fill-rule="evenodd" clip-rule="evenodd" d="M50.832 199.471C51.2964 199.1 53.6798 201.32 56.1527 204.429C58.6257 207.537 60.2553 210.357 59.7909 210.723C59.3264 211.094 56.9431 208.874 54.4701 205.765C51.9972 202.657 50.3675 199.837 50.832 199.471Z" fill="#8F891F"/>
<path fill-rule="evenodd" clip-rule="evenodd" d="M355.337 295.676C358.221 293.191 373.348 291.838 368.456 298.809C364.341 304.667 352.994 304.203 353.104 304.72C355.361 315.024 340.886 321.62 346.887 307.413C348.484 303.633 349.079 304.227 343.767 307.967C338.878 311.406 338.222 311.675 333.484 309.67C331.475 308.823 335.297 301.013 343.856 300.781C338.23 278.931 355.231 272.759 355.337 295.676Z" fill="#EBE236"/>
<path fill-rule="evenodd" clip-rule="evenodd" d="M355.528 294.714C355.064 294.344 352.68 296.564 350.207 299.672C347.734 302.781 346.105 305.6 346.569 305.967C347.034 306.338 349.417 304.117 351.89 301.009C354.363 297.904 355.993 295.085 355.528 294.714Z" fill="#8F891F"/>
<path fill-rule="evenodd" clip-rule="evenodd" d="M313.378 40.4473C316.262 37.9622 331.39 36.6096 326.497 43.5803C322.386 49.4388 311.035 48.9744 311.145 49.4918C313.402 59.7951 298.927 66.391 304.928 52.1847C306.525 48.404 307.12 49.0029 301.808 52.7388C296.919 56.1773 296.263 56.4462 291.525 54.4418C289.516 53.5944 293.338 45.7844 301.897 45.5521C296.271 23.7029 313.272 17.5307 313.378 40.4473Z" fill="#EBE236"/>
<path fill-rule="evenodd" clip-rule="evenodd" d="M313.569 39.4859C313.105 39.1152 310.721 41.3356 308.248 44.4441C305.775 47.5526 304.146 50.3719 304.61 50.7385C305.075 51.1093 307.458 48.8889 309.931 45.7804C312.404 42.6759 314.034 39.8567 313.569 39.4859Z" fill="#8F891F"/>
</g>
<defs>
<clipPath id="clip0">
<rect width="440" height="440" fill="white"/>
</clipPath>
</defs>
</svg>
