<svg width="440" height="440" viewBox="0 0 440 440" fill="none" xmlns="http://www.w3.org/2000/svg">
<g clip-path="url(#clip0)">
<path d="M0 0H440V440H0V0Z" fill="#D0E9FF"/>
<path fill-rule="evenodd" clip-rule="evenodd" d="M4.90922 275.204C3.32441 273.774 1.68661 272.401 -6.02514e-05 271.085V414.651C4.40809 411.208 8.49437 407.367 12.2018 403.183C26.457 387.098 35.1348 365.962 35.1348 342.866C35.1348 333.862 33.8148 325.16 31.3622 316.934C30.2907 313.333 28.9951 309.825 27.504 306.423C22.2485 294.462 14.4955 283.833 4.90922 275.204Z" fill="#8EAC34"/>
<path fill-rule="evenodd" clip-rule="evenodd" d="M-0.000395501 239.124V332.241C12.4011 331.385 23.4948 325.641 31.3618 316.934C32.9629 315.166 34.4296 313.276 35.7414 311.275C40.5936 303.922 43.417 295.122 43.417 285.686C43.417 267.915 33.4029 252.413 18.7281 244.534C13.0774 241.495 6.72997 239.588 -0.000395501 239.124Z" fill="url(#paint0_linear)"/>
<path fill-rule="evenodd" clip-rule="evenodd" d="M1.08789 365.526L0.00012209 363.945V366.275L1.08789 365.526Z" fill="#AF7A34"/>
<path fill-rule="evenodd" clip-rule="evenodd" d="M21.6211 221.108C21.6211 198.147 13.5096 177.014 1.0612e-08 160.437V281.775C1.72741 279.657 3.36521 277.465 4.90928 275.204C11.1997 265.992 15.9337 255.644 18.7285 244.534C20.6189 237.034 21.6211 229.183 21.6211 221.108Z" fill="url(#paint1_linear)"/>
<path fill-rule="evenodd" clip-rule="evenodd" d="M-1.87557e-06 301.97V403.219C1.95148 403.447 3.93555 403.565 5.94814 403.565C8.06259 403.565 10.1526 403.435 12.2018 403.183C37.343 400.082 56.9189 378.555 56.9189 352.595C56.9189 335.626 48.5548 320.552 35.7419 311.276C33.163 309.414 30.4089 307.784 27.5041 306.423C20.9489 303.343 13.6441 301.624 5.94814 301.624C3.93555 301.624 1.95148 301.742 -1.87557e-06 301.97Z" fill="url(#paint2_linear)"/>
<path fill-rule="evenodd" clip-rule="evenodd" d="M413.71 379.724C413.71 394.142 419.129 407.342 428.026 417.381C431.518 421.32 435.547 424.775 440 427.627V331.821C437.372 333.504 434.891 335.398 432.581 337.476C426.592 342.87 421.752 349.507 418.473 356.974C417.54 359.097 416.737 361.285 416.065 363.534C414.533 368.667 413.71 374.102 413.71 379.724Z" fill="#8EAC34"/>
<path fill-rule="evenodd" clip-rule="evenodd" d="M408.536 344.023C408.536 349.914 410.3 355.406 413.331 360.001C414.15 361.248 415.067 362.43 416.065 363.534C421.406 369.441 429.122 373.165 437.678 373.165C438.46 373.165 439.234 373.132 440 373.071V314.975C439.234 314.914 438.46 314.881 437.678 314.881C432.724 314.881 428.047 316.128 423.952 318.328C414.79 323.249 408.536 332.929 408.536 344.023Z" fill="url(#paint3_linear)"/>
<path fill-rule="evenodd" clip-rule="evenodd" d="M434.969 393.869L440 397.336V387.962L439.348 387.514L434.969 393.869Z" fill="#AF7A34"/>
<path fill-rule="evenodd" clip-rule="evenodd" d="M422.147 303.702C422.147 308.746 422.775 313.643 423.952 318.328C425.696 325.262 428.654 331.723 432.581 337.476C434.765 340.678 437.25 343.66 440 346.378V261.03C428.984 271.932 422.147 287.043 422.147 303.702Z" fill="url(#paint4_linear)"/>
<path fill-rule="evenodd" clip-rule="evenodd" d="M400.107 385.799C400.107 402.005 412.329 415.446 428.026 417.381C429.31 417.54 430.613 417.621 431.933 417.621C434.72 417.621 437.421 417.259 440 416.578V355.019C437.421 354.339 434.72 353.976 431.933 353.976C427.13 353.976 422.563 355.052 418.473 356.974C416.66 357.822 414.94 358.84 413.331 360.002C405.33 365.791 400.107 375.206 400.107 385.799Z" fill="url(#paint5_linear)"/>
<path fill-rule="evenodd" clip-rule="evenodd" d="M193.901 410.304C120.018 410.304 52.2541 416.211 4.76837e-06 425.973V440H440V438.615C386.014 421.536 295.77 410.304 193.901 410.304Z" fill="#5AA746"/>
<path fill-rule="evenodd" clip-rule="evenodd" d="M6.31514e-05 44.7618V131.267C3.42228 130.403 6.50226 128.81 8.69004 126.386C10.5397 124.341 39.1193 136.327 44.5419 120.642H44.546C52.0137 120.601 58.4712 119.126 60.6141 115.284C63.8693 109.458 67.8578 122.014 80.9478 118.315C97.2482 113.712 88.0245 109.108 95.5126 110.371C126.093 115.541 124.068 83.4819 106.529 82.6222C86.7207 81.6526 92.95 89.6174 90.7744 81.9133C86.3093 66.1059 73.5452 74.083 73.0685 72.0704C70.9133 62.9444 53.6148 62.7204 51.9322 63.7959C38.0315 72.7059 53.183 54.01 26.2249 52.69C16.5734 52.2174 12.5074 54.1078 11.0326 56.1407C10.4134 54.4785 9.39892 52.2663 7.81818 49.3696C4.96633 44.1344 2.08599 44.167 6.31514e-05 44.7618Z" fill="#FDFDFD"/>
<path fill-rule="evenodd" clip-rule="evenodd" d="M254.247 431.836C253.216 431.815 252.157 431.799 251.086 431.795C252.349 431.045 253.583 430.068 254.031 429.518C256.121 426.971 264.004 421.96 256.72 428.405C256.651 428.405 256.496 428.568 256.288 428.833C255.974 429.175 255.71 429.546 255.506 429.917C255.07 430.552 254.601 431.273 254.247 431.836ZM247.61 431.807C247.358 428.532 250.527 426.006 252.74 424.217C253.33 423.74 248.584 424.673 245.17 429.713C244.498 430.703 243.789 431.432 243.096 431.933C244.534 431.868 246.058 431.828 247.61 431.807ZM239.185 432.211C237.499 432.386 236.113 432.618 235.209 432.932C235.156 432.952 235.091 432.968 235.017 432.989C236.089 432.023 237.152 430.589 237.784 429.029C238.619 426.963 248.352 420.99 241.837 426.181C238.594 428.76 238.22 431.127 239.185 432.211ZM231.656 433.364C231.493 432.736 231.559 431.742 231.958 430.292C233.143 425.989 238.195 423.977 235.437 425.109C231.237 426.833 230.349 429.848 227.615 431.343C226.364 432.027 225.219 432.333 224.221 432.365C226.344 433.258 229.31 433.445 231.656 433.364Z" fill="#FFB363"/>
<path fill-rule="evenodd" clip-rule="evenodd" d="M122.157 427.574C120.751 423.859 137.732 415.307 142.377 405.599C146.785 396.383 121.554 392.635 121.554 427.574C121.554 427.77 120.226 383.566 98.8328 393.499C91.7154 396.803 97.8754 411.689 106.496 415.902C109.002 417.128 120.796 429.852 121.179 429.379C124.536 425.183 122.723 393.926 115.765 385.929C81.1065 346.076 120.649 334.677 123.359 375.389C124.785 396.774 131.108 392.537 122.234 414.92C121.012 417.992 121.509 425.859 122.157 427.574Z" fill="#56E254"/>
<path fill-rule="evenodd" clip-rule="evenodd" d="M118.718 427.448C119.546 424.315 134.872 426.682 142.556 422.437C149.848 418.407 134.872 403.965 118.319 427.163C118.226 427.293 138.286 397.312 119.374 393.771C113.084 392.594 110.122 405.395 113.85 412.276C114.934 414.276 116.738 428.315 117.215 428.181C121.432 426.987 135.035 405.374 134.204 396.766C130.069 353.886 161.728 365.049 144.243 393.364C135.06 408.238 141.264 408.422 124.768 419.08C122.499 420.542 119.101 426.001 118.718 427.448Z" fill="#4FD34C"/>
<path fill-rule="evenodd" clip-rule="evenodd" d="M286.244 405.721C286.318 404.857 290.779 416.411 290.587 420.876C290.371 425.887 291.251 423.928 289.186 428.751C287.756 432.096 266.175 432.536 263.735 432.288C258.752 431.778 240.052 431.261 235.208 432.931C233.42 433.547 221.242 434.414 221.483 428.751C221.686 423.94 223.878 427.224 227.602 422.649C230.397 419.21 242.334 413.543 246.726 412.28C250.71 411.135 248.021 408.862 250.4 406.544C260.154 405.709 277.383 405.778 286.24 405.778V405.721H286.244Z" fill="#FFB363"/>
<path opacity="0.6" fill-rule="evenodd" clip-rule="evenodd" d="M249.089 410.308C259.681 412.06 274.658 411.359 287.638 408.801C286.88 406.747 286.269 405.407 286.24 405.721V405.778C277.383 405.778 260.158 405.709 250.401 406.544C249.028 407.884 249.341 409.208 249.089 410.308Z" fill="#D09C6F"/>
<path fill-rule="evenodd" clip-rule="evenodd" d="M245.418 429.354C245.614 430.239 246.184 431.102 247.231 431.811C246.315 431.823 245.41 431.848 244.53 431.876C244.791 431.485 244.852 431.013 244.616 430.459C244.803 430.23 244.987 429.982 245.166 429.713C245.251 429.591 245.337 429.473 245.418 429.354ZM224.873 432.308C224.897 432.369 224.926 432.43 224.954 432.491C224.987 432.557 225.024 432.618 225.068 432.671C224.775 432.581 224.494 432.479 224.225 432.365C224.433 432.357 224.649 432.341 224.873 432.308ZM226.873 433.09C228.197 432.87 229.815 431.901 230.552 430.251C231.053 429.134 231.827 427.713 232.813 426.613C233.534 426.059 234.378 425.545 235.437 425.109C235.702 424.999 235.897 424.922 236.028 424.869C236.407 424.906 235.099 425.325 234.329 426.25C233.339 427.448 232.377 428.34 231.888 429.909C231.338 431.681 231.245 432.866 231.652 433.335L231.66 433.363C230.185 433.416 228.47 433.359 226.873 433.09ZM242.265 425.077C240.55 426.209 238.179 428.051 237.784 429.029C237.152 430.593 236.089 432.027 235.017 432.989C235.091 432.968 235.156 432.952 235.209 432.931C235.755 432.74 236.484 432.581 237.344 432.447C236.716 428.584 242.506 424.987 242.318 425.056L242.265 425.077Z" fill="#FFB363"/>
<path fill-rule="evenodd" clip-rule="evenodd" d="M247.231 431.811C246.314 431.823 245.41 431.848 244.53 431.876C244.941 431.253 244.852 430.426 243.874 429.383C242.171 427.562 247.088 423.537 249.785 423.39C250.694 423.341 252.763 422.934 253.835 422.816C253.774 422.824 250.323 424.278 249.032 424.51C245.675 425.121 243.642 429.383 247.231 431.811ZM237.343 432.447C236.716 428.584 242.505 424.987 242.318 425.056C237.571 426.824 237.095 430.19 235.094 431.889C234.316 432.549 233.664 433.005 233.139 433.27C234.112 433.18 234.858 433.05 235.208 432.931C235.754 432.744 236.483 432.581 237.343 432.447ZM231.676 433.363C230.201 433.416 228.478 433.359 226.873 433.09C228.197 432.87 229.814 431.901 230.552 430.251C231.493 428.149 233.399 424.971 235.885 424.869C236.638 424.836 235.163 425.244 234.328 426.254C233.338 427.452 232.377 428.344 231.888 429.913C231.322 431.717 231.236 432.915 231.676 433.363ZM225.064 432.671C225.019 432.614 224.982 432.557 224.954 432.491C223.597 429.611 226.343 427.366 228.148 425.557C228.229 425.476 224.278 428.495 224.098 428.711C223.279 429.709 222.835 430.67 222.778 431.53C223.389 432.023 224.18 432.394 225.064 432.671Z" fill="#FFB363"/>
<path fill-rule="evenodd" clip-rule="evenodd" d="M224.22 432.365C224.432 432.357 224.648 432.341 224.872 432.308C224.896 432.369 224.925 432.43 224.953 432.491C224.986 432.557 225.023 432.618 225.067 432.671C224.774 432.577 224.489 432.475 224.22 432.365ZM232.812 426.613C233.533 426.059 234.377 425.545 235.436 425.109C235.701 424.999 235.896 424.922 236.027 424.869C236.406 424.906 235.098 425.325 234.328 426.25C233.338 427.448 232.376 428.34 231.887 429.909C231.337 431.681 231.244 432.866 231.651 433.335L231.659 433.363C230.189 433.416 228.473 433.359 226.872 433.09C228.196 432.87 229.814 431.901 230.551 430.251C231.052 429.134 231.822 427.713 232.812 426.613ZM245.418 429.354C245.613 430.239 246.183 431.102 247.23 431.811C246.314 431.823 245.409 431.848 244.529 431.876C244.79 431.485 244.851 431.013 244.615 430.459C244.802 430.23 244.986 429.982 245.165 429.713C245.25 429.591 245.336 429.473 245.418 429.354ZM242.264 425.077C240.549 426.209 238.178 428.051 237.783 429.029C237.151 430.593 236.088 432.027 235.016 432.989C235.09 432.968 235.155 432.952 235.208 432.931C235.754 432.74 236.483 432.581 237.343 432.447C236.715 428.584 242.505 424.987 242.317 425.06L242.264 425.077Z" fill="#00FF00"/>
<path fill-rule="evenodd" clip-rule="evenodd" d="M297.138 50.9504C302.773 50.7182 354.163 88.3911 354.562 90.5626C354.562 90.5626 325.087 79.473 297.273 79.473C274.25 79.473 254.316 82.716 244.628 87.4378C244.823 87.0386 248.034 84.8467 250.564 82.8097C261.555 73.9689 291.63 51.1786 297.138 50.9504Z" fill="#FFBA55"/>
<path fill-rule="evenodd" clip-rule="evenodd" d="M297.135 50.9504C297.644 58.9234 306.607 71.223 314.617 80.7197C335.887 83.5919 354.192 90.4241 354.555 90.5586C354.102 88.3504 302.765 50.7182 297.135 50.9504Z" fill="#D3A664"/>
<path fill-rule="evenodd" clip-rule="evenodd" d="M244.624 87.4377C254.312 82.7159 274.247 79.4729 297.269 79.4729C324.863 79.4729 354.098 90.3914 354.555 90.5585C354.388 89.7396 347.217 84.0481 337.973 77.2159C325.527 74.474 310.237 73.3618 297.269 73.3618C282.725 73.3618 268.991 74.6492 258.085 76.9022C258.081 76.9022 258.081 76.9022 258.081 76.9022C255.127 79.1837 252.536 81.2207 250.56 82.8096C248.03 84.8466 244.819 87.0426 244.624 87.4377Z" fill="#CE7359"/>
<path fill-rule="evenodd" clip-rule="evenodd" d="M354.559 90.5626C350.619 100.332 311.667 103.592 302.683 102.32C289.243 100.418 283.385 102.903 267.487 98.1689C267.39 98.1404 243.059 90.6563 244.628 87.4419C254.312 82.72 274.246 79.4771 297.273 79.4771C325.083 79.4771 348.39 84.207 354.559 90.5626Z" fill="#CF9847"/>
<path fill-rule="evenodd" clip-rule="evenodd" d="M267.483 98.1688C283.385 102.903 289.239 100.418 302.683 102.32C311.667 103.591 350.619 100.332 354.559 90.5625C353.727 89.7029 352.583 88.8759 351.157 88.0855C340.552 95.0277 310.44 97.3051 302.683 96.2092C289.239 94.3066 283.385 96.7918 267.483 92.0577C267.422 92.0374 256.353 88.6355 249.619 85.4292C247.74 86.0607 246.07 86.7329 244.624 87.4377C243.055 90.6562 267.39 98.1403 267.483 98.1688Z" fill="#CE7359"/>
<path fill-rule="evenodd" clip-rule="evenodd" d="M320.585 91.1697C321.689 89.3119 323.135 86.6067 323.144 85.1115C323.152 83.6448 323.245 82.2597 323.262 80.9519C320.577 80.6259 317.778 80.353 314.881 80.1289C315.717 81.2126 315.892 82.7852 315.089 85.083C315.081 85.1156 313.146 92.8237 313.089 94.1356L313.264 94.1397C313.292 94.0826 313.325 94.0134 313.366 93.9237C315.105 89.9434 318.434 89.7478 320.585 91.1697ZM279.091 80.1778C278.092 80.2593 277.102 80.3408 276.125 80.4345C276.736 81.0456 277.538 81.5589 278.471 82.0111C278.708 81.1067 278.928 80.4671 279.091 80.1778Z" fill="#6F441D"/>
<path fill-rule="evenodd" clip-rule="evenodd" d="M292.596 117.659C294.169 120.841 294.845 126.235 295.819 130.391C297.925 138.254 321.212 140.776 320.964 132.517C320.842 128.443 317.733 120.483 317.529 116.36C317.346 112.701 317.603 109.299 316.829 104.577C314.902 104.288 314.185 100.01 314.185 100.01C314.796 105.938 305.287 117.655 299.033 118.001C296.646 118.132 294.511 118.001 292.596 117.659Z" fill="#F4A45B"/>
<path opacity="0.6" fill-rule="evenodd" clip-rule="evenodd" d="M292.596 117.659C293.028 118.531 293.39 119.574 293.708 120.711C297.118 120.87 301.457 120.613 305.62 119.061C312.775 116.396 314.522 110.904 315.427 103.486C314.543 102.129 314.184 100.006 314.184 100.006C314.795 105.934 305.286 117.651 299.029 117.997C296.645 118.132 294.51 118.002 292.596 117.659Z" fill="#D09C6F"/>
<path fill-rule="evenodd" clip-rule="evenodd" d="M299.029 117.997C304.631 117.688 312.832 108.273 314.054 102.047C314.963 106.398 323.873 106.093 322.581 94.2618C322.17 90.4974 315.977 87.947 313.366 93.9277C312.201 96.5881 315.077 85.1236 315.089 85.0829C315.892 82.7892 315.712 81.2125 314.881 80.1329C309.32 79.7051 303.405 79.4729 297.269 79.4729C290.922 79.4729 284.815 79.7214 279.086 80.1777C277.498 83.0499 269.993 119.615 299.029 117.997Z" fill="#FFB363"/>
<path fill-rule="evenodd" clip-rule="evenodd" d="M301.563 91.8419C300.956 91.8419 300.459 91.1371 300.459 90.2775C300.459 89.4138 300.956 88.713 301.563 88.713C302.17 88.713 302.667 89.4178 302.667 90.2775C302.667 91.1412 302.17 91.8419 301.563 91.8419Z" fill="#6F441D"/>
<path fill-rule="evenodd" clip-rule="evenodd" d="M285.046 91.8419C284.439 91.8419 283.942 91.1371 283.942 90.2775C283.942 89.4138 284.439 88.713 285.046 88.713C285.653 88.713 286.15 89.4178 286.15 90.2775C286.15 91.1412 285.657 91.8419 285.046 91.8419Z" fill="#6F441D"/>
<path fill-rule="evenodd" clip-rule="evenodd" d="M296.038 108.631C294.734 109.214 295.948 109.919 292.233 109.919C289.931 109.919 288.448 108.647 288.358 108.656C288.697 110.2 290.347 110.904 291.711 111.198C292.925 111.454 294.335 111.304 295.105 110.163C295.46 109.646 295.675 108.794 296.038 108.631Z" fill="#E09C60"/>
<path fill-rule="evenodd" clip-rule="evenodd" d="M297.998 103.229C294.454 105.437 290.97 106.533 287.357 103.196C287.059 102.919 288.22 105.514 290.139 106.928C292.213 108.452 296.67 106.794 297.607 104.093C297.729 103.734 297.961 103.253 297.998 103.229Z" fill="#FDFDFD"/>
<path fill-rule="evenodd" clip-rule="evenodd" d="M305.637 81.5466H298.984C298.353 81.5466 297.84 82.064 297.84 82.6914C297.84 83.3229 298.357 83.8363 298.984 83.8363H305.637C306.269 83.8363 306.782 83.3189 306.782 82.6914C306.782 82.06 306.269 81.5466 305.637 81.5466Z" fill="#6F441D"/>
<path fill-rule="evenodd" clip-rule="evenodd" d="M288.468 81.5466H281.815C281.184 81.5466 280.671 82.064 280.671 82.6914C280.671 83.3229 281.188 83.8363 281.815 83.8363H288.468C289.1 83.8363 289.613 83.3189 289.613 82.6914C289.617 82.06 289.1 81.5466 288.468 81.5466Z" fill="#6F441D"/>
<path fill-rule="evenodd" clip-rule="evenodd" d="M292.669 87.6333C290.343 87.6333 288.436 89.5359 288.436 91.8663V97.1178C288.436 99.444 290.339 101.351 292.669 101.351C294.996 101.351 296.902 99.4481 296.902 97.1178V91.8663C296.902 89.54 294.996 87.6333 292.669 87.6333Z" fill="url(#paint6_linear)"/>
<path fill-rule="evenodd" clip-rule="evenodd" d="M296.829 162.511C306.203 190.919 278.777 306.88 274.87 305.959C271.378 305.136 230.951 279.71 230.951 279.71C230.951 279.71 252.438 155.247 263.519 145.143C271.191 138.148 291.814 147.319 296.829 162.511Z" fill="#958068"/>
<path fill-rule="evenodd" clip-rule="evenodd" d="M293.651 156.172C294.971 158.099 296.051 160.189 296.792 162.409C296.805 162.442 296.813 162.474 296.825 162.507C296.91 162.767 296.996 163.036 297.073 163.313C297.151 163.578 297.228 163.851 297.297 164.132C297.342 164.307 297.387 164.483 297.428 164.666C297.46 164.8 297.489 164.935 297.522 165.069C297.587 165.379 297.652 165.693 297.717 166.014C297.778 166.336 297.839 166.666 297.896 167.004C297.982 167.51 298.059 168.031 298.133 168.569C298.157 168.748 298.177 168.927 298.202 169.111C298.239 169.392 298.271 169.673 298.304 169.962C298.332 170.235 298.361 170.512 298.389 170.797C298.422 171.144 298.455 171.494 298.483 171.849C298.491 171.963 298.499 172.081 298.512 172.199C298.524 172.39 298.54 172.586 298.552 172.782C301.213 211.864 278.406 306.79 274.87 305.955C273.798 305.702 269.227 303.119 263.413 299.664C272.853 265.487 290.612 191.041 293.651 156.172ZM273.945 143.416C274.385 143.497 274.898 143.481 275.46 143.387C279.962 144.507 284.774 147.062 288.787 150.663C278.618 184.173 259.258 255.44 250.177 291.651C244.176 287.964 238.46 284.407 234.842 282.146C246.168 240.053 266.974 174.786 273.945 143.416Z" fill="#86725C"/>
<path fill-rule="evenodd" clip-rule="evenodd" d="M263.613 260.468C263.821 260.508 233.832 326.973 242.86 403.517C243.109 405.627 244.938 407.191 247.06 407.11C255.205 406.8 271.195 405.851 287.773 406.034C290.017 406.059 291.855 404.258 291.883 402.013C292.23 373.328 296.255 324.932 310.783 303.408C314.336 298.145 324.056 315.794 324.056 334.673C324.056 340.426 324.386 384.303 323.893 400.453C323.82 402.844 325.816 404.784 328.208 404.641C339.196 403.985 354.791 403.957 365.221 403.961C367.474 403.961 369.303 402.131 369.295 399.878C369.14 352.68 360.597 261.042 360.597 261.042C352.954 251.843 266.93 254.577 263.613 260.468Z" fill="#73614E"/>
<path fill-rule="evenodd" clip-rule="evenodd" d="M360.592 261.042C352.415 261.079 342.641 262.476 333.263 262.476C318.633 262.476 305.832 264.562 291.161 263.324C289.552 263.189 263.543 260.855 263.613 260.464C268.269 232.96 266.35 196.749 261.523 176.253C258.834 164.837 250.755 146.227 280.471 133.336C284.916 131.409 287.817 130.326 290.493 129.747C291.642 129.498 294.791 128.969 295.508 128.969C302.52 133.793 309.385 134.066 317.085 130.142C319.607 128.859 319.456 125.123 319.456 125.123C323.432 126.895 345.921 128.916 353.34 130.888C367.827 134.734 352.501 198.444 357.117 224.673C360.046 241.316 360.457 253.249 360.592 261.042Z" fill="#958068"/>
<path fill-rule="evenodd" clip-rule="evenodd" d="M229.105 253.383L209.444 266.184C205.325 268.864 206.869 273.778 207.427 278.663L212.862 326.236C213.42 331.12 221.356 331.129 225.341 328.252L284.264 285.723C288.248 282.847 290.848 275.065 286.281 273.244L241.58 255.4C237.017 253.575 233.224 250.702 229.105 253.383Z" fill="#4CAC5B"/>
<path fill-rule="evenodd" clip-rule="evenodd" d="M236.324 249.289L203.74 272.808L197.075 263.576C193.412 258.5 194.565 251.346 199.645 247.679L213.766 237.486C218.842 233.823 225.996 234.976 229.663 240.057L236.324 249.289ZM231.57 248.828L226.754 242.155C224.106 238.484 218.936 237.649 215.265 240.301L201.841 249.989C198.171 252.637 197.335 257.807 199.988 261.478L204.803 268.148L231.57 248.828Z" fill="#4CAC5B"/>
<path fill-rule="evenodd" clip-rule="evenodd" d="M209.965 284.004L145.981 298.732C144.372 299.102 145.945 300.549 144.963 302.048L134.032 318.686C133.046 320.186 137.255 321.013 138.864 320.654L222.933 301.971C224.546 301.612 225.002 300.109 223.951 298.654L214.797 285.972C213.75 284.517 211.574 283.633 209.965 284.004Z" fill="#4CAC5B"/>
<path fill-rule="evenodd" clip-rule="evenodd" d="M146.731 308.273C154.187 297.538 157.617 286.615 155.417 281.796L124.955 325.665C130.243 326.04 139.276 319.008 146.731 308.273Z" fill="#5FCE70"/>
<path fill-rule="evenodd" clip-rule="evenodd" d="M241.556 213.693C241.372 213.62 215.498 224.221 211.579 226.315C211.179 226.531 204.775 239.165 219.576 238.582C223.344 238.435 217.596 245.312 228.995 246.893C229.236 246.926 238.602 260.973 254.47 251C270.51 240.92 242.423 214.048 241.556 213.693Z" fill="#FFB363"/>
<path opacity="0.6" fill-rule="evenodd" clip-rule="evenodd" d="M236.557 215.657C239.36 228.046 240.871 243.063 247.096 254.157C249.366 253.656 251.83 252.658 254.47 251C270.506 240.92 242.419 214.044 241.556 213.689C241.507 213.669 239.506 214.459 236.557 215.657Z" fill="#D09C6F"/>
<path fill-rule="evenodd" clip-rule="evenodd" d="M351.886 158.787C351.886 165.363 353.413 253.55 354.065 261.287C356.322 261.148 358.51 261.05 360.592 261.042C360.457 253.248 360.046 241.315 357.117 224.673C354.342 208.906 358.771 179.597 359.602 157.887C355.177 158.571 351.886 159.365 351.886 158.787Z" fill="#826D57"/>
<path fill-rule="evenodd" clip-rule="evenodd" d="M295.505 128.973C299.302 131.584 303.05 132.864 306.916 132.864V263.605C303.099 263.739 299.241 263.772 295.265 263.589V128.985C295.362 128.977 295.444 128.973 295.505 128.973ZM317.081 130.146C319.603 128.863 319.452 125.127 319.452 125.127C320.764 125.71 324.093 126.321 328.224 126.948V262.554C324.26 262.668 320.402 262.896 316.576 263.116V130.395C316.743 130.317 316.914 130.232 317.081 130.146ZM349.531 130.081V261.609C345.73 261.894 341.803 262.216 337.883 262.375V128.317C342.104 128.9 346.28 129.49 349.531 130.081ZM280.468 133.34C282.452 132.481 284.122 131.788 285.605 131.234V262.827C282.256 262.517 277.901 262.11 273.957 261.715V136.583C275.892 135.471 278.056 134.387 280.468 133.34Z" fill="#86725C"/>
<path fill-rule="evenodd" clip-rule="evenodd" d="M333.761 429.835C332.73 429.815 331.667 429.799 330.595 429.795C331.858 429.045 333.093 428.067 333.541 427.517C335.631 424.971 343.51 419.96 336.23 426.405C336.16 426.405 336.006 426.568 335.798 426.833C335.48 427.175 335.219 427.546 335.016 427.916C334.584 428.552 334.115 429.273 333.761 429.835ZM327.124 429.807C326.867 426.527 330.037 424.005 332.253 422.217C332.844 421.74 328.098 422.673 324.684 427.713C324.011 428.703 323.303 429.432 322.614 429.933C324.048 429.868 325.572 429.827 327.124 429.807ZM318.699 430.21C317.012 430.385 315.627 430.618 314.723 430.931C314.666 430.952 314.604 430.968 314.531 430.988C315.603 430.023 316.666 428.589 317.297 427.028C318.133 424.963 327.866 418.986 321.351 424.18C318.108 426.759 317.733 429.126 318.699 430.21ZM311.17 431.363C311.007 430.736 311.072 429.742 311.467 428.291C312.653 423.989 317.705 421.976 314.947 423.109C310.746 424.832 309.858 427.847 307.124 429.342C305.874 430.027 304.729 430.332 303.731 430.365C305.861 431.257 308.823 431.445 311.17 431.363Z" fill="#FFB363"/>
<path fill-rule="evenodd" clip-rule="evenodd" d="M365.758 403.724C365.831 402.861 370.292 414.415 370.101 418.88C369.885 423.891 370.765 421.931 368.699 426.755C367.269 430.1 345.689 430.54 343.249 430.291C338.266 429.782 319.566 429.265 314.722 430.935C312.933 431.554 300.756 432.418 300.996 426.755C301.2 421.944 303.392 425.227 307.116 420.652C309.91 417.214 321.843 411.547 326.239 410.284C330.224 409.139 327.535 406.865 329.914 404.547C339.672 403.712 356.897 403.781 365.754 403.781V403.724H365.758Z" fill="#FFB363"/>
<path opacity="0.6" fill-rule="evenodd" clip-rule="evenodd" d="M328.586 408.369C338.75 410.52 353.983 410.064 367.448 407.631C366.564 405.126 365.782 403.362 365.753 403.72V403.777C356.896 403.777 339.671 403.708 329.914 404.543C328.512 405.912 328.867 407.261 328.586 408.369Z" fill="#D09C6F"/>
<path fill-rule="evenodd" clip-rule="evenodd" d="M303.734 430.365C304.732 430.336 305.877 430.027 307.127 429.342C309.861 427.847 310.749 424.832 314.95 423.109C317.708 421.976 312.656 423.989 311.47 428.291C311.071 429.742 311.006 430.736 311.173 431.363C308.822 431.445 305.86 431.257 303.734 430.365ZM314.53 430.988C314.603 430.968 314.668 430.947 314.721 430.931C315.622 430.622 317.007 430.385 318.698 430.21C317.736 429.126 318.111 426.759 321.35 424.176C327.868 418.986 318.131 424.959 317.296 427.024C316.665 428.593 315.601 430.027 314.53 430.988ZM322.609 429.933C323.301 429.432 324.006 428.703 324.678 427.713C328.097 422.673 332.839 421.74 332.248 422.217C330.032 424.001 326.862 426.527 327.119 429.807C325.571 429.827 324.047 429.868 322.609 429.933ZM330.594 429.794C331.666 429.803 332.725 429.815 333.76 429.835C334.118 429.273 334.583 428.552 335.018 427.916C335.222 427.546 335.483 427.175 335.801 426.833C336.008 426.572 336.163 426.409 336.233 426.405C343.513 419.96 335.634 424.971 333.544 427.517C333.091 428.067 331.857 429.045 330.594 429.794Z" fill="#DA9751"/>
<path fill-rule="evenodd" clip-rule="evenodd" d="M245.418 429.354C245.614 430.239 246.184 431.102 247.231 431.811C246.315 431.823 245.41 431.848 244.53 431.876C244.791 431.485 244.852 431.013 244.616 430.459C244.803 430.23 244.987 429.982 245.166 429.713C245.251 429.591 245.337 429.473 245.418 429.354ZM224.873 432.308C224.897 432.369 224.926 432.43 224.954 432.491C224.987 432.557 225.024 432.618 225.068 432.671C224.775 432.581 224.494 432.479 224.225 432.365C224.433 432.357 224.649 432.341 224.873 432.308ZM226.873 433.09C228.197 432.87 229.815 431.901 230.552 430.251C231.053 429.134 231.827 427.713 232.813 426.613C233.534 426.059 234.378 425.545 235.437 425.109C235.702 424.999 235.897 424.922 236.028 424.869C236.407 424.906 235.099 425.325 234.329 426.25C233.339 427.448 232.377 428.34 231.888 429.909C231.338 431.681 231.245 432.866 231.652 433.335L231.66 433.363C230.185 433.416 228.47 433.359 226.873 433.09ZM242.265 425.077C240.55 426.209 238.179 428.051 237.784 429.029C237.152 430.593 236.089 432.027 235.017 432.989C235.091 432.968 235.156 432.952 235.209 432.931C235.755 432.74 236.484 432.581 237.344 432.447C236.716 428.584 242.506 424.987 242.318 425.056L242.265 425.077Z" fill="#DA9751"/>
<path fill-rule="evenodd" clip-rule="evenodd" d="M253.839 422.82C253.778 422.828 250.327 424.282 249.036 424.514C245.674 425.126 243.641 429.383 247.235 431.811C246.318 431.823 245.414 431.848 244.534 431.876C244.945 431.253 244.856 430.426 243.878 429.383C242.175 427.562 247.092 423.537 249.789 423.39C250.694 423.341 252.767 422.934 253.839 422.82ZM222.778 431.53C222.835 430.67 223.275 429.705 224.098 428.711C224.273 428.495 228.229 425.476 228.148 425.557C226.343 427.362 223.597 429.611 224.954 432.491C224.982 432.557 225.023 432.618 225.064 432.671C224.18 432.394 223.389 432.023 222.778 431.53ZM226.873 433.09C228.478 433.359 230.201 433.416 231.676 433.363C231.24 432.915 231.326 431.717 231.888 429.913C232.377 428.344 233.338 427.452 234.328 426.254C235.163 425.248 236.638 424.84 235.884 424.869C233.399 424.971 231.493 428.153 230.551 430.251C229.814 431.901 228.197 432.87 226.873 433.09ZM233.139 433.27C234.112 433.18 234.858 433.05 235.208 432.931C235.754 432.74 236.483 432.581 237.343 432.447C236.716 428.584 242.505 424.987 242.317 425.056C237.571 426.824 237.094 430.19 235.094 431.889C234.316 432.549 233.664 433.005 233.139 433.27Z" fill="#DA9751"/>
<path fill-rule="evenodd" clip-rule="evenodd" d="M245.418 429.354C245.614 430.239 246.184 431.102 247.231 431.811C246.315 431.823 245.41 431.848 244.53 431.876C244.791 431.485 244.852 431.013 244.616 430.459C244.803 430.23 244.987 429.982 245.166 429.713C245.251 429.591 245.337 429.473 245.418 429.354ZM224.873 432.308C224.897 432.369 224.926 432.43 224.954 432.491C224.987 432.557 225.024 432.618 225.068 432.671C224.775 432.581 224.494 432.479 224.225 432.365C224.433 432.357 224.649 432.341 224.873 432.308ZM226.873 433.09C228.197 432.87 229.815 431.901 230.552 430.251C231.053 429.134 231.827 427.713 232.813 426.613C233.534 426.059 234.378 425.545 235.437 425.109C235.702 424.999 235.897 424.922 236.028 424.869C236.407 424.906 235.099 425.325 234.329 426.25C233.339 427.448 232.377 428.34 231.888 429.909C231.338 431.681 231.245 432.866 231.652 433.335L231.66 433.363C230.185 433.416 228.47 433.359 226.873 433.09ZM242.265 425.077C240.55 426.209 238.179 428.051 237.784 429.029C237.152 430.593 236.089 432.027 235.017 432.989C235.091 432.968 235.156 432.952 235.209 432.931C235.755 432.74 236.484 432.581 237.344 432.447C236.716 428.584 242.506 424.987 242.318 425.06L242.265 425.077Z" fill="#DA9751"/>
<path fill-rule="evenodd" clip-rule="evenodd" d="M365.986 166.328C354.237 193.84 256.993 262.709 254.674 259.433C252.898 256.928 242.737 223.011 239.845 213.29C239.376 211.722 239.894 210.027 241.161 208.984C255.624 197.096 340.845 127.629 353.34 130.888C365.229 133.988 372.269 151.617 365.986 166.328Z" fill="#958068"/>
<path fill-rule="evenodd" clip-rule="evenodd" d="M361.973 136.502C365.55 140.633 367.856 146.463 368.264 152.704C335.61 172.472 273.44 211.383 245.08 230.666C243.495 225.471 242.012 220.558 240.92 216.904C277.893 191.816 337.688 155.251 361.973 136.502ZM368.068 158.701C367.73 161.272 367.05 163.843 365.986 166.328C354.864 192.374 267.137 255.465 255.827 259.356C255.648 259.417 255.485 259.461 255.347 259.494C255.277 259.51 255.212 259.523 255.155 259.531C254.907 259.563 254.744 259.531 254.67 259.429C254.043 258.541 252.356 253.701 250.311 247.386C277.811 229.77 343.473 183.35 368.068 158.701Z" fill="#86725C"/>
<path opacity="0.17" fill-rule="evenodd" clip-rule="evenodd" d="M263.613 260.468C296.397 237.971 325.75 211.611 353.454 183.403C322.988 210.927 292.824 236.716 264.509 254.593C264.212 256.553 263.91 258.508 263.613 260.468Z" fill="black"/>
<path fill-rule="evenodd" clip-rule="evenodd" d="M130.896 310.929C125.518 314.714 127.942 310.705 119.696 318.238C116.217 321.416 109.103 328.004 111.201 334.343C113.149 340.23 118.853 336.767 120.943 328.961C122.756 322.194 130.639 311.622 130.639 309.133L130.896 310.929Z" fill="white"/>
<path fill-rule="evenodd" clip-rule="evenodd" d="M139.101 330.542C120.931 334.343 136.576 367.999 141.151 350.073C141.562 348.472 139.423 330.472 139.101 330.542Z" fill="white"/>
</g>
<defs>
<linearGradient id="paint0_linear" x1="23.0747" y1="310.962" x2="-1.66691" y2="218.974" gradientUnits="userSpaceOnUse">
<stop stop-color="#8CAB3F"/>
<stop offset="1" stop-color="#CBDB2A"/>
</linearGradient>
<linearGradient id="paint1_linear" x1="-8.78642" y1="281.38" x2="20.8526" y2="152.619" gradientUnits="userSpaceOnUse">
<stop stop-color="#88C540"/>
<stop offset="1" stop-color="#CBDB2A"/>
</linearGradient>
<linearGradient id="paint2_linear" x1="20.933" y1="362.877" x2="69.0415" y2="153.879" gradientUnits="userSpaceOnUse">
<stop stop-color="#88C540"/>
<stop offset="1" stop-color="#CBDB2A"/>
</linearGradient>
<linearGradient id="paint3_linear" x1="423.313" y1="360.17" x2="439.063" y2="301.611" gradientUnits="userSpaceOnUse">
<stop stop-color="#8CAB3F"/>
<stop offset="1" stop-color="#CBDB2A"/>
</linearGradient>
<linearGradient id="paint4_linear" x1="445.018" y1="346.367" x2="424.17" y2="255.799" gradientUnits="userSpaceOnUse">
<stop stop-color="#88C540"/>
<stop offset="1" stop-color="#CBDB2A"/>
</linearGradient>
<linearGradient id="paint5_linear" x1="424.575" y1="391.868" x2="394.451" y2="261.002" gradientUnits="userSpaceOnUse">
<stop stop-color="#88C540"/>
<stop offset="1" stop-color="#CBDB2A"/>
</linearGradient>
<linearGradient id="paint6_linear" x1="292.668" y1="91.2363" x2="292.668" y2="100.797" gradientUnits="userSpaceOnUse">
<stop stop-color="#FFB66D"/>
<stop offset="0.3336" stop-color="#FEB36C"/>
<stop offset="0.5528" stop-color="#FCAA69"/>
<stop offset="0.7392" stop-color="#F79C63"/>
<stop offset="0.9062" stop-color="#F1875C"/>
<stop offset="1" stop-color="#ED7756"/>
</linearGradient>
<clipPath id="clip0">
<rect width="440" height="440" fill="white" transform="matrix(-1 0 0 1 440 0)"/>
</clipPath>
</defs>
</svg>
