<svg width="48" height="48" viewBox="0 0 48 48" fill="none" xmlns="http://www.w3.org/2000/svg">
<path d="M24 4C12.972 4 4 12.972 4 24C4 35.028 12.972 44 24 44C35.028 44 44 35.028 44 24C44 12.972 35.028 4 24 4ZM24 40C15.178 40 8 32.822 8 24C8 15.178 15.178 8 24 8C32.822 8 40 15.178 40 24C40 32.822 32.822 40 24 40Z" fill="#737295"/>
<path d="M26 16C26 14.8954 25.1046 14 24 14C22.8954 14 22 14.8954 22 16V24C22 25.1046 22.8954 26 24 26H32C33.1046 26 34 25.1046 34 24C34 22.8954 33.1046 22 32 22H26V16Z" fill="#737295"/>
</svg>
