<svg width="32" height="32" viewBox="0 0 32 32" fill="none" xmlns="http://www.w3.org/2000/svg">
<path d="M14.6667 8.74731C14.6667 7.9088 13.6968 7.44263 13.042 7.96644L8.27393 11.7809C8.09662 11.9227 7.87631 12 7.64924 12H3.66669C3.1144 12 2.66669 12.4477 2.66669 13V19C2.66669 19.5523 3.1144 20 3.66669 20H7.64924C7.87631 20 8.09662 20.0773 8.27393 20.2192L13.042 24.0336C13.6968 24.5574 14.6667 24.0912 14.6667 23.2527V8.74731Z" stroke="#100F37" stroke-width="3" stroke-linecap="round" stroke-linejoin="round"/>
<path d="M25.4266 6.5733C27.9263 9.07367 29.3305 12.4644 29.3305 16C29.3305 19.5355 27.9263 22.9263 25.4266 25.4266M20.72 11.28C21.9698 12.5302 22.6719 14.2255 22.6719 15.9933C22.6719 17.7611 21.9698 19.4565 20.72 20.7066" stroke="#100F37" stroke-width="3" stroke-linecap="round" stroke-linejoin="round"/>
</svg>
